<svg width="72" height="72" viewBox="0 0 72 72" fill="none" xmlns="http://www.w3.org/2000/svg">
<g filter="url(#filter0_d_86_15)">
<circle cx="36" cy="36" r="24" fill="#E93123"/>
</g>
<g clip-path="url(#clip0_86_15)">
<path d="M43.5557 38.8149C42.4537 38.8149 41.3716 38.6426 40.3462 38.3037C39.8438 38.1323 39.2261 38.2896 38.9194 38.6045L36.8955 40.1324C34.5483 38.8794 33.1025 37.4341 31.8667 35.1045L33.3496 33.1334C33.7349 32.7486 33.873 32.1866 33.7075 31.6592C33.3672 30.6285 33.1943 29.5469 33.1943 28.4444C33.1943 27.648 32.5464 27 31.75 27H28.4444C27.648 27 27 27.648 27 28.4444C27 37.5733 34.4268 45 43.5557 45C44.3521 45 45 44.352 45 43.5556V40.2593C45 39.4629 44.352 38.8149 43.5557 38.8149Z" fill="white"/>
</g>
<defs>
<filter id="filter0_d_86_15" x="0" y="0" width="72" height="72" filterUnits="userSpaceOnUse" color-interpolation-filters="sRGB">
<feFlood flood-opacity="0" result="BackgroundImageFix"/>
<feColorMatrix in="SourceAlpha" type="matrix" values="0 0 0 0 0 0 0 0 0 0 0 0 0 0 0 0 0 0 127 0" result="hardAlpha"/>
<feOffset/>
<feGaussianBlur stdDeviation="6"/>
<feColorMatrix type="matrix" values="0 0 0 0 0 0 0 0 0 0 0 0 0 0 0 0 0 0 0.08 0"/>
<feBlend mode="normal" in2="BackgroundImageFix" result="effect1_dropShadow_86_15"/>
<feBlend mode="normal" in="SourceGraphic" in2="effect1_dropShadow_86_15" result="shape"/>
</filter>
<clipPath id="clip0_86_15">
<rect width="18" height="18" fill="white" transform="translate(27 27)"/>
</clipPath>
</defs>
</svg>
