<svg width="61" height="60" fill="none" xmlns="http://www.w3.org/2000/svg">
    <path d="M59.9 14.22a3 3 0 0 0-1.4-1.82 3 3 0 0 0-4.1 1.1l-.5.87a1 1 0 0 0-1.36.36L50 19.06l-.87-.5a1.001 1.001 0 0 0-1.37.37 1 1 0 0 0 .37 1.36l.87.5-8.5 14.73-2.1 5.61-1 1.87a3 3 0 0 0 .16 3.24L35.31 49l-.63-1.58a2 2 0 0 0-3.57-.28l-.36.61-.34-4a2 2 0 0 0-3.89-.47l-2.46 7.38a1 1 0 0 0 .63 1.26.867.867 0 0 0 .31.08 1 1 0 0 0 .95-.68l2.45-7.38.35 4.06a2 2 0 0 0 3.71.86l.37-.61.62 1.57a2 2 0 0 0 3.42.51l2.33-2.95c.258.068.524.101.79.1A3 3 0 0 0 42.6 46l1-1.67 3.81-4.63L56 24.79l.87.5a1 1 0 0 1 .37 1.37l-4 6.93a.998.998 0 0 0 .32 1.41 1 1 0 0 0 1.37-.37l4-6.93a2.998 2.998 0 0 0-1.1-4.1l-.87-.5 2.5-4.33a1 1 0 0 0-.36-1.36l.5-.87c.41-.7.518-1.537.3-2.32Zm-3.77.28a1 1 0 0 1 .61-.47 1.05 1.05 0 0 1 .76.1c.232.133.4.352.47.61a1.05 1.05 0 0 1-.1.76l-.5.87-1.74-1 .5-.87ZM42.5 42.42l-.5-.29-1.48-.86 1.42-3.8 3.15 1.82-2.59 3.13Zm-3 2.89a1 1 0 0 1-.3-1.31l.5-.87 1.74 1-.5.86a1 1 0 0 1-1.44.32Zm6.73-7.66-3.46-2 8-13.86 3.46 2-8 13.86Zm9-15.59-3.46-2 2-3.46 3.46 2-2 3.46ZM15.78 44.81l-3.54 3.53-2.12-2.12a1 1 0 1 0-1.41 1.42l2.12 2.12c.375.372.882.58 1.41.58a2 2 0 0 0 1.42-.58l3.53-3.54a1 1 0 0 0-1.41-1.41Z" fill="#E93123"/>
    <path d="M4 47.5a8.5 8.5 0 0 0 8.5 8.5 8.5 8.5 0 0 0 8.5-8.5 1 1 0 0 0-2 0 6.5 6.5 0 1 1-6.5-6.5 6.443 6.443 0 0 1 3.9 1.3 1 1 0 1 0 1.2-1.6A8.501 8.501 0 0 0 4 47.5Z" fill="#E93123"/>
    <path d="M36 8a1 1 0 1 0 0-2H10a1 1 0 0 0-1 1v4a1 1 0 0 0 1 1h26a1 1 0 1 0 0-2H11V8h25ZM13 14a1 1 0 0 0 0 2h20a1 1 0 1 0 0-2H13ZM39 21H17a1 1 0 0 0 0 2h22a1 1 0 1 0 0-2ZM29 28a1 1 0 0 0-1-1H8a1 1 0 0 0 0 2h20a1 1 0 0 0 1-1ZM39 27h-7a1 1 0 0 0 0 2h7a1 1 0 1 0 0-2ZM18 34a1 1 0 1 0 0-2H8a1 1 0 0 0 0 2h10ZM22 34h7a1 1 0 1 0 0-2h-7a1 1 0 0 0 0 2Z" fill="#0037A1"/>
    <path d="M45 46a1 1 0 0 0-1 1v10a1 1 0 0 1-1 1H3a1 1 0 0 1-1-1V3a1 1 0 0 1 1-1h40a1 1 0 0 1 1 1v18.78a1 1 0 0 0 2 0V3a3 3 0 0 0-3-3H3a3 3 0 0 0-3 3v54a3 3 0 0 0 3 3h40a3 3 0 0 0 3-3V47a1 1 0 0 0-1-1Z" fill="#0037A1"/>
</svg>
