<svg width="19" height="19" fill="none" xmlns="http://www.w3.org/2000/svg">
    <path d="M16.157 5.36a.833.833 0 0 0-.387 1.113l.112-.054-.112.054a6.966 6.966 0 0 1-6.27 9.985A6.966 6.966 0 0 1 2.542 9.5 6.966 6.966 0 0 1 9.5 2.542c1.59 0 3.083.519 4.32 1.5a.833.833 0 1 0 1.037-1.304A8.64 8.64 0 0 0 9.5.875C4.744.875.875 4.745.875 9.5c0 4.756 3.87 8.625 8.625 8.625 4.756 0 8.625-3.87 8.625-8.625 0-1.317-.288-2.58-.855-3.752a.833.833 0 0 0-1.113-.387Zm0 0 .054.113-.054-.112Z" fill="#fff" stroke="#fff" stroke-width=".25"/>
    <path d="M9.5 3.708a.834.834 0 0 0-.833.833V9.5c0 .46.373.833.833.833h3.542a.834.834 0 0 0 0-1.667h-2.709V4.541a.834.834 0 0 0-.833-.833Z" fill="#fff" stroke="#fff" stroke-width=".25"/>
</svg>
