<svg width="56" height="56" fill="none" xmlns="http://www.w3.org/2000/svg">
    <path fill="#0037A1" d="M0 0h56v56H0z"/>
    <path d="M26.42 35.42c-1.42 1.98-3.41 2.97-5.97 2.97-2.56 0-4.55-.99-5.97-2.97-1.42-1.98-2.13-4.62-2.13-7.92s.71-5.94 2.13-7.92c1.42-1.98 3.41-2.97 5.97-2.97 2.56 0 4.55.99 5.97 2.97 1.42 1.98 2.13 4.62 2.13 7.92s-.71 5.94-2.13 7.92Zm-9.9-1.89c.92 1.42 2.23 2.13 3.93 2.13 1.7 0 3.01-.71 3.93-2.13.94-1.42 1.41-3.43 1.41-6.03s-.47-4.61-1.41-6.03c-.92-1.44-2.23-2.16-3.93-2.16-1.7 0-3.01.71-3.93 2.13-.92 1.42-1.38 3.44-1.38 6.06 0 2.6.46 4.61 1.38 6.03Zm22.153-7.92c1.6.3 2.91.99 3.93 2.07 1.02 1.08 1.53 2.45 1.53 4.11 0 2.04-.7 3.65-2.1 4.83-1.4 1.18-3.1 1.77-5.1 1.77-1.6 0-3.02-.36-4.26-1.08-1.24-.74-2.12-1.8-2.64-3.18l2.34-1.38c.62 1.94 2.14 2.91 4.56 2.91 1.3 0 2.36-.34 3.18-1.02.82-.68 1.23-1.63 1.23-2.85 0-1.22-.41-2.17-1.23-2.85-.82-.7-1.88-1.05-3.18-1.05h-.72l-1.11-1.71 4.86-6.57h-9.33V17h12.6v2.46l-4.56 6.15Z" fill="#fff"/>
</svg>
