<svg width="56" height="56" viewBox="0 0 56 56" fill="none" xmlns="http://www.w3.org/2000/svg">
<rect width="56" height="56" fill="#0037A1"/>
<path d="M28.42 35.42C27 37.4 25.01 38.39 22.45 38.39C19.89 38.39 17.9 37.4 16.48 35.42C15.06 33.44 14.35 30.8 14.35 27.5C14.35 24.2 15.06 21.56 16.48 19.58C17.9 17.6 19.89 16.61 22.45 16.61C25.01 16.61 27 17.6 28.42 19.58C29.84 21.56 30.55 24.2 30.55 27.5C30.55 30.8 29.84 33.44 28.42 35.42ZM18.52 33.53C19.44 34.95 20.75 35.66 22.45 35.66C24.15 35.66 25.46 34.95 26.38 33.53C27.32 32.11 27.79 30.1 27.79 27.5C27.79 24.9 27.32 22.89 26.38 21.47C25.46 20.03 24.15 19.31 22.45 19.31C20.75 19.31 19.44 20.02 18.52 21.44C17.6 22.86 17.14 24.88 17.14 27.5C17.14 30.1 17.6 32.11 18.52 33.53ZM37.2505 17H39.6505V38H36.8905V20L32.4205 21.32L31.7305 18.92L37.2505 17Z" fill="white"/>
</svg>
