<svg width="247" height="151" viewBox="0 0 247 151" fill="none" xmlns="http://www.w3.org/2000/svg">
<g clip-path="url(#clip0_364_0)">
<path d="M13.3061 55.5925C13.2835 55.7205 13.2609 55.8485 13.2332 56.0061L13.5483 56.0617L13.371 56.0304L13.8345 56.2238C14.0256 56.0037 14.0261 55.5976 14.1831 55.3409C13.8858 55.4065 13.5929 55.4905 13.3061 55.5925Z" fill="#3E0CC6"/>
<path d="M166.882 44.3498L167.275 44.3074L167.442 44.3369L167.501 44.3474C167.512 44.3019 167.52 44.2559 167.526 44.2095C167.339 44.2883 166.819 44.359 166.692 44.4483L166.882 44.3498Z" fill="#3E0CC6"/>
<path d="M63.6604 109.556L63.563 109.245L64.1631 108.893L63.1817 108.182C63.5557 106.867 64.2012 108.159 64.6565 107.65L64.1466 107.144L64.3099 106.218L64.1326 106.187C64.0944 106.404 64.044 106.689 63.8825 107.26C63.8239 106.843 63.7909 106.513 63.7508 106.221L57.7681 106.75L57.851 107.029C57.5075 107.192 57.2665 107.292 57.0765 107.39L56.8714 106.826L56.5423 106.849L56.3965 108.022L55.6718 108.158C55.6753 107.793 55.6822 107.408 55.685 106.931L42.3929 108.142C42.3686 108.28 42.3918 108.436 42.3872 108.577C41.5148 109.033 40.6425 109.488 41.1583 111.285C40.6583 110.781 40.3947 110.663 40.3686 110.465C40.288 109.944 40.2949 109.386 40.2589 108.669L40.629 108.298L39.4739 108.399L39.4566 108.497L39.0963 108.525L39.0528 108.426L33.804 108.881L35.5999 110.214L35.5565 110.115L36.649 110.023C36.6693 110.311 36.6896 110.599 36.7198 110.888C36.5737 110.928 36.4198 110.928 36.2734 110.89C36.127 110.852 35.9931 110.776 35.885 110.67C35.8642 110.788 35.7744 110.894 35.7142 111.005C35.1719 110.626 34.3256 110.588 34.1545 109.715L33.3818 110.239L32.6437 109.357L32.8765 108.901L19.3249 110.086C18.4627 110.157 17.6072 109.885 16.9445 109.329C16.2818 108.773 15.8657 107.978 15.7868 107.116L14.7557 94.8811C14.4726 94.6704 14.1601 94.5024 13.8282 94.3824L14.725 94.6523L14.6223 93.507C14.5447 93.4615 14.4631 93.4233 14.3784 93.3929C14.2684 93.5563 14.1485 93.718 14.0367 93.8912L13.4226 93.2853C13.6455 92.9997 13.7921 92.8022 13.912 92.6405L14.0081 92.7286C14.1413 92.5705 14.3299 92.4693 14.5352 92.4458L13.5599 81.2767C13.3613 82.115 13.1813 82.9057 13.007 83.6061L13.4156 84.5717L12.6874 84.7277L12.4794 84.1223L10.9248 85.4526C10.9242 85.8587 10.9173 86.2433 10.9214 86.6807L10.9319 86.6216C10.9475 86.8782 10.9609 87.0329 10.98 87.2698L10.8937 87.1835C10.8937 87.1835 10.8937 87.1835 10.9059 87.1146C10.918 87.0456 10.9458 86.8881 10.9736 86.7305L10.8259 86.7044L10.9436 87.9945L10.9987 88.0854C11.0421 87.8392 11.0166 87.5809 11.0206 87.3277C11.0206 87.3277 11.0762 87.0126 11.1109 86.8156L11.2453 87.0323C11.2187 87.1459 11.1984 87.261 11.1845 87.377C11.2193 87.5972 11.231 87.8205 11.2194 88.0431L11.315 88.192L11.2264 88.1764C11.2077 88.2542 11.1938 88.3332 11.1847 88.4127C11.1691 88.5013 11.1534 88.59 11.1395 88.6688C11.1256 88.7475 11.1894 88.9619 11.2079 89.087L11.0979 88.9051L10.9971 89.131L12.288 103.808L12.397 103.939C12.3813 104.028 12.364 104.126 12.3397 104.264L12.4886 104.514C12.4886 104.514 12.4729 104.602 12.4643 104.652L12.3345 104.466L12.5973 107.467C12.6391 107.978 12.7448 108.481 12.9121 108.965C13.2463 109.085 13.6055 109.179 13.5088 109.669L13.6212 109.78C13.6039 109.879 13.5882 109.968 13.6398 110.078C13.6914 110.189 13.5355 110.151 13.5083 109.903C13.4057 109.793 13.3663 109.786 13.3409 109.873C13.3154 109.96 13.4718 110.109 13.5414 110.233L13.6653 110.337L13.6497 110.425C14.4986 111.706 15.7696 112.649 17.2416 113.089L18.4309 113.198L18.4084 113.326C18.8388 113.379 19.2738 113.384 19.7054 113.341L20.6021 113.266L20.6907 113.109L20.81 113.18L20.7962 113.259L21.8278 113.167C21.8151 112.951 21.8139 112.728 21.8017 112.452C22.3647 112.368 22.4899 112.695 22.5189 113.106L25.6123 112.839L25.6812 112.851L36.4372 111.915L35.6018 110.894L37.3965 111.83L38.1287 111.766L38.1478 111.658C38.3916 111.254 38.6784 111.528 38.9565 111.679L40.1429 111.573L40.1585 111.484L40.8142 111.509L49.9315 110.71L49.5798 110.516C49.6267 110.25 49.7385 110.077 49.8416 109.78L50.1567 109.836C49.9254 109.716 49.7197 109.552 49.5513 109.353C49.3665 109.077 49.3421 108.697 49.7899 108.634L50.6004 109.335C50.5152 109.472 50.3901 109.664 50.2731 109.866L50.5489 109.915C50.4493 110.192 50.3798 110.413 50.3022 110.623L53.3973 110.346C53.6735 109.816 54.2203 109.537 54.4838 108.964C54.5237 109.203 54.5048 109.449 54.4288 109.68C54.3527 109.91 54.2218 110.119 54.0472 110.288L63.6604 109.556ZM12.7544 91.7764C12.7086 91.8606 12.6916 91.9574 12.7058 92.0521C12.5981 91.9722 12.5505 91.7811 12.5661 91.5198L12.7643 91.6055L12.7544 91.7764ZM12.0667 86.7506C12.0407 86.8983 12.1166 87.2164 11.9938 87.1642C12.0302 86.9574 12.058 86.7999 12.0059 86.5774C12.0328 86.6326 12.0532 86.6907 12.0667 86.7506ZM11.2219 85.4948C11.2349 85.4499 11.243 85.4037 11.2462 85.357L11.3256 85.4827C11.2996 85.6304 11.2735 85.7781 11.244 85.9455C11.244 85.7729 11.237 85.6397 11.2219 85.4948ZM11.2332 87.1012C11.222 87.0325 11.2139 86.9633 11.2088 86.8938C11.2088 86.8938 11.2088 86.8938 11.2719 86.8237C11.2777 86.906 11.2471 87.0224 11.2332 87.1012ZM11.4815 86.2108L11.4937 86.1419L11.3703 85.9779C11.4068 85.7711 11.3743 85.5522 11.3829 85.3303L11.4814 85.3477C11.4805 85.3845 11.4741 85.421 11.4623 85.456L11.4849 85.328L11.5712 85.4143C11.5886 85.3158 11.6007 85.2469 11.6112 85.1878L11.5225 85.1721C11.5248 85.1287 11.5324 85.0857 11.5451 85.0441L11.6442 85.1733L11.7351 85.2909C11.7351 85.2909 11.723 85.3598 11.7178 85.3893L11.6216 85.3013L11.5834 85.518L11.6697 85.6043C11.635 85.8012 11.6594 86.0086 11.6507 86.2305C11.5916 86.2201 11.5482 86.121 11.4989 86.1123C11.4607 86.329 11.4225 86.5456 11.3843 86.7623L11.4815 86.2108ZM11.5179 85.1409L11.5891 85.0823C11.5718 85.1808 11.5961 85.3882 11.5527 85.2892C11.5092 85.1901 11.5109 85.1803 11.5179 85.1409ZM11.2121 89.5243C11.193 89.6327 11.2637 89.8076 11.16 89.8198C11.0563 89.832 11.1066 89.5464 11.2121 89.5243C11.2485 89.3175 11.2346 89.3963 11.3105 89.3691C11.361 89.6014 11.2862 89.507 11.2515 89.5313L11.2121 89.5243ZM11.3123 89.3592C11.2928 89.2361 11.2808 89.1119 11.2763 88.9873C11.3398 88.4062 11.3716 87.822 11.3716 87.2373C11.3907 87.129 11.3733 86.8822 11.4185 86.9714L11.433 87.3497C11.4122 87.4679 11.3914 87.586 11.3653 87.7338C11.3393 87.8815 11.4071 88.0153 11.4291 88.1207C11.377 88.4162 11.3301 88.6821 11.2867 88.9283C11.2433 89.1745 11.3348 89.2312 11.3551 89.3465C11.3754 89.4618 11.3719 89.4815 11.3516 89.3662L11.3123 89.3592ZM12.0207 85.3412L12.0659 85.0852L12.136 85.1483C12.1615 85.4067 12.1407 85.5248 12.0404 85.3447L12.0207 85.3412ZM12.1896 87.6659L12.7873 86.8675C12.8134 86.7198 12.9084 86.5842 12.964 86.4417C13.1303 86.7655 13.2867 87.0876 13.4125 87.3535C13.0493 87.8581 12.7366 88.2497 12.4232 88.7022L12.1661 88.9513L12.2454 89.077C12.2055 89.3035 12.1111 89.2056 12.0485 89.0423L11.7803 89.4113C11.3463 88.7052 11.8016 88.1965 12.2093 87.6693L12.1896 87.6659ZM12.2827 90.5356C12.1721 90.5872 12.1164 90.3845 12.0463 90.3213L12.0724 90.1736L12.2827 90.5356ZM11.9878 90.0775C11.9878 90.0775 12.0052 89.979 12.0138 89.9297C11.9878 90.0775 12.0585 90.2524 11.9583 90.2449C11.8581 90.2374 11.9583 90.2449 11.9427 90.3335L12.0139 90.275C11.9722 90.5113 12.0256 90.7848 11.9323 90.7379C11.839 90.6909 11.9265 90.483 11.9177 90.3596C11.9195 90.1771 11.8992 90.0618 11.9878 90.0775ZM11.8975 90.5896L11.9659 90.8352C11.9555 90.8943 11.9416 90.973 11.8611 90.969C11.7805 90.965 11.7614 90.9007 11.7712 90.7298L11.8975 90.5896ZM11.6784 93.9628C11.5955 93.6841 11.4982 93.3725 11.4107 93.0626C11.4367 92.9149 11.5514 92.7828 11.6267 92.6437L11.5184 92.6246L11.5444 92.4769L11.5722 92.3193C11.5854 92.2848 11.5919 92.248 11.5913 92.211C11.6173 92.0633 11.5976 91.8872 11.6057 91.7262L11.7633 91.7539L11.8271 92.4861L13.2128 93.2077L12.3261 93.9754L11.7508 93.9552C11.7391 93.9936 11.7321 94.0333 11.73 94.0734L11.6802 93.9529L11.6784 93.9628ZM12.943 94.1045L12.855 94.0281L12.9337 94.0419L12.943 94.1045ZM12.2624 94.6242C12.235 94.5518 12.2276 94.4733 12.241 94.3971C12.2545 94.3208 12.2883 94.2496 12.3388 94.1909C12.3232 94.2795 12.3058 94.378 12.3592 94.4788C12.3177 94.5177 12.274 94.5541 12.2283 94.5877L12.2624 94.6242ZM12.6453 94.4683C12.5943 94.2969 12.5433 94.1254 12.4825 93.9522L12.6001 93.8613C12.5879 93.9302 12.6366 93.9997 12.6569 94.115L12.7246 93.7309C12.9053 93.9151 12.7553 94.1323 12.8307 94.3386C12.8428 94.2696 12.8533 94.2105 12.8654 94.1416L12.9343 94.1538L12.997 95.0076C12.9512 94.9851 12.9 94.9761 12.8493 94.9816L12.7276 94.6352C12.692 94.6886 12.6525 94.7393 12.6095 94.787C12.6025 94.6537 12.6117 94.5437 12.6111 94.4319L12.6453 94.4683ZM12.5933 95.2817C12.5933 95.2817 12.6721 95.2956 12.7219 95.2434C12.8164 95.3832 12.9266 95.5117 13.0504 95.6263L13.073 96.0161L12.7584 95.3819L12.6287 95.5418C12.5931 95.5042 12.5678 95.458 12.5553 95.4078C12.5428 95.3575 12.5435 95.3049 12.5574 95.255L12.5933 95.2817ZM12.5647 97.805L12.4094 97.3613C12.4111 97.3279 12.417 97.2948 12.4267 97.2628C12.348 97.249 12.2889 97.2385 12.2801 96.9425L12.4082 96.9651L12.4267 97.2628C12.476 97.2715 12.5322 97.4134 12.5872 97.5044C12.6423 97.5953 12.556 97.6816 12.5305 97.7685L12.5647 97.805ZM12.998 97.8814C12.9563 97.7725 12.918 97.6439 12.8798 97.5153L12.9041 97.3775L12.8919 97.4464L12.7517 97.3201C12.7653 97.2719 12.774 97.2224 12.7778 97.1724C12.7951 97.0739 12.8125 96.9755 12.8299 96.877L12.8988 97.0618L12.995 97.3224C13.0169 97.3698 13.0429 97.4151 13.0727 97.458C13.0501 97.586 13.0258 97.7239 13.0032 97.8519C12.9806 97.9799 12.98 97.8681 12.9656 97.8351L12.998 97.8814ZM13.5881 104.728C13.5655 104.856 13.4699 104.88 13.401 104.695L13.2776 104.531C13.3279 104.418 13.4299 104.416 13.5556 104.682L13.5881 104.728ZM13.5845 103.712L13.548 103.919L13.5845 103.712ZM13.525 101.112C12.8883 100.462 13.8609 100.014 13.6655 99.106C14.0815 99.6261 14.2489 99.8282 14.4048 100.038L13.525 101.112ZM12.7497 107.697L12.6824 107.33L12.8354 107.499C12.8163 107.608 12.8007 107.696 12.7868 107.775L12.7497 107.697ZM13.4157 106.799L13.122 106.392C13.1376 106.304 13.0942 106.205 13.0837 106.091L13.2019 106.112C13.1775 105.905 13.1514 105.707 13.1143 105.457C13.1734 105.467 13.2122 105.535 13.225 105.578L13.374 106.345C13.374 106.345 13.374 106.345 13.3653 106.395C13.3566 106.444 13.4337 106.64 13.4621 106.767C13.4905 106.894 13.5142 106.472 13.5831 106.484L13.6579 106.578C13.6249 106.765 13.6411 106.961 13.6278 107.152C13.498 106.966 13.3972 107.02 13.3902 106.714L13.4157 106.799ZM24.617 112.379C24.7745 112.062 24.9118 111.802 25.0658 111.504C25.5802 111.524 25.728 111.895 25.5642 112.881L24.617 112.379ZM42.4633 110.104L43.1904 110.76C42.9987 110.77 42.8065 110.76 42.6169 110.73C42.5618 110.639 42.5357 110.441 42.4378 110.018L42.4633 110.104ZM43.1545 111.424C43.1198 111.276 43.085 111.127 43.0601 110.981L43.1608 110.927C43.2072 111.068 43.2651 111.2 43.3214 111.342L43.1545 111.424ZM45.4663 110.522C45.6181 110.294 45.8237 109.935 45.8694 109.963C46.2553 110.194 47.0268 109.791 46.9638 110.897L45.4663 110.522ZM47.2587 110.665L46.6109 109.789C47.4288 109.355 46.5341 107.633 48.0947 107.766C48.0496 108.022 47.9871 108.377 47.818 108.875L48.2879 109.262C48.286 109.569 48.1808 109.865 47.9894 110.104C47.798 110.343 47.5315 110.51 47.2332 110.579L47.2587 110.665Z" fill="#3E0CC6"/>
<path d="M10.2437 57.8144C10.2591 57.7529 10.2702 57.6904 10.2767 57.6273C10.2628 57.7061 10.2524 57.7652 10.2455 57.8046C10.8612 57.7101 11.4654 57.6237 12.014 57.5072L11.708 56.9963C11.7289 56.8781 11.8169 56.7819 11.8771 56.6707L12.2583 56.8699C12.3765 57.0634 12.5063 57.2488 12.6344 57.444L12.7033 57.4561L14.0339 57.2236L14.1121 57.2983L12.7364 57.6143L13.0718 58.1303L12.3668 58.0974L12.1548 57.7453L11.097 57.9852L10.209 58.0114L9.86201 58.0213C9.7927 58.1112 9.72869 58.205 9.6703 58.3023L9.82787 58.3301L9.99477 58.7657L9.92179 58.834C9.96004 58.9626 9.99018 59.0796 10.0186 59.2065L9.9004 59.1857C9.82157 58.8265 9.74274 58.4674 9.52089 58.6313C9.53068 58.5993 9.53651 58.5663 9.53826 58.5329C9.49652 58.5914 9.4586 58.6525 9.42474 58.7159C9.45421 58.8973 9.47281 59.0803 9.48043 59.2639C9.45959 59.3821 9.43528 59.52 9.41097 59.6579L9.36409 59.9237L9.37451 59.8647C9.37451 59.8647 9.28818 59.7784 9.2569 59.783C9.2187 59.9997 9.18049 60.2163 9.14229 60.433C9.17008 60.2754 9.10749 60.1121 9.09414 59.9574C9.0808 59.8027 9.09414 59.9574 9.1063 59.8884L8.95335 59.7193L8.98287 59.5519L8.97418 59.6011C8.97418 59.6011 8.95682 59.6996 8.94814 59.7489L8.96203 59.6701C8.62331 60.5678 8.49176 61.5304 8.5772 62.486L8.74198 64.3733L8.72808 64.4521L9.97191 77.6689C10.1463 77.5453 10.2947 77.3886 10.4086 77.2077C10.6982 76.6597 10.9491 76.907 11.2126 77.0245L11.3013 77.0402C11.2936 77.0589 11.29 77.079 11.2909 77.0993C11.3429 77.186 11.4128 77.2607 11.496 77.3182C11.416 77.0807 11.3296 76.8218 11.2531 76.5646L10.887 76.1649C10.8678 75.928 10.8371 75.6992 10.8162 75.4721L10.8266 75.413C10.831 75.4775 10.8436 75.5412 10.8643 75.6025C10.8841 75.6456 10.9073 75.6871 10.9338 75.7264C10.9686 75.5294 10.9274 75.3597 10.9175 75.1854L10.8318 75.0382C10.8318 75.0382 10.8318 75.0382 10.8179 75.117C10.7688 75.4724 10.68 75.8212 10.5533 76.1569C10.5429 76.216 10.4942 76.1464 10.3952 76.1899C10.5376 75.7276 10.6395 75.38 10.7495 75.044C10.8595 74.708 10.9713 74.3622 11.0622 73.9619L11.1949 74.1884C11.2355 74.4189 11.2876 74.6414 11.3282 74.8719C11.3218 74.8978 11.3172 74.9241 11.3143 74.9507C11.2784 75.1542 11.2732 75.3564 11.2988 75.5572C11.2769 75.7297 11.3141 75.9044 11.4043 76.0531C11.3886 76.1417 11.373 76.2303 11.3522 76.3485C11.4002 76.4217 11.4444 76.4973 11.4848 76.575C11.5019 76.6165 11.5147 76.6595 11.5231 76.7036L11.504 76.8119C11.573 76.9967 11.6078 77.3176 11.6767 77.5024L11.6471 77.1519C11.7472 77.2758 11.7958 77.4334 11.7827 77.5922C11.7827 77.5922 11.7984 77.5035 11.8071 77.4543L11.8535 78.1124C11.7538 78.044 11.7695 77.9554 11.7868 77.8569C11.7643 77.9849 11.7504 78.0637 11.7208 78.2311C11.7573 78.0243 11.7011 77.8824 11.686 77.7376C11.6734 77.7615 11.6553 77.7821 11.6331 77.7976C11.6109 77.8131 11.5854 77.8231 11.5586 77.8268L11.3755 77.7133C11.3471 77.5864 11.3071 77.4677 11.2787 77.3408C10.9295 77.9393 10.6486 78.0928 10.0907 77.9742L10.1627 78.8906C10.3593 78.7332 10.6036 78.6474 10.8555 78.6472C10.8311 78.785 10.8086 78.9131 10.786 79.0411C10.7634 79.1691 10.665 79.3244 10.5995 79.4652L10.183 79.5237L10.2753 80.5554C10.3379 80.7188 10.3906 80.8804 10.4578 81.075C10.4028 80.9841 10.3443 80.9128 10.3037 80.8549L10.3716 81.6792C10.4058 81.8883 10.4481 82.109 10.5015 82.3824L10.4204 82.4392L10.5626 84.7998L10.8302 84.4916C10.8562 84.3439 10.884 84.1863 10.917 83.9992L10.986 84.184C10.9867 84.2109 10.982 84.2377 10.9721 84.2627C11.3089 83.8687 11.611 83.4464 11.875 83.0004C11.8827 82.9841 11.8923 82.9687 11.9034 82.9546C11.9156 82.8856 11.9364 82.7675 11.9364 82.7675C11.9935 82.767 12.0503 82.7771 12.1038 82.797C12.2639 82.494 12.3978 82.1779 12.504 81.8521C12.6951 81.2867 12.973 80.7468 13.2203 80.1507L13.4764 80.1958L12.8683 73.336C12.7069 73.3168 12.5503 73.2685 12.406 73.1936C12.4321 73.0459 12.5271 72.9103 12.5826 72.7678L12.8213 72.7388L12.5596 69.7885C12.2678 70.4072 11.9711 69.9589 11.6757 69.9068C11.7 69.7689 11.795 69.6334 11.8505 69.4909C12.0868 69.0147 12.3139 69.1664 12.5364 69.2869L11.958 62.9501L11.8693 62.9345L11.8989 62.7671L11.8518 62.1699C11.8597 62.0699 11.8772 61.971 11.9039 61.8744L11.8246 61.9214L10.7946 62.0038L10.5681 61.9638L10.8421 61.8497L11.2065 61.9139L11.846 61.7424L11.8755 61.5749L11.7446 61.6839L11.3154 61.6996L11.6108 61.579L11.8964 61.6294C11.9549 60.8588 12.2853 60.1342 12.8286 59.5846C13.3718 59.035 14.0927 58.6963 14.8625 58.6289L18.41 58.3202C18.3841 58.2776 18.3683 58.2296 18.3636 58.18L18.0276 58.2426L18.3775 58.1012C18.4452 57.7171 19.0337 57.2015 18.4625 56.9282C18.6739 56.6507 18.8772 56.3616 19.1048 56.1072L19.585 55.5725L18.7716 55.5205C18.6366 55.5272 18.5021 55.5407 18.3685 55.5611L18.1518 55.5229L17.7504 55.5536C17.8448 55.4789 17.6692 55.4378 17.2973 55.4737L16.864 55.3973C17.7746 55.379 18.6851 55.4343 19.5867 55.5626C19.7894 55.3344 19.9921 55.1061 20.185 54.8761L20.1161 54.8639L19.7934 54.9086L19.6949 54.8912L16.4666 55.1749L16.8501 55.3035L16.0432 55.2729L16.3119 55.1883L14.6714 55.3357L14.2041 56.4311L13.8635 56.2899L13.1534 56.977L12.479 56.655L12.7396 56.0409L12.2386 56.176L12.4946 56.0485L12.3034 56.096L12.326 55.968L12.5988 55.9755L12.786 56.0085L12.8224 55.8017C11.7137 56.2165 10.739 56.9258 10.0033 57.8533L10.2437 57.8144ZM8.99869 60.8443C9.01258 60.7655 9.02647 60.6867 9.04036 60.6079C9.05425 60.5291 9.04036 60.6079 9.11334 60.5396C9.02647 60.6867 9.01258 60.7655 8.98884 60.8425L8.99869 60.8443ZM11.0388 76.6283L10.9913 76.6098L11.0388 76.6283ZM11.3721 78.4235C11.3374 78.6205 11.327 78.6795 11.2013 78.5863C11.0756 78.4931 11.2482 78.3204 11.2638 78.2318L11.3721 78.4235ZM11.1914 78.5846C11.1758 78.6732 11.1602 78.7618 11.1445 78.8505L11.1966 78.555L11.1914 78.5846ZM10.9726 79.8254L11.0451 79.9905L10.8997 79.8938L10.9726 79.8254ZM10.8504 79.5398C10.8347 79.6285 10.8782 79.7275 10.902 79.8231C10.9176 79.7345 10.884 79.6372 10.8683 79.5532L10.8504 79.5398ZM10.8345 81.9335L10.736 81.9161C10.623 81.6931 10.5002 81.4683 10.3611 81.2204C10.3778 81.149 10.3906 81.0766 10.3993 81.0038L10.474 81.0982L10.4897 81.0095L10.6409 81.1885C10.6297 81.2236 10.6233 81.26 10.6218 81.2968C10.6489 81.3684 10.6664 81.4432 10.674 81.5193C10.6879 81.4405 10.7 81.3716 10.7156 81.2829L10.8437 81.6508L10.7968 81.9167C10.8215 82.0139 10.8559 82.1084 10.8994 82.1988C10.9521 82.3154 10.9647 82.4461 10.9354 82.5707C10.8192 82.3786 10.7764 82.1511 10.8148 81.93L10.8345 81.9335ZM11.7343 83.1075C11.7003 82.8781 11.7263 82.7304 11.8124 82.6644C11.7881 82.8023 11.8327 82.9523 11.8478 83.0971L11.7343 83.1075ZM12.0816 81.1379L12.1048 81.467L11.9472 81.4392L12.0816 81.1379ZM11.1811 83.1928L11.2894 83.2119C11.2894 83.2119 11.2738 83.3005 11.2633 83.3596L11.2495 83.4384L11.3601 83.5594C11.3445 83.6481 11.3271 83.7465 11.3903 83.8491C11.4534 83.9516 11.2762 83.9203 11.257 83.6834C11.2633 83.6643 11.2668 83.6444 11.2674 83.6243C11.1388 83.4899 11.1023 83.5241 11.0636 83.8016C11.0201 83.7313 10.9706 83.6648 10.9158 83.6029C10.8491 83.1749 11.0212 83.2357 11.122 83.1824L11.1811 83.1928ZM11.767 76.645C11.6979 76.4294 11.6825 76.2001 11.7223 75.9771L11.767 76.645ZM10.178 63.9462C10.0198 63.9792 9.9711 63.5645 9.83785 63.3988C9.97339 63.3212 10.007 63.7637 10.178 63.9462ZM9.63232 64.2765L9.69086 64.5203C9.69086 64.5203 9.66655 64.6582 9.58603 64.6542C9.50551 64.6501 9.48755 64.6368 9.50779 64.4068L9.63232 64.2765ZM9.62352 63.4626C9.64089 63.3641 9.65651 63.2754 9.67214 63.1868L9.84249 63.4301C9.80602 63.6369 9.79386 63.7058 9.73304 63.7053C9.67221 63.7047 9.60849 63.663 9.61831 63.4921L9.62352 63.4626ZM9.69838 64.4201C9.71922 64.3019 9.69082 64.1751 9.68211 64.0517L9.78811 63.9688C9.76092 64.2382 9.78644 64.4966 9.69317 64.4497L9.69838 64.4201ZM10.0154 61.2977C10.0012 61.3527 9.99134 61.4086 9.98587 61.4651C9.87755 61.446 9.8167 61.2728 9.77785 61.0324C9.739 60.792 9.80737 60.865 9.823 60.7764C9.9053 61.1158 10.0987 60.825 10.1261 61.4188L10.0154 61.2977ZM10.0649 58.8288C10.077 58.7599 10.0927 58.6712 10.11 58.5728C10.1343 58.4349 10.1604 58.2872 10.1829 58.1591C10.2055 58.0311 10.1968 58.0803 10.2021 58.0508C10.1874 58.1902 10.1631 58.3284 10.1291 58.4644C10.1338 58.4949 10.1283 58.526 10.1135 58.5531L10.2717 58.8653C10.2838 58.7963 10.2943 58.7372 10.3151 58.6191L10.515 58.8676L10.4959 58.9759L10.4559 59.2024L10.3325 59.0385C10.323 58.9641 10.3089 58.8904 10.2902 58.8178C10.2902 58.8178 10.2746 58.9064 10.2659 58.9556C10.2572 59.0049 10.2746 59.2516 10.2312 59.1526C10.1705 59.0474 10.115 58.9394 10.0649 58.8288ZM9.7714 60.4931C9.74709 60.631 9.82129 60.9589 9.69847 60.9067C9.73494 60.6999 9.70363 60.5319 9.71055 60.3199C9.75269 60.3771 9.78954 60.438 9.82064 60.5018L9.7714 60.4931ZM9.72661 59.1347C9.7023 59.2726 9.68841 59.3514 9.67625 59.4203C9.6641 59.4892 9.70403 59.2627 9.71619 59.1938C9.72835 59.1249 9.66348 59.2048 9.72661 59.1347ZM9.57894 59.4539C9.58876 59.4323 9.59294 59.4086 9.59109 59.385L9.64033 59.3937C9.6235 59.4171 9.60273 59.4375 9.57894 59.4539ZM9.09691 63.1666C9.11427 63.0681 9.0795 62.9198 9.06094 62.7947C9.12997 62.2107 9.16239 61.6229 9.15802 61.0348C9.17538 60.9364 9.21706 60.7 9.20316 60.7788C9.18927 60.8576 9.16149 61.0151 9.20959 61.1455C9.25769 61.2758 9.16618 61.3917 9.14013 61.5394C9.11408 61.6871 9.18361 61.8111 9.19406 61.9246C9.14196 62.2201 9.09508 62.486 9.0534 62.7223C9.01173 62.9587 9.11137 63.027 9.12993 63.1521C9.14848 63.2773 9.12762 63.2228 9.09691 63.1666ZM9.54326 61.1535C9.58667 60.9073 9.53971 60.6554 9.53215 60.4103C9.64569 60.9902 9.70837 61.5788 9.7195 62.1696L9.77802 62.2408C9.7968 62.163 9.81072 62.084 9.81969 62.0045L9.92051 62.1238C9.90661 62.2026 9.89272 62.2814 9.87362 62.3897L9.75659 62.2472C9.73401 62.3752 9.76241 62.5021 9.76244 62.6747L9.65815 62.5751C9.68246 62.4372 9.70677 62.2993 9.72935 62.1713C9.64621 61.8201 9.58694 61.4636 9.55194 61.1043L9.54326 61.1535ZM8.98093 66.4158L9.28622 66.4697C9.27406 66.5386 9.31578 66.6475 9.34709 66.8155C9.23293 66.5415 9.11768 66.7344 8.98961 66.3666L8.98093 66.4158ZM9.40506 67.1202L9.3395 66.3978L9.24102 66.3805L9.26533 66.2426L9.29311 66.085C9.29311 66.085 9.30527 66.0161 9.31221 65.9767C9.31916 65.9373 9.36778 65.6616 9.33648 65.4936L9.49405 65.5214C9.51783 65.7896 9.53872 66.0166 9.54976 66.242L9.63611 66.5009C9.56151 66.5171 9.48902 66.5418 9.42004 66.5745C9.47107 66.9186 9.29849 67.2639 9.50245 67.6045C9.48855 67.6832 9.4764 67.7522 9.46251 67.831C9.44862 67.9097 9.39935 67.7284 9.39992 67.6676C9.40049 67.6068 9.42652 67.2864 9.41374 67.071L9.40506 67.1202ZM9.38451 69.3099C9.41229 69.1523 9.33986 68.9872 9.32652 68.8326L9.39776 68.7741C9.4279 68.8911 9.46789 69.0098 9.52062 69.1714C9.46952 69.2116 9.42377 69.2581 9.38451 69.3099ZM10.0063 70.6787L10.1343 70.7012L10.1894 70.9648C10.1894 70.9648 10.2948 71.1154 10.3499 71.2063C10.4049 71.2973 10.3117 71.423 10.2468 71.5029L10.0979 71.0807C10.1002 71.0507 10.1054 71.021 10.1135 70.992C10.1106 70.9509 10.0532 70.9306 10.0063 70.6787ZM10.5542 74.1363C10.5698 74.0477 10.5472 73.8305 10.6381 73.948L10.7674 74.5395C10.7025 74.6194 10.6562 74.3066 10.5936 74.1433L10.5542 74.1363ZM11.3108 70.5939L11.4429 70.3633L11.8768 70.5515L12.1959 70.5266L12.2783 71.3839C12.098 71.4236 11.9104 71.415 11.7344 71.3591C11.3316 72.1821 10.7174 72.8833 9.95452 73.3909C9.92847 73.5386 9.91979 73.5878 9.85199 73.454L9.65679 73.5821L11.1625 70.8013C11.1541 70.7469 11.1503 70.6918 11.1509 70.6368L11.3108 70.5939ZM10.5247 70.6178C10.5247 70.6178 10.5746 70.7382 10.6035 70.8043L10.6899 71.0632L10.7774 71.2005L10.7079 71.5944L10.5897 71.2283L10.6157 71.0806L10.6018 71.1594L10.5532 71.0899C10.5619 71.0406 10.5705 70.9914 10.5792 70.9421C10.5879 70.8929 10.5566 70.7249 10.5641 70.6247L10.5247 70.6178ZM11.1844 69.871L11.0958 69.8553L10.9417 69.6352L10.8171 69.7656L10.4845 69.118L10.3531 69.2877C10.3209 69.247 10.2994 69.1988 10.2907 69.1476C10.282 69.0963 10.2863 69.0438 10.3032 68.9946C10.3136 68.9355 10.3721 69.0068 10.422 68.9546C10.5933 69.2074 10.8202 69.4177 11.0853 69.5692C11.0853 69.5692 11.2064 69.6311 11.2238 69.8779L11.1844 69.871ZM11.1443 69.0617L11.1183 69.2094L11.0152 68.9882C11.0479 68.9849 11.081 68.9906 11.1107 69.0048C11.1404 69.019 11.1657 69.0411 11.1837 69.0687L11.1443 69.0617ZM10.3198 67.576L10.3882 67.8216L10.4507 67.467C10.6332 67.6414 10.4815 67.8685 10.5585 68.0648C10.569 68.0058 10.5811 67.9368 10.5933 67.8679L10.7989 68.026C10.8084 68.0043 10.8125 67.9807 10.8111 67.9571L10.7422 67.9449L10.5742 67.8036L10.8377 67.7485C10.8403 67.7051 10.8479 67.6622 10.8603 67.6205L10.9952 67.2584C10.9732 66.9804 10.9563 66.6728 10.9424 66.4063C10.9425 66.3559 10.9514 66.306 10.9684 66.2586L11.0404 67.3476L11.0283 67.4166L11.0602 67.869C11.0272 68.0561 10.9925 68.2531 10.9595 68.4402L11.0533 68.5989C11.0308 68.7269 11.0082 68.8549 10.9856 68.983C10.9507 68.9269 10.9128 68.8728 10.872 68.8208C10.872 68.8208 10.8529 68.9291 10.8443 68.9783L10.7458 68.961C10.7215 69.0988 10.7481 69.2356 10.7511 69.4493L10.6491 69.279L10.6629 68.855C10.594 68.8428 10.5256 68.7698 10.4561 68.8185C10.3866 68.8672 10.3663 68.5793 10.3344 68.4721L10.2064 68.6222L10.2637 68.2972L10.1026 67.7712L10.3198 67.576ZM10.0389 67.9021C10.0233 67.9908 10.0569 68.0881 10.0691 68.1918L9.9822 68.3389C9.95342 68.2674 9.94353 68.1896 9.95346 68.1131C9.96339 68.0366 9.99281 67.964 10.0389 67.9021ZM10.4966 64.4999C10.4723 64.6378 10.455 64.7363 10.4967 64.8452L10.3119 64.7415L10.2719 64.4501L10.4966 64.4999ZM9.91483 67.1085L9.85579 67.4434L9.61187 67.1567C9.73756 67.0773 9.79199 66.8838 9.91483 67.1085Z" fill="#3E0CC6"/>
<path d="M206.866 39.0119C206.631 38.9341 206.426 38.7843 206.281 38.5839L199.474 39.1809L199.829 39.2434L199.398 39.269L199.102 39.2169L188.241 40.1754L187.987 40.2322L187.849 40.2079L172.884 41.5191L172.953 41.5313L172.821 41.5892L172.268 41.6745L172.45 41.5644L160.321 42.6244C160.284 43.1255 160.251 43.4244 160.236 43.6249L159.862 43.5589C160 43.2379 160.074 43.0479 160.232 42.6696L146.154 43.9037L145.279 44.0846L145.535 43.9571L144.742 44.0204L144.533 44.1154L145.025 44.2022L144.487 44.2596L144.329 44.2319L143.848 44.3704C143.564 44.371 143.523 44.3131 143.553 44.3183C143.404 44.3533 143.252 44.364 143.1 44.3502L143.244 44.2841L142.104 44.2965L142.113 44.2472L142.064 44.2385L132.03 45.1094C131.843 45.248 131.621 45.3318 131.388 45.3517L131.844 45.1274L131.289 45.1107L131.18 45.0916L114.678 46.5381L113.962 46.6251L113.894 46.6129L111.037 46.8606C111.333 46.9127 111.023 46.9394 111.013 46.9985C110.717 46.9464 111.027 46.9197 111.037 46.8606L110.82 46.8833L110.848 47.2436C110.848 47.2436 110.848 47.2436 110.839 47.2928C110.83 47.3421 110.782 47.6178 110.578 48.1404L110.496 47.2222C110.417 47.2083 110.378 47.2014 110.507 47.1631L110.527 47.0449L110.325 47.1006C110.34 47.0391 110.351 46.9766 110.358 46.9135L96.218 48.2078L96.4249 48.2443L95.8022 48.7234L96.0067 48.8306L95.5607 48.8839C95.5257 48.8723 95.4892 48.8659 95.4523 48.8648L94.4571 49.0955C94.4516 49.1554 94.4411 49.2146 94.4259 49.2728L93.8582 49.325C93.8476 49.3568 93.8417 49.39 93.8408 49.4235L93.3849 49.4751C93.2077 49.4438 93.8715 49.307 93.4689 49.2868L93.8895 49.1477L94.5967 48.9374L94.2816 48.8818C94.3111 48.7144 94.4044 48.5886 94.4681 48.4577L93.2209 48.5627L92.9701 48.6607L92.6462 48.6544L92.7256 48.6074L92.1475 48.8914L91.7136 48.8758L92.7059 48.6039L59.9037 51.3902L59.8898 51.469L59.5672 51.5137C59.4392 51.4911 59.4096 51.4859 59.5845 51.4152L22.3422 54.6777L22.5514 55.1614L21.825 55.3075L21.6199 54.7433L21.5706 54.7346L20.1967 55.9038L20.2854 55.9194L20.7048 56.0746L20.2836 56.1019L20.067 56.0637L20.0601 56.6209L20.3046 56.5016L20.3944 56.5682L20.0607 56.7327C20.0277 56.9198 20.0637 57.1191 20.0683 57.323L19.127 57.4211L19.1531 57.7912L19.2522 57.7478L19.6252 57.7628C19.4727 57.8364 19.3156 57.9003 19.1549 57.954L19.1671 58.2303L18.9035 58.2854L20.9652 58.1107L20.7937 57.9891L21.0103 58.0273L21.7959 58.0643L22.4557 58.008L22.3966 57.9976L23.3309 57.9389L50.8043 55.5432L50.6271 55.512L50.8698 55.4025L50.3252 55.4385L50.5251 55.3417L51.1907 55.3677L50.9694 55.4708L50.8704 55.5143L60.659 54.6509L60.5507 54.6318L60.7673 54.67L61.1219 54.7325L90.4744 51.9879L90.6279 51.9235L90.0834 51.9595L90.2832 51.8628L90.9488 51.8887L90.7936 51.9629L97.2502 51.3955C97.2728 51.2674 97.4112 51.2309 97.8868 51.1828C97.8277 51.1724 97.7003 51.2616 97.6933 51.301C97.6864 51.3404 97.6829 51.3601 97.5908 51.3641L113.058 50.0296L112.514 50.0048L113.962 49.7932L114.228 49.84C113.949 49.9275 113.663 49.9892 113.373 50.0244L120.5 49.4024C120.515 49.3138 120.532 49.2153 120.479 49.1145L120.498 49.0062L120.378 49.056L120.161 49.0178L120.404 48.9083L119.858 48.9541L120.059 48.8475L120.523 48.8683C120.531 48.819 120.542 48.76 120.552 48.7009L121.273 48.6452L121.645 48.6092C121.62 48.7471 121.665 48.8971 121.67 49.0402L121.226 49.0837L120.938 49.104L121.081 49.3322L141.304 47.5672L141.431 47.5388L141.579 47.5649L144.087 47.3369L144.313 47.3768L144.424 47.3252L144.749 47.3825L145.782 47.2804L145.894 47.219L146.362 47.0984L146.05 47.2566L160.324 46.0063L160.747 45.7965L160.367 45.8209L160.249 45.8001L160.591 45.7589C160.739 45.7849 161.08 45.7536 160.926 45.8179L160.837 45.8023C160.825 45.8712 160.731 45.946 160.485 46.0144L165.178 45.603L169.084 45.2763C169.179 45.1408 169.471 45.0399 169.641 44.938L170.056 44.9501L170.312 44.8226L170.508 44.8573C170.376 44.9526 170.213 44.9961 170.05 44.9796L169.1 45.2995L200.577 42.5435C200.686 42.3292 200.805 42.1165 200.914 41.9022L201.966 42.4431L202.996 42.3607L203.142 42.1631L203.238 42.2512C203.348 42.1218 203.495 42.0305 203.66 41.9904L203.217 41.9123L204.087 41.7002C204.264 41.7314 204.761 41.6769 204.638 41.7974L204.132 41.7894L204.299 41.8189L204.26 42.0454L211.335 41.4246L211.207 41.402C211.327 41.3764 211.448 41.3605 211.571 41.3545L212.228 41.3688L227.048 40.0727C227.911 39.9983 228.768 40.2692 229.431 40.8258C230.095 41.3825 230.51 42.1796 230.586 43.0422L234.527 88.0705C234.602 88.9333 234.331 89.7903 233.774 90.4536C233.217 91.1169 232.42 91.5323 231.558 91.6086L157.057 98.1105C156.82 98.6593 156.379 99.0948 155.827 99.3254C155.835 99.0951 155.894 98.8694 156 98.665C156.106 98.4605 156.257 98.2825 156.442 98.1442L145.088 99.1885C145.009 99.3318 144.951 99.4857 144.916 99.6455L144.839 99.2157L68.6718 105.84L68.8868 106.406L67.4592 108.744L67.6701 109.217L111.813 105.344L111.006 105.141C111.168 104.915 111.364 104.554 111.41 104.582C111.768 104.798 112.441 104.49 112.504 105.283L137.049 103.143C137.061 103.074 137.142 103.017 137.192 102.965C137.39 102.766 137.605 102.581 137.821 102.395C138.036 102.21 137.978 102.078 138.115 101.818L139.145 102.253C139.112 102.44 139.196 102.597 139.135 102.657C139.074 102.718 138.903 102.881 138.782 102.991L156.1 101.465L156.225 101.274C156.274 101.283 156.285 101.396 156.325 101.454L189.689 98.5335L189.315 98.4675C189 98.4119 188.685 98.3563 188.33 98.2938C187.976 98.2313 187.822 98.123 187.573 98.0385L188.291 97.5964C189.083 98.1726 189.959 97.9819 190.919 98.1817C190.898 98.2998 190.81 98.396 190.752 98.4974L191.658 98.4237C191.904 98.2983 192.16 98.1941 192.424 98.1119L192.825 98.3146L231.829 94.9059C233.306 94.7744 234.694 94.1459 235.767 93.1234C236.84 92.1008 237.534 90.7445 237.737 89.2762C237.691 89.5322 237.62 89.1337 237.494 88.9796L237.648 88.9153C237.686 89.0439 237.708 89.1493 237.742 89.2466C237.804 88.7742 237.817 88.2966 237.78 87.8216L237.614 85.9951L237.117 86.2223L236.814 85.4073L237.528 85.0457L237.359 82.7819L237.31 82.7124L236.921 78.2369L236.872 78.2282L236.886 78.1494L236.775 75.896C236.775 75.896 236.657 75.8751 236.578 75.516C236.611 75.3289 236.637 75.1812 236.665 75.0236L235.62 63.1009C235.569 63.3865 235.575 63.7022 235.545 64.1031L234.808 63.7904C234.769 64.007 234.807 64.2573 234.719 64.2926C234.752 64.1055 234.782 63.9381 234.74 63.7684C234.744 63.7184 234.753 63.6689 234.766 63.6207L234.806 63.3941L234.791 63.4828C235.057 62.4331 235.115 61.3568 235.338 60.3806L235.299 59.9676C235.186 59.7446 235.102 59.5876 235.039 59.4243C235.021 59.3312 235.007 59.2372 234.998 59.1428L235.244 59.6432L235.283 59.7718L234.134 45.729C234.122 45.8249 234.105 45.9203 234.083 46.0146C234.106 45.8865 234.058 45.7562 234.051 45.623L233.813 42.9409L233.832 42.8326C233.758 41.7503 233.415 40.7034 232.836 39.786C232.257 38.8686 231.459 38.1094 230.514 37.5766L230.347 37.5471L230.357 37.488C229.266 36.918 228.033 36.6725 226.806 36.7806L207.076 38.5108C207.026 38.6238 206.952 38.8138 206.866 39.0119ZM19.916 57.611C19.74 57.671 19.5525 57.6901 19.368 57.6666L19.5018 57.5988C19.6744 57.5411 19.8582 57.5248 20.0382 57.5513L19.916 57.611ZM23.2616 54.9921L22.6719 55.2842L22.2282 55.2668L23.2616 54.9921ZM22.4935 55.3746C22.2972 55.4516 22.3192 55.5571 21.8517 55.6168L22.3655 55.352L22.4935 55.3746ZM21.6964 55.3457L21.8835 55.3787C21.8163 55.4199 21.7456 55.455 21.6721 55.4836L21.5736 55.4662L21.6964 55.3457ZM20.4024 55.8893L20.8698 55.6569L20.9978 55.6795C20.9748 55.7214 20.9474 55.7608 20.9162 55.7971L21.2609 55.8578C21.4636 55.8022 21.3808 55.6962 21.8413 55.6759L21.463 55.863L21.2661 55.8283L20.8079 55.9506L20.4024 55.8893ZM21.5779 57.112L20.9025 57.0842C21.2148 57.0336 21.5336 57.0383 21.8444 57.098L21.5779 57.112ZM22.3332 56.514C21.9889 56.5775 21.6534 56.6819 21.334 56.8252L20.753 56.8954L21.3073 56.6885C21.5751 56.6335 21.8373 56.554 22.0905 56.4509C22.536 56.413 22.967 56.2737 23.3504 56.0435L23.9563 55.9473C23.4363 56.1759 22.8949 56.3525 22.3402 56.4746L22.3332 56.514ZM23.5205 55.0784L23.1956 55.0211C23.4364 54.874 23.7057 54.7796 23.9857 54.7441L23.641 54.6833L24.2063 54.5291L24.6205 54.5413L24.6032 54.6397L23.5205 55.0784ZM48.6984 53.6081L48.5605 53.5838L48.8762 53.4059L49.2307 53.4685L48.6984 53.6081ZM51.5599 52.4677L51.1573 52.4475L51.2615 52.3745C51.6583 52.3125 51.8309 52.3124 51.5668 52.4283L51.5599 52.4677ZM94.6583 49.9129L95.5556 49.9492L94.9821 50.0918L94.5511 50.1174L94.4289 50.0044L94.6583 49.9129ZM92.8068 49.5864L93.4046 49.4786C92.8864 49.7195 92.3462 49.9099 91.7914 50.0471C91.4448 50.1086 91.1081 50.2165 90.7905 50.3681L90.2013 50.4267L90.7974 50.1561C91.025 50.0744 91.4496 50.0274 91.5707 49.9168C92.0263 49.8767 92.4673 49.7359 92.8619 49.5047L92.8068 49.5864ZM92.1072 50.9049C92.1072 50.9049 92.0899 51.0034 92.127 51.0811L91.0118 50.9555C91.0118 50.9555 91.0118 50.9555 91.0222 50.8964C91.3994 50.8601 91.7783 50.8455 92.1571 50.8528L92.1072 50.9049ZM91.0263 50.6433L90.3607 50.6173C90.6696 50.566 90.9852 50.5701 91.2927 50.6293L91.0263 50.6433ZM91.8052 48.9325L92.0218 48.9707C91.8344 49.1093 91.6122 49.1931 91.38 49.213L91.8052 48.9325ZM91.1378 48.9164L91.3249 48.9494L91.1251 49.0462L91.0168 49.0271C91.0693 48.9683 91.1264 48.9139 91.1876 48.8643L91.1378 48.9164ZM90.3112 49.2276L90.4491 49.2519L90.3674 49.3695L90.711 49.3793C90.9137 49.3237 90.8407 49.2194 91.2914 49.1973L90.9131 49.3845L90.7162 49.3498L90.258 49.4721L89.8438 49.46L90.3112 49.2276ZM89.5147 49.4832L89.7314 49.5214L90.1757 49.6505L89.7447 49.676L89.3804 49.6118L89.5147 49.4832ZM89.8126 49.9825L89.911 49.9998L89.5311 50.1968L89.3243 50.1604L89.8126 49.9825ZM89.3174 50.7177C89.4885 50.653 89.674 50.6366 89.8538 50.6701L89.7217 50.728C89.5506 50.7926 89.3651 50.8091 89.1853 50.7756L89.3174 50.7177ZM61.5183 51.9085L61.7054 51.9415L61.494 52.0464L61.3955 52.029L61.5183 51.9085ZM58.2431 52.8033C58.2518 52.7541 58.2605 52.7049 58.2709 52.6458L58.4777 52.6822C58.4868 52.7537 58.4911 52.8257 58.4905 52.8977L58.2431 52.8033ZM58.5624 53.8142C58.5763 53.7354 58.373 53.6792 58.7142 53.5871L58.7351 53.8141L58.5624 53.8142ZM59.7789 53.3077L59.6248 53.4328L59.5756 53.4242L59.3271 53.624L59.425 53.7022L59.2373 53.7301L59.1661 53.7886L58.8926 53.6693C58.8926 53.6693 58.9048 53.6004 58.9117 53.561C58.9187 53.5216 58.8329 53.5471 58.6974 53.6247C58.5619 53.7024 58.7165 53.5164 58.7269 53.4573L58.9424 53.4445L59.0119 53.3958C59.1248 53.101 59.2377 52.8061 59.3628 52.4423L60.0013 53.0829L60.1235 53.0232L60.2035 53.0881L59.7789 53.3077ZM60.0777 52.6496L59.7237 52.5262L59.8326 52.4845L60.0493 52.5227L60.5023 52.6026L60.0777 52.6496ZM60.1715 52.463L60.6407 52.2208L60.7687 52.2434C60.7454 52.2887 60.7175 52.3314 60.6853 52.3709L61.0387 52.3824C61.2432 52.3169 61.1603 52.2109 61.6208 52.1906L61.2409 52.3876L61.0439 52.3529L60.5759 52.4734L60.1715 52.463ZM61.0654 52.6917L61.5161 52.8423L60.7109 52.8018L61.0654 52.6917ZM61.354 53.6464L60.6803 53.6088C60.9922 53.5556 61.3116 53.5636 61.6205 53.6324L61.354 53.6464ZM61.6127 52.179L62.1248 51.924L62.2528 51.9466C62.0976 52.0208 62.1196 52.1262 61.6521 52.1859L61.6127 52.179ZM89.4072 51.1295C89.2344 51.1887 89.0505 51.2083 88.8691 51.1869L88.9913 51.1273C89.1641 51.0681 89.348 51.0484 89.5295 51.0698L89.4072 51.1295ZM89.8243 51.0101C89.832 50.9914 89.8356 50.9712 89.8347 50.951L89.6389 50.9673L89.442 50.9325L89.5642 50.8729L89.8202 50.7454L90.1452 50.8027L90.5096 50.8669L90.8826 50.882L90.6115 51.0372C90.5266 51.0548 90.44 51.0633 90.3532 51.0628L89.8243 51.0101ZM90.4402 51.6061L90.249 51.481L90.4755 51.521L91.3612 51.5654L90.4402 51.6061ZM92.9282 51.5473L91.9926 51.5549L91.8605 51.4402L92.7949 51.3816L92.9629 51.5229L92.9282 51.5473ZM93.2311 51.1539L92.2938 51.1714L92.1519 51.055L93.0961 50.9981L93.256 51.1278L93.2311 51.1539ZM92.8753 50.5225L93.0444 50.1969L94.3739 50.4314L93.6545 50.8833L92.8753 50.5225ZM94.1452 50.8073L94.5379 50.6532L94.9608 50.7887L94.1452 50.8073ZM95.4161 50.9705C95.0714 50.9098 95.6049 50.821 95.5847 50.7058L95.0899 50.6896L94.7748 50.6341L95.9629 50.6912C96.022 50.7017 95.9629 50.6912 96.022 50.7017L95.7266 50.6496L96.0516 50.7069L95.4161 50.9705ZM95.7173 50.587C95.3529 50.5227 95.9588 50.4265 95.8893 50.3025L96.3029 50.3755L95.7173 50.587ZM96.6029 49.941C96.4946 49.9219 96.3863 49.9028 96.2693 49.9329L96.0434 50.0048L95.6987 49.944L96.0219 49.8385L96.081 49.8489L96.1696 49.8646L96.3086 49.7672C96.5543 49.7101 96.8077 49.693 97.0588 49.7167L96.5942 49.8176L96.7124 49.8384L96.7037 49.8877L97.2639 49.9357L96.6029 49.941ZM109.872 47.3051L109.895 47.5224L109.678 47.6568C109.666 47.5685 109.662 47.4794 109.664 47.3903L109.872 47.3051ZM109.59 47.7529L109.25 47.8961L108.797 47.877C109.048 47.7705 109.321 47.7214 109.594 47.7333L109.59 47.7529ZM109.484 48.3537L109.041 48.3364L109.151 48.2848L109.937 48.2609L109.484 48.3537ZM110.329 47.8832L110.211 48.035L109.985 48.046L110.329 47.8832ZM110.064 48.6386L110.377 48.5314L110.808 48.6785L110.064 48.6386ZM168.467 43.421L168.909 43.3873C168.895 43.4523 168.883 43.5181 168.875 43.5843L168.757 43.5634L168.58 43.4714L168.218 43.5091C168.137 43.5658 168.43 43.6278 168.004 43.6846C168.017 43.6327 168.026 43.5801 168.032 43.527L168.249 43.5652L168.467 43.421ZM168.731 43.8838L168.543 43.9116C168.543 43.8814 168.549 43.8515 168.558 43.823L168.657 43.8403L168.731 43.8838ZM166.976 42.3153C166.988 42.2464 167.163 42.1757 167.266 42.1125L167.748 42.1976L168.133 42.0319L168.34 42.0684L167.327 42.5702L167.742 42.5823C167.604 42.664 167.445 42.7032 167.285 42.6947C167.401 42.6136 167.238 42.6154 166.97 42.6391L166.669 42.6774C166.771 42.5025 166.964 42.3843 166.965 42.2626L166.976 42.3153ZM167.753 42.9802L167.526 42.9403C167.54 42.8887 167.549 42.8359 167.554 42.7827L167.771 42.7601L167.753 42.9802ZM164.424 42.3933L164.806 42.3591C164.734 42.3958 164.666 42.438 164.601 42.4854L164.334 42.5601L164.261 42.3951L164.424 42.3933ZM164.343 43.8311L164.764 43.9764L163.95 43.9852L164.343 43.8311ZM160.863 44.1009L160.874 44.0419C161.242 44.0195 161.611 44.0235 161.978 44.0539C161.97 44.1031 161.961 44.1524 161.949 44.2213L160.863 44.1009ZM161.677 44.61L160.56 44.4943C160.568 44.472 160.572 44.4488 160.573 44.4254C160.944 44.4092 161.316 44.4138 161.687 44.4391C161.659 44.4241 161.66 44.4751 161.668 44.5475L161.677 44.61ZM159.334 44.1359L159.59 44.0084L159.915 44.0657L160.279 44.13L160.654 44.1352L160.381 44.3003L160.113 44.3241L159.621 44.2373C159.62 44.217 159.623 44.1969 159.631 44.1782L159.389 44.2269L159.192 44.1921L159.334 44.1359ZM159.121 44.5959C159.053 44.579 158.984 44.5668 158.914 44.5594L159.048 44.4916L159.294 44.3624L159.629 44.4215L159.993 44.4857L160.358 44.55L160.075 44.7134L159.818 44.729L159.316 44.6405L159.327 44.5814L159.121 44.5959ZM158.795 44.315C158.967 44.2573 159.151 44.241 159.331 44.2674L159.209 44.3271C159.036 44.3863 158.852 44.4059 158.671 44.3845L158.795 44.315ZM158.52 44.3173L157.945 44.4698L157.334 44.3621C157.717 44.2569 158.115 44.2206 158.511 44.2548L158.52 44.3173ZM157.936 44.6916L158.539 44.4425L158.913 44.4476C158.414 44.6972 157.877 44.8632 157.324 44.9391L157.553 44.8475L157.041 44.7572C157.326 44.6591 157.626 44.6157 157.927 44.6291L157.936 44.6916ZM157.594 45.2507L157.141 45.1708L157.568 44.9923L157.594 45.2507ZM143.411 44.6589L143.549 44.6832L143.774 44.5604L143.843 44.7452L143.411 44.8315L143.362 44.8229L143.173 44.8605L143.273 44.8072L142.939 44.7482L143.411 44.6589ZM143.451 44.9503L143.52 45.1351L142.796 45.2713L143.451 44.9503ZM142.762 45.174C142.437 45.1167 142.713 45.1045 142.781 45.0657L142.998 45.1039L142.762 45.174ZM142.617 44.9046L143.072 44.9138L142.732 45.057L142.369 45.0437L142.617 44.9046ZM130.472 45.4236L130.6 45.4462C130.577 45.4915 130.549 45.5342 130.517 45.5737L130.862 45.5736C131.065 45.518 130.992 45.4137 131.452 45.3934L131.175 45.5272L130.973 45.6338L130.865 45.6147L130.936 45.5562L130.857 45.5423L130.399 45.6646L129.985 45.6525L130.472 45.4236ZM128.435 47.0141L128.64 46.8877L129.084 46.8442C129.068 46.909 129.056 46.9748 129.049 47.0412L128.931 47.0204L128.755 46.9283L128.392 46.966C128.311 47.0228 128.605 47.0847 128.177 47.1514C128.192 47.1 128.201 47.0472 128.205 46.9938L128.435 47.0141ZM128.903 47.3506L128.718 47.3685C128.718 47.3384 128.723 47.3085 128.733 47.2799L128.832 47.2973L128.903 47.3506ZM128.185 47.2238C128.171 47.3026 128.159 47.3715 128.205 47.4509L128.038 47.4213C128.062 47.2835 127.871 47.2192 128.182 47.1218L128.185 47.2238ZM127.917 46.2628L127.94 46.48L127.713 46.4401C127.728 46.3887 127.738 46.3359 127.741 46.2825L127.917 46.2628ZM126.02 46.7711C126.261 46.7038 126.513 46.6861 126.761 46.7189L125.79 46.9235L126.02 46.7711ZM118.674 46.6232L119.029 46.6857L118.498 46.8156L118.351 46.7895L118.674 46.6232ZM118.373 47.0068L118.757 47.0745L118.219 47.1927L118.081 47.1684L118.373 47.0068ZM113.651 47.2403L113.842 47.1928L114.069 47.2327C113.868 47.3332 113.642 47.3711 113.42 47.3417L113.651 47.2403ZM112.283 47.2834L112.155 47.3726L112.038 47.4027L111.304 47.3646L112.283 47.2834ZM111.533 49.3445C111.208 49.2872 111.485 49.275 111.552 49.2362L112.136 49.268L111.533 49.3445ZM113.042 48.1585C112.727 48.103 112.994 48.089 113.06 48.0601L113.276 48.0983L113.042 48.1585ZM113.06 48.0601L112.687 48.0451L112.946 47.8979L113.401 47.9071L113.06 48.0601ZM113.189 47.7884L113.741 47.6522L113.967 47.6921L113.665 47.852L113.189 47.7884ZM113.74 48.4035L114.345 48.4289L114.965 48.5383C115.015 48.547 114.965 48.5383 115.015 48.547C114.575 48.5677 114.135 48.5175 113.711 48.3983L113.74 48.4035ZM114.043 48.0101L114.646 48.0454L115.257 48.153C115.316 48.1634 115.257 48.153 115.307 48.2127C114.867 48.219 114.429 48.1487 114.014 48.0049L114.043 48.0101ZM115.54 46.8322C115.861 46.7974 115.728 46.8652 115.768 46.9231C115.809 46.9811 116.186 46.8547 116.204 46.9289C116.046 46.9011 115.786 46.9973 115.768 46.9231C115.4 46.9394 115.545 46.8635 115.511 46.827L115.54 46.8322ZM116.109 47.4097L115.648 47.43C115.663 47.3786 115.672 47.3258 115.676 47.2725L116.119 47.2388L116.336 47.2162L115.882 47.2579L116.109 47.4097ZM116.529 47.1588L116.302 47.1189C116.302 47.1189 116.186 47.0273 116.517 46.9943L116.754 47.036L116.529 47.1588ZM116.395 49.7042C116.57 49.6335 116.69 49.5837 116.89 49.4869C116.875 49.5519 116.863 49.6176 116.855 49.6838L116.395 49.7042ZM122.214 47.684L121.889 48.1446C121.76 48.0102 121.632 47.8758 121.492 47.7496C121.511 47.6889 121.522 47.626 121.525 47.5624L120.773 47.7346L118.382 47.8207L118.222 47.8635L117.808 47.8514C117.964 47.7569 118.145 47.7143 118.327 47.7297C118.42 47.7235 118.512 47.7056 118.6 47.6764L118.689 47.692L118.391 47.7714C119.443 47.561 120.549 47.4514 121.519 47.3076C121.501 47.2548 121.497 47.1988 121.506 47.144C121.514 47.0892 121.536 47.0372 121.569 46.9924C121.601 46.9476 121.644 46.9112 121.694 46.8862C121.743 46.8612 121.798 46.8484 121.854 46.8487L122.034 47.2055L122.173 47.169L122.409 47.2107L123.741 46.9684L123.82 47.0431L122.147 47.4285L122.214 47.684ZM123.862 47.7817C124.025 47.7191 124.111 47.6936 124.255 47.6275L124.676 47.7729L123.862 47.7817ZM124.809 47.6541L124.454 47.5916L125.652 47.6505C125.652 47.6505 125.652 47.6505 125.702 47.7102L124.809 47.6541ZM128.019 48.6263L127.527 48.6512C127.544 48.5528 127.911 48.5463 128.25 48.5249L128.019 48.6263ZM128.529 47.9751L127.85 47.9671L128.355 47.9849L128.104 48.1437L127.661 48.1774C127.593 48.2162 127.473 48.266 127.456 48.3037C127.439 48.3413 127.189 48.3784 127.013 48.3982C127.035 48.2701 127.164 48.2319 127.661 48.1774L127.464 48.1426L127.547 48.0152C127.295 48.123 126.498 48.2059 126.727 48.3478L126.35 48.4133C126.35 48.4133 126.232 48.3925 126.27 48.3484C126.408 48.2743 126.552 48.2114 126.699 48.1601L127.272 47.9057L126.819 47.8867L127.11 47.8467L127.502 47.8142L127.678 47.7945L127.987 47.7678L128.056 47.7799L128.032 47.5725L128.525 47.5377L128.185 47.7417L128.374 47.704L129.05 47.7317L128.478 47.9762C128.489 47.9617 128.498 47.9464 128.507 47.9305L128.529 47.9751ZM129.322 46.8761L129.115 46.8396L129.626 46.5945L129.706 46.6594L129.322 46.8761ZM129.614 46.4908L129.417 46.4561L129.919 46.1994L129.997 46.2741L129.614 46.4908ZM129.66 46.2249L129.305 46.1114L129.425 46.0616L129.642 46.0998L130.095 46.1797L129.66 46.2249ZM129.754 46.0384L130.179 45.8187L129.962 45.8414L129.608 45.718L129.718 45.6665L129.935 45.7047L130.339 45.7759C130.314 45.8131 130.287 45.8491 130.259 45.8836L130.612 45.8952C130.817 45.8297 130.744 45.7254 131.193 45.7132L130.814 45.9003L130.617 45.8656L130.159 45.9879L129.754 46.0384ZM131.717 45.5011L131.845 45.5237C131.657 45.6579 131.436 45.7383 131.205 45.756L131.717 45.5011ZM130.658 46.2688L131.099 46.4176L130.294 46.3772L130.658 46.2688ZM131.506 46.8144L131.24 46.8283L130.564 46.8006C130.853 46.7399 131.151 46.7272 131.444 46.7628L131.506 46.8144ZM131.203 47.2077L130.937 47.2217L130.273 47.1858C130.559 47.1178 130.855 47.0945 131.148 47.1168L131.203 47.2077ZM130.301 48.2367L130.11 48.1116L130.336 48.1515L131.224 48.1861L130.301 48.2367ZM130.602 47.8531L130.413 47.7182L130.629 47.7564L131.525 47.8026L130.602 47.8531ZM132.044 45.4367L131.602 45.4096L132.663 45.1499L132.044 45.4367ZM142.077 44.2814C142.033 44.3171 141.986 44.3496 141.938 44.3787L141.829 44.3596L141.093 44.3314L142.077 44.2814ZM141.234 46.2957C140.919 46.2401 141.185 46.2262 141.253 46.1874L141.836 46.2191L141.234 46.2957ZM142.349 47.2844L141.861 47.2897L141.469 47.3222C141.446 47.2799 141.427 47.2357 141.411 47.1901C141.483 47.1677 141.557 47.1535 141.632 47.1478L142.293 47.1425L142.372 47.1564L142.515 47.0903L142.741 47.0793C142.739 47.0958 142.736 47.1123 142.732 47.1285L142.713 47.2368L142.349 47.2844ZM142.871 47.3764L143.106 47.1945L143.891 47.1805C143.567 47.3004 143.223 47.3536 142.878 47.337L142.871 47.3764ZM143.163 46.9911L143.425 46.8243L144.22 46.812C143.875 46.9266 143.512 46.9729 143.15 46.9483L143.163 46.9911ZM144.988 46.9474L144.523 46.9365L144.272 46.9736L144.281 46.9244L144.498 46.9626L144.608 46.911L145.021 46.933L144.988 46.9474ZM145.031 44.4571L145.477 44.2311L145.891 44.304L145.031 44.4571ZM146.685 45.0941L146.05 45.1851L145.892 45.1573L146.405 45.075C146.622 44.9916 146.815 44.995 146.692 45.0547L146.685 45.0941ZM146.977 44.7088L146.343 44.79L146.185 44.7622C146.353 44.7917 146.531 44.7013 146.706 44.6915C146.88 44.6816 147.116 44.6115 146.984 44.6694L146.977 44.7088ZM157.708 45.5855L157.584 45.655L157.047 45.7026C157.117 45.6641 157.191 45.6328 157.267 45.6093L156.824 45.5312L157.251 45.3527C157.234 45.4512 157.223 45.5103 157.271 45.6406C157.425 45.5979 157.583 45.5712 157.742 45.5612L157.708 45.5855ZM158.446 45.2587C158.466 45.1405 158.554 45.0443 158.615 44.9331L159.935 45.2168L159.208 45.6571L158.446 45.2587ZM160.248 45.5765L160.127 45.6263L159.911 45.5881L160.153 45.4786L159.609 45.5146L159.809 45.4178L160.484 45.4455L160.248 45.5765ZM160.43 45.2329L160.213 45.1947L160.454 45.0951L159.91 45.131L160.112 45.0244L160.775 45.0603L160.546 45.1518L160.43 45.2329ZM161.208 45.3701L160.646 45.3928L160.527 45.3719L160.86 45.329C161.044 45.2091 161.371 45.1957 161.219 45.311L161.208 45.3701ZM162.707 44.7611L161.771 44.7687L161.639 44.6541L162.573 44.5954L162.741 44.7367L162.707 44.7611ZM163.245 42.6321C163.03 42.7567 162.775 42.8743 162.531 42.9937L162.063 43.2261L161.611 43.258L161.499 43.4312L161.024 43.4185C161.378 43.1966 161.375 42.9829 161.879 42.7771L162.665 42.5807L163.291 42.5389L163.214 42.5759C163.214 42.5759 163.307 42.5111 163.223 42.5267L163.245 42.6321ZM163.621 44.4145L164.013 44.2604L164.436 44.3959L163.621 44.4145ZM165.111 45.5202L164.48 45.1854C164.578 44.9184 164.677 44.6415 164.809 44.2991L164.572 44.2574L164.218 44.1949L164.833 44.222L164.882 44.2307L165.414 44.2637C165.414 44.2637 165.414 44.2637 165.473 44.2741L165.039 44.2585L165.627 44.4942L165.111 45.5202ZM165.775 44.0024L165.195 44.1843C164.85 44.1236 165.383 44.0349 165.363 43.9196L164.86 43.8919L164.516 43.8311L165.635 43.8761L165.18 43.4608L166.048 42.7406L166.231 42.915L166.319 42.9306L166.445 43.0239L166.308 43.0505L166.447 43.1866L166.421 43.3344L166.559 43.3587L166.401 43.3917C166.293 43.657 166.185 43.9224 166.039 44.2926L165.775 44.0024ZM166.45 45.3601C166.453 45.3439 166.456 45.3274 166.458 45.3109L166.233 45.3219C166.243 45.2934 166.248 45.2635 166.248 45.2333L166.395 45.2083L166.478 45.3143L166.655 45.3456L166.45 45.3601ZM167.207 44.925C167.189 45.0234 166.938 45.0096 166.762 45.0293C166.784 44.9013 166.913 44.863 167.41 44.8085L167.213 44.7738L167.296 44.6463C167.013 44.7587 166.249 44.8272 166.519 44.9662L166.142 45.0317C166.142 45.0317 166.024 45.0109 166.062 44.9668C166.1 44.9228 166.347 44.8446 166.491 44.7785L167.062 44.534L166.777 44.4836C166.777 44.4836 166.777 44.4836 166.827 44.5433L166.44 44.607C166.44 44.607 166.322 44.5862 166.37 44.5439C166.506 44.4729 166.646 44.4094 166.789 44.3539L167.361 44.1093L166.927 44.0329L167.209 43.9912L167.6 43.9587L167.778 43.9899C167.786 43.9407 167.685 43.8822 167.94 43.8155C167.952 43.8907 167.959 43.9666 167.961 44.0426L167.794 44.0131L167.725 44.0009C167.683 44.0731 167.636 44.1429 167.586 44.2101L167.636 44.2188L167.813 44.25C167.814 44.2165 167.82 44.1834 167.83 44.1515L168.312 44.1248L168.109 44.2413L168.168 44.2517L168.842 44.2893L168.271 44.5338L168.255 44.6224L167.578 44.6046L168.084 44.6126L167.823 44.7696L167.388 44.8149C167.359 44.7488 167.241 44.7888 167.224 44.8265L167.207 44.925ZM167.779 45.2493L167.285 45.2841C167.303 45.1856 167.671 45.1694 168.01 45.1479L167.779 45.2493ZM168.07 44.864L167.588 44.8907C167.604 44.8021 167.963 44.7841 168.301 44.7626L168.07 44.864ZM169.504 44.1015C169.496 44.1338 169.49 44.1667 169.487 44.2L169.156 44.2939C169.061 44.3337 168.968 44.3784 168.878 44.4277C168.809 44.4155 168.75 44.4051 168.77 44.4086L169.317 44.1293L169.524 44.1658L169.78 44.0383L170.07 43.8865C170.029 43.8894 170.018 43.8975 169.524 43.9932L169.504 44.1015ZM170.011 43.0129L170.376 42.9046L170.818 43.0435L170.011 43.0129ZM179.066 41.3601L178.724 41.5131L178.272 41.4842C178.521 41.3447 178.8 41.2652 179.085 41.2518L179.066 41.3601ZM173.175 41.7734L174.218 41.6122L174.297 41.6869C174.297 41.6869 174.297 41.6869 174.286 41.746C174.511 41.7008 174.742 41.6968 174.969 41.7343C174.774 41.8016 174.597 41.8821 174.383 41.9459L174.276 41.9777L174.184 42.0936C173.916 42.1174 173.958 42.0537 174.202 41.9951L174.034 42.0264C174.209 41.9557 174.25 41.892 174.154 41.8648C174.057 41.8376 174.006 41.9506 174.059 42.0004L173.628 42.0259L173.381 41.9825L173.175 41.7734ZM173.904 43.74C174.043 43.6581 174.201 43.6158 174.362 43.6177C174.222 43.6716 174.067 43.6765 173.923 43.6316L173.904 43.74ZM174.678 42.8611L175.4 42.6837C175.459 42.6942 175.568 42.7133 175.538 42.708C175.264 42.7754 174.979 42.7839 174.701 42.7331L174.678 42.8611ZM174.947 42.4921C174.641 42.4082 174.322 42.3934 174.01 42.4487L173.547 42.3671L174.313 42.1672L174.757 42.1845C174.757 42.1845 174.757 42.1845 174.748 42.2337L174.989 42.1949L175.215 42.2348L175.767 42.3321L174.947 42.4921ZM176.101 42.6245L176.468 42.3847C176.451 42.4832 176.442 42.5324 176.434 42.5816L176.101 42.6245ZM178.149 41.4321C177.923 41.3922 177.663 41.4275 177.905 41.318C177.965 41.3284 177.916 41.2589 177.921 41.2294C178.138 41.2676 178.4 41.2224 178.157 41.3319C178.104 41.2311 178.157 41.2711 178.172 41.3041L178.149 41.4321ZM177.969 43.4312C177.723 43.3878 177.996 43.2835 178.1 43.2105C178.204 43.1375 178.528 43.1438 178.544 43.2278L177.969 43.4312ZM178.922 42.0049L178.468 41.9858L178.589 41.936L179.375 41.9122L178.922 42.0049ZM179.423 41.6972L179.756 41.5327L179.636 41.6943L179.423 41.6972ZM181.625 41.0701L181.508 41.1003L180.773 41.0621L181.802 40.9896L181.625 41.0701ZM192.794 40.7853C192.623 41.1816 192.463 41.5697 192.292 41.966L191.933 41.8113C192.067 41.5101 192.203 41.199 192.333 40.8665L190.216 41.3563L187.815 41.4406L187.665 41.4852L187.25 41.4731C187.401 41.3745 187.581 41.3309 187.76 41.3497C187.853 41.3447 187.945 41.3268 188.033 41.2963L188.132 41.3137L187.823 41.3914C189.157 41.1392 190.497 41.0301 191.591 40.7559L191.817 40.7959L192.437 40.6817L192.697 40.0676L192.867 40.6051L193.15 40.5536L193.228 40.6283L192.794 40.7853ZM196.268 42.6774L197.166 42.7137C196.864 42.7155 196.566 42.642 196.3 42.5001L196.268 42.6774ZM199.064 40.1241L198.857 40.0876L199.358 39.8407L199.456 39.8581L199.064 40.1241ZM200.906 40.4488L200.641 40.4529L199.966 40.4252C200.276 40.3157 200.605 40.2701 200.934 40.2912L200.906 40.4488ZM199.992 41.3132L199.802 41.1782L200.019 41.2165L200.915 41.2627L199.992 41.3132ZM115.706 104.69C115.441 104.548 115.202 104.362 115.001 104.139C114.816 103.863 114.792 103.483 115.23 103.418L116.039 104.129C116.022 104.279 115.894 104.49 115.775 104.702L115.706 104.69ZM142.909 101.871C142.373 101.685 142.392 102.267 142.197 102.568L141.674 101.846C141.827 101.497 141.97 101.147 142.177 100.665L143.285 101.003C143.2 101.374 143.094 101.629 142.978 101.883L142.909 101.871ZM153.582 100.828L153.522 100.706L154.063 100.69L153.582 100.828ZM185.355 98.0028L185.036 97.3373C186.024 96.6281 186.727 97.8283 187.487 98.1248L185.355 98.0028ZM237.063 86.9336L237.236 87.2789C237.203 87.466 237.239 87.6652 237.241 87.9398L237.115 87.674C237.122 87.5124 237.079 87.3526 236.993 87.2158C237.061 87.1161 237.084 86.9881 237.109 86.9012L237.063 86.9336ZM235.113 89.9914L235.051 89.3611L235.181 89.6583C235.232 89.9035 235.239 90.1556 235.202 90.4032L235.113 89.9914ZM235.741 86.4264C235.725 86.515 235.708 86.6135 235.687 86.7317C235.726 87.3173 235.76 87.9325 235.578 88.0426C235.61 87.4592 235.629 86.9448 235.649 86.4304C235.701 86.135 235.683 85.8372 235.695 85.5349C235.708 85.2325 235.725 84.7887 235.75 84.4174L235.842 84.6468C235.85 85.056 235.812 85.465 235.728 85.8656L235.741 86.4264ZM235.205 91.0231C235.205 91.0231 235.213 90.9738 235.283 91.0978C235.353 91.2217 235.28 91.5745 235.27 91.8062L235.205 91.0231ZM236.914 87.0901L236.839 87.1683L236.658 86.8115C236.684 86.6637 236.702 86.5653 236.662 86.3857C236.82 86.5861 236.919 86.5426 236.973 87.1005L236.914 87.0901ZM236.231 87.447C236.29 87.5182 236.352 87.2245 236.418 87.6526C236.35 87.6405 236.261 87.564 236.241 87.8548L236.085 87.5837C236.142 87.8374 236.189 88.0894 236.244 88.353L236.365 88.4758C236.342 88.6038 236.32 88.7318 236.346 88.9294L236.244 88.6982C236.031 88.2037 235.894 87.6797 235.838 87.1441C235.861 87.0161 235.885 86.8782 235.909 86.7403C235.95 86.9709 236.008 87.2147 236.057 87.4569L236.231 87.447ZM236.285 85.9333L235.731 85.7341L235.834 85.1531L235.901 85.2869C236.09 85.5435 236.206 85.2897 236.351 85.9043L236.285 85.9333ZM235.938 83.4656C235.971 83.6052 236.015 83.742 236.069 83.8746L236.113 84.3189C236.113 84.3189 236.099 84.3977 236.035 84.4168C235.977 84.2239 235.923 84.0721 235.87 83.9105C235.818 83.5959 235.802 83.2763 235.825 82.9582C235.932 83.0989 235.96 83.2866 236.004 83.4366L235.938 83.4656ZM235.476 86.0852L235.481 86.807L235.345 86.5394C235.405 86.2045 235.374 85.9149 235.384 85.6322C235.467 85.7548 235.509 85.901 235.503 86.0493L235.476 86.0852ZM234.627 79.843C234.587 79.7242 234.541 79.584 234.505 79.4456C234.468 79.3071 234.486 79.1478 234.471 79.003L234.686 78.9902L234.692 79.6512L234.627 79.843ZM236.091 79.0856L235.15 79.011L234.938 78.4862L235.488 78.3599C235.779 78.4925 236.335 78.5092 236.125 79.0103L236.091 79.0856ZM236.336 75.2803L236.43 75.7842C236.391 75.8258 236.356 75.8706 236.325 75.9181L236.247 75.4373C236.281 75.3567 236.322 75.279 236.369 75.205L236.336 75.2803ZM236.168 72.4279C236.217 72.5582 236.265 72.6886 236.303 72.8172L236.361 72.9492L236.26 73.1752L236.049 72.5287C236.006 72.3688 235.962 72.2188 235.927 72.0705C235.892 71.9222 236.117 72.0838 236.202 72.3526L236.168 72.4279ZM236.019 75.3464C235.997 75.4744 236.04 75.6343 236.055 75.7791L235.426 75.8307C235.391 75.398 235.355 74.9653 235.304 74.4486L236.019 75.3464ZM234.066 76.4032L235.22 77.0026C235.101 77.2153 234.992 77.4296 234.883 77.644C234.774 77.8583 234.774 77.8583 234.716 77.9597L234.323 77.7686C234.428 77.5739 234.524 77.3775 234.678 77.0798L233.775 77.0729C233.908 76.7815 233.982 76.5915 234.1 76.3279L234.066 76.4032ZM234.644 72.1489C234.633 72.208 234.524 72.3105 234.276 72.6222C234.37 72.0904 234.417 71.8245 234.463 71.5586C234.546 71.7255 234.617 71.8975 234.677 72.0736L234.644 72.1489ZM234.743 64.3274L234.716 65.0028L234.666 64.8823C234.731 64.6298 234.676 64.1328 234.777 64.2521L234.743 64.3274ZM234.637 63.5471C234.66 63.4191 234.633 63.2824 234.638 63.141L234.626 63.21C234.605 63.3281 234.584 63.4463 234.611 63.583L234.637 63.5471ZM234.731 63.0153C234.778 62.7494 234.814 62.5426 234.867 62.2472C234.849 62.6909 234.832 62.962 234.831 63.2563L234.731 63.0153ZM234.969 60.6304L235.07 60.8615C235.089 60.7531 235.103 60.6744 235.128 60.5365C235.183 60.2214 235.191 60.4664 235.226 60.5539C235.192 61.0352 235.131 61.0955 235.055 60.8893C235.029 61.037 235.074 61.187 235.073 61.3087C235 61.7223 234.996 62.1481 234.95 62.6376L234.871 62.4511C234.925 62.1458 234.864 61.6273 234.968 61.5543C234.934 61.406 234.909 61.2595 234.871 61.07C234.833 60.8806 234.978 60.6929 235.002 60.555L234.969 60.6304ZM232.519 58.1676L232.473 57.6821C232.521 57.5977 232.563 57.5102 232.6 57.4203C232.629 57.6454 232.62 57.8738 232.573 58.0957L232.519 58.1676ZM234.198 63.104C234.184 63.1828 234.17 63.2616 234.107 63.3317L233.997 62.9772C234.119 62.8567 234.161 62.6203 234.231 63.0287L234.198 63.104ZM233.412 63.5849C233.369 63.8311 233.336 64.0182 233.292 64.2644C233.261 64.0965 233.219 63.8758 233.222 63.8561C233.226 63.8364 233.285 63.0954 233.446 63.5096L233.412 63.5849ZM234.683 52.1723L234.535 52.1462C234.577 51.9099 234.557 51.7338 234.582 51.4233C234.628 51.7361 234.676 51.9272 234.683 52.1723ZM234.144 53.7932C234.19 54.2786 234.071 54.2068 234.021 54.1981L234.033 53.7839L234.144 53.7932ZM234.362 49.3842C234.307 49.6994 234.242 49.2614 234.117 49.1074L234.26 49.0413L234.362 49.3842ZM234.293 47.534C234.218 47.9575 234.26 48.1782 234.253 48.3902C234.247 48.6022 234.267 49.0627 234.156 48.9417C234.179 48.6504 234.177 48.3577 234.148 48.067C234.189 47.9522 234.223 47.8161 234.291 47.5438L234.293 47.534ZM231.618 46.8085L231.646 46.651C231.708 46.264 231.743 45.8732 231.751 45.4814C231.745 45.5074 231.74 45.5337 231.737 45.5601C231.712 46.0433 231.701 46.5693 231.669 46.98C231.652 47.0785 231.638 47.1572 231.622 47.2459L231.618 46.8085ZM231.899 46.4823L231.999 46.3172C232.048 46.5594 232.006 46.6231 231.897 46.4922L231.899 46.4823ZM231.85 49.0631C231.832 48.8771 231.825 48.7439 231.807 48.6188L231.866 48.6292L231.98 49.015L231.85 49.0631ZM232.817 47.6089L232.867 47.6176C232.935 47.6906 232.997 47.3969 233.054 47.8232C232.995 47.8128 232.907 47.7364 232.886 48.0272L232.894 47.9779C232.874 48.0961 232.853 48.2143 232.832 48.3324L232.733 48.3151L232.723 47.6837L232.668 47.5927L232.694 47.445C232.708 47.3662 232.666 47.2573 232.652 47.1635L232.69 46.9468C232.729 47.0754 232.759 47.1924 232.794 47.3407C232.828 47.489 232.8 47.5348 232.816 47.6188L232.817 47.6089ZM232.779 45.4088C232.762 45.9326 232.775 46.4569 232.817 46.9792L232.723 46.7597C232.719 46.495 232.704 46.2384 232.699 45.9736C232.695 45.7089 232.695 45.5971 232.688 45.403C232.682 45.209 232.739 45.1174 232.694 44.9674L232.779 45.4088ZM232.665 44.9014C232.648 44.482 232.62 44.0608 232.6 43.6003C232.612 43.5518 232.621 43.5024 232.626 43.4526C232.706 43.9302 232.709 44.4175 232.636 44.8962L232.665 44.9014ZM232.549 42.0478L232.886 42.0362C232.87 42.1248 232.77 42.1781 232.316 42.1591L232.549 42.0478ZM231.979 41.2468L231.815 41.3702L231.741 41.1031C232.139 41.0921 231.857 41.1946 231.95 41.2416L231.979 41.2468ZM231.255 42.2461L230.794 42.2665L230.895 42.2132L231.313 42.2056C231.313 42.2056 231.247 42.2345 231.225 42.2409L231.255 42.2461ZM231.096 39.1719L231.322 39.1608C231.299 39.2889 231.326 39.4256 231.321 39.5669L231.41 39.5826L231.543 39.6874L231.313 39.728C231.311 39.7714 231.303 39.8145 231.29 39.856L231.256 40.053C231.271 39.9643 231.198 39.8601 231.166 39.7529L231.078 39.7373L230.932 39.6405L231.141 39.6063C231.106 39.4071 231.089 39.2721 231.074 39.1273L231.096 39.1719ZM204.621 39.7635L204.19 39.7891L204.07 39.6663L204.301 39.5649L205.198 39.6013L204.621 39.7635ZM206.385 39.6075L206.198 39.5745L205.873 39.5172L205.647 39.589L205.302 39.5283L205.626 39.4228L205.685 39.4332C205.848 39.3935 206.015 39.3719 206.184 39.3688C206.136 39.3507 206.086 39.3418 206.036 39.3428L205.419 38.6958L207.358 39.6166C206.992 40.0801 206.694 39.8142 206.385 39.6075ZM216.138 40.6772C216.619 40.7113 216.669 40.771 216.461 40.8562C216.357 40.832 216.252 40.8135 216.146 40.8006C215.826 40.7746 216.071 40.767 216.147 40.6789L216.138 40.6772ZM215.342 40.6385L215.81 40.518L215.131 40.8552C215.035 40.8746 214.938 40.888 214.84 40.8952L215.342 40.6385ZM213.806 40.3676L214.023 40.4058L214.141 40.3658L214.555 40.3779L214.488 40.4168L214.023 40.4058L213.782 40.4447C213.782 40.4447 213.795 40.4267 213.806 40.3676ZM213.725 40.2518C213.392 40.3847 213.035 40.4463 212.677 40.4327L212.94 40.2658L213.725 40.2518ZM213.241 37.9834C213.26 38.0436 213.284 38.1021 213.312 38.1583L212.586 38.3044L213.241 37.9834ZM211.125 40.6565L211.796 40.6529L211.875 40.6668L212.018 40.6007L212.225 40.6372L212.206 40.7455L211.808 40.7566L211.33 40.7636L210.928 40.7944L210.87 40.6623L211.125 40.6565ZM210.108 40.0912L210.553 40.0987C210.553 40.0987 210.565 40.0298 210.574 39.9805L211.01 39.9863L210.631 40.1734L210.217 40.1613L210.02 40.1266L210.108 40.0912ZM209.315 40.2663L209.65 40.2135L209.738 40.2292C209.605 40.3244 209.442 40.3679 209.28 40.3514C209.293 40.327 209.304 40.3019 209.314 40.2761L209.315 40.2663ZM207.804 41.4112L207.081 41.3649L207.881 41.2623L207.804 41.4112ZM207.492 39.0918L207.147 39.031L208.278 39.0679C208.018 39.1158 207.753 39.1239 207.492 39.0918ZM207.619 38.6573L208.161 38.9254L208.005 38.9996C207.741 38.9897 207.479 38.9435 207.227 38.8624L207.619 38.6573Z" fill="#3E0CC6"/>
<path d="M13.0703 109.45C13.092 109.5 13.1174 109.549 13.1462 109.595C13.1397 109.565 13.1453 109.533 13.1618 109.507L13.0703 109.45Z" fill="#3E0CC6"/>
<path d="M96.1028 48.2281L94.7519 48.3453C94.7137 48.5619 94.6859 48.7195 94.6686 48.818C94.987 48.7363 95.2944 48.6166 95.5844 48.4616C95.7519 48.3726 95.9251 48.2946 96.1028 48.2281Z" fill="#3E0CC6"/>
<path d="M58.95 53.5169L58.9673 53.4184L58.9082 53.408C58.9082 53.408 58.9355 53.4839 58.95 53.5169Z" fill="#3E0CC6"/>
<path d="M144.369 44.0053L144.174 44.0216L144.369 44.0053Z" fill="#3E0CC6"/>
<path d="M67.012 108.919C67.4365 107.938 67.7596 106.916 67.9761 105.87L67.7989 105.838L67.5226 106.368C67.2762 106.28 67.025 106.205 66.7701 106.144C66.6583 106.169 66.5439 106.18 66.4295 106.176C66.3428 106.641 66.307 107.115 66.3225 107.589L65.5145 108.37L65.9022 109.281L67.0573 109.18C67.0312 109.156 67.0289 109.054 67.012 108.919Z" fill="#3E0CC6"/>
<path d="M9.39114 58.7912C9.33311 58.8942 9.28053 59.0002 9.23362 59.1087L9.22147 59.1776L9.24231 59.0595L9.30139 59.0699L9.31529 58.9911L9.39114 58.7912Z" fill="#3E0CC6"/>
<path d="M65.0784 109.116L64.6509 109.467L65.6826 109.375L65.0784 109.116Z" fill="#3E0CC6"/>
<path d="M48.8858 72.4092L49.1255 75.1488L42.1521 75.7589L43.4377 90.4527L40.5736 90.7033L39.0484 73.2699L48.8858 72.4092ZM58.6574 76.5734L61.3471 76.3381L62.4366 88.7905L59.7469 89.0259L59.59 87.2327C58.7006 88.7326 57.3096 89.5653 55.4168 89.7309C53.7067 89.8805 52.1904 89.3774 50.868 88.2216C49.5441 87.0492 48.8023 85.5498 48.6425 83.7235C48.4812 81.8805 48.9514 80.2751 50.0531 78.9072C51.1547 77.5393 52.5606 76.7806 54.2707 76.631C56.1635 76.4654 57.6773 77.0356 58.8121 78.3417L58.6574 76.5734ZM52.7035 86.2542C53.516 86.936 54.4868 87.2275 55.6158 87.1287C56.7448 87.0299 57.6502 86.5743 58.332 85.7617C59.0123 84.9326 59.3024 83.9453 59.2021 82.7996C59.1019 81.654 58.6455 80.7403 57.833 80.0585C57.0191 79.3601 56.0476 79.0603 54.9185 79.1591C53.7895 79.2579 52.8848 79.7218 52.2045 80.551C51.5227 81.3635 51.232 82.3425 51.3322 83.4882C51.4324 84.6338 51.8895 85.5558 52.7035 86.2542ZM71.502 75.1234C73.2121 74.9738 74.7291 75.4852 76.053 76.6576C77.3754 77.8134 78.1166 79.3045 78.2763 81.1309C78.4376 82.9738 77.9674 84.5792 76.8657 85.9471C75.7641 87.315 74.3582 88.0738 72.6481 88.2234C70.7553 88.389 69.2415 87.8187 68.1067 86.5127L68.6972 93.2619L66.0075 93.4972L64.4822 76.0638L67.172 75.8285L67.3288 77.6216C68.2182 76.1218 69.6092 75.289 71.502 75.1234ZM69.088 84.8207C69.9005 85.5025 70.8713 85.794 72.0003 85.6952C73.1293 85.5964 74.0347 85.1408 74.7165 84.3283C75.3968 83.4992 75.6868 82.5118 75.5866 81.3662C75.4864 80.2206 75.03 79.3069 74.2175 78.6251C73.4035 77.9267 72.432 77.6269 71.303 77.7257C70.174 77.8244 69.2693 78.2884 68.589 79.1175C67.9072 79.93 67.6164 80.9091 67.7167 82.0547C67.8169 83.2003 68.274 84.1223 69.088 84.8207ZM90.0317 73.8285L92.7214 73.5932L93.8109 86.0456L91.1212 86.281L90.9643 84.4878C90.0749 85.9877 88.6839 86.8204 86.7911 86.986C85.081 87.1356 83.5647 86.6326 82.2423 85.4767C80.9184 84.3043 80.1765 82.8049 80.0168 80.9786C79.8555 79.1356 80.3257 77.5302 81.4274 76.1623C82.529 74.7944 83.9349 74.0357 85.645 73.8861C87.5378 73.7205 89.0516 74.2907 90.1864 75.5968L90.0317 73.8285ZM84.0778 83.5093C84.8903 84.1911 85.8611 84.4826 86.9901 84.3838C88.1191 84.285 89.0245 83.8294 89.7063 83.0169C90.3866 82.1877 90.6767 81.2004 90.5764 80.0547C90.4762 78.9091 90.0198 77.9954 89.2073 77.3136C88.3933 76.6153 87.4219 76.3155 86.2928 76.4142C85.1638 76.513 84.2591 76.977 83.5788 77.8061C82.897 78.6186 82.6063 79.5976 82.7065 80.7433C82.8067 81.8889 83.2638 82.8109 84.0778 83.5093ZM104.249 72.5846L106.939 72.3493L108.029 84.8017L105.339 85.0371L104.905 80.081L99.2021 80.58L99.6357 85.536L96.946 85.7714L95.8565 73.3189L98.5463 73.0836L98.9798 78.0397L104.683 77.5407L104.249 72.5846ZM119.574 71.2439L119.8 73.834L115.741 74.1892L116.604 84.0515L113.914 84.2868L113.051 74.4245L108.967 74.7819L108.74 72.1918L119.574 71.2439ZM130.409 70.2959L132.476 70.1151L133.566 82.5675L130.926 82.7985L130.233 74.8787L124.55 83.3563L122.483 83.5371L121.394 71.0847L124.034 70.8537L124.724 78.7486L130.409 70.2959ZM145.235 68.9988L146.325 81.4513L143.685 81.6822L143.319 77.4982L141.825 77.6289L139.028 82.0897L135.865 82.3664L138.839 77.6392C137.951 77.4325 137.21 76.9954 136.616 76.3279C136.039 75.659 135.712 74.8846 135.635 74.0046C135.535 72.859 135.857 71.8521 136.601 70.984C137.36 70.0978 138.387 69.598 139.682 69.4847L145.235 68.9988ZM140.352 75.4239L143.116 75.182L142.809 71.6705L140.045 71.9123C139.497 71.9603 139.054 72.1579 138.716 72.5053C138.379 72.8528 138.234 73.3004 138.282 73.8483C138.328 74.3796 138.548 74.787 138.941 75.0706C139.334 75.3541 139.804 75.4718 140.352 75.4239ZM157.494 62.9073L159.984 62.6894L161.509 80.1228L158.645 80.3734L157.388 66.0033L153.964 67.3067L153.053 64.927L157.494 62.9073ZM176.067 76.6909C175.016 78.4392 173.411 79.4078 171.252 79.5966C169.094 79.7855 167.337 79.1111 165.981 77.5734C164.642 76.0342 163.852 73.8949 163.613 71.1554C163.373 68.4158 163.779 66.1719 164.83 64.4236C165.899 62.6738 167.512 61.7045 169.67 61.5157C171.829 61.3269 173.578 62.002 174.917 63.5411C176.273 65.0788 177.071 67.2174 177.31 69.957C177.55 72.6965 177.136 74.9412 176.067 76.6909ZM171.008 76.8073C172.303 76.694 173.244 76.068 173.83 74.9292C174.417 73.7904 174.622 72.2165 174.446 70.2075C174.27 68.1986 173.795 66.6842 173.02 65.6646C172.245 64.6449 171.209 64.1917 169.914 64.305C168.636 64.4169 167.695 65.0429 167.092 66.1832C166.506 67.3219 166.301 68.8958 166.477 70.9048C166.652 72.9138 167.128 74.4281 167.903 75.4478C168.695 76.466 169.73 76.9191 171.008 76.8073ZM191.755 75.3185C190.703 77.0668 189.098 78.0353 186.939 78.2242C184.781 78.413 183.024 77.7386 181.668 76.2009C180.329 74.6618 179.539 72.5225 179.3 69.7829C179.06 67.0434 179.466 64.7995 180.518 63.0512C181.586 61.3014 183.199 60.3321 185.358 60.1433C187.516 59.9544 189.265 60.6296 190.604 62.1687C191.96 63.7064 192.758 65.845 192.997 68.5845C193.237 71.3241 192.823 73.5687 191.755 75.3185ZM186.695 75.4348C187.99 75.3215 188.931 74.6955 189.517 73.5567C190.104 72.418 190.309 70.8441 190.133 68.8351C189.958 66.8261 189.482 65.3118 188.707 64.2921C187.932 63.2725 186.897 62.8193 185.602 62.9326C184.323 63.0444 183.382 63.6705 182.78 64.8107C182.193 65.9495 181.988 67.5234 182.164 69.5323C182.339 71.5413 182.815 73.0557 183.59 74.0753C184.382 75.0935 185.417 75.5467 186.695 75.4348ZM201.529 65.6046C200.832 66.4352 199.902 66.9013 198.74 67.003C197.578 67.1047 196.573 66.8078 195.726 66.1123C194.877 65.4002 194.404 64.488 194.307 63.3755C194.21 62.2631 194.518 61.2909 195.231 60.4589C195.944 59.6103 196.881 59.1351 198.043 59.0334C199.205 58.9317 200.202 59.2294 201.032 59.9263C201.879 60.6218 202.352 61.534 202.451 62.663C202.548 63.7755 202.241 64.756 201.529 65.6046ZM198.523 64.8135C199.055 64.7671 199.471 64.555 199.773 64.1772C200.074 63.7995 200.203 63.3616 200.16 62.8635C200.115 62.3488 199.911 61.9316 199.548 61.612C199.186 61.2924 198.739 61.1558 198.208 61.2023C197.693 61.2474 197.285 61.4587 196.983 61.8365C196.682 62.2142 196.553 62.6604 196.598 63.1751C196.642 63.6732 196.845 64.082 197.208 64.4017C197.57 64.7213 198.009 64.8586 198.523 64.8135ZM196.757 74.4542L207.12 60.6735L208.533 61.3279L198.172 75.1335L196.757 74.4542ZM207.592 76.3922C206.43 76.4939 205.425 76.197 204.578 75.5015C203.729 74.7894 203.256 73.8772 203.159 72.7648C203.062 71.6524 203.37 70.6801 204.083 69.8481C204.796 68.9995 205.733 68.5243 206.895 68.4227C208.041 68.3224 209.038 68.6284 209.886 69.3404C210.733 70.0359 211.206 70.9399 211.303 72.0523C211.4 73.1647 211.093 74.1452 210.381 74.9938C209.667 75.8259 208.738 76.292 207.592 76.3922ZM207.375 74.2028C207.907 74.1563 208.323 73.9442 208.625 73.5665C208.926 73.1887 209.055 72.7508 209.012 72.2527C208.967 71.738 208.763 71.3209 208.4 71.0013C208.038 70.6816 207.591 70.5451 207.06 70.5916C206.545 70.6366 206.137 70.848 205.835 71.2257C205.534 71.6034 205.405 72.0496 205.45 72.5643C205.494 73.0624 205.697 73.4713 206.06 73.7909C206.422 74.1105 206.861 74.2478 207.375 74.2028Z" fill="#3E0CC6"/>
</g>
<defs>
<clipPath id="clip0_364_0">
<rect width="230.53" height="111.85" fill="white" transform="translate(19.4225) rotate(10)"/>
</clipPath>
</defs>
</svg>
