<svg width="99" height="106" fill="none" xmlns="http://www.w3.org/2000/svg">
    <path d="M95.694 0H26.397c-1.82 0-3.3 1.48-3.3 3.3v23.099h3.3v-23.1h13.2v6.6h-8.25c-.91 0-1.65.74-1.65 1.65V26.4h3.3v-13.2h6.6v3.3c0 1.82 1.48 3.3 3.3 3.3h36.298c1.82 0 3.3-1.48 3.3-3.3v-3.3h6.6v39.598h3.3V11.55c0-.91-.74-1.65-1.65-1.65h-8.25V3.3h13.199v98.996H26.397v-9.9h-3.3v11.55c0 .911.74 1.65 1.65 1.65h70.947c1.82 0 3.3-1.48 3.3-3.3V3.3c0-1.82-1.48-3.3-3.3-3.3Zm-16.5 16.5H42.898V3.3h36.298v13.2Z" fill="#0037A1"/>
    <path d="M92.394 56.097h-3.3v23.099H72.595c-.91 0-1.65.74-1.65 1.65v14.85H32.997v-3.3h-3.3v4.95c0 .91.74 1.649 1.65 1.649h41.248a1.716 1.716 0 0 0 .276-.023l.026-.005.031-.007c.015-.003.03-.005.043-.01.005-.001.009-.001.013-.003.045-.011.09-.023.134-.038l.005-.001a1.385 1.385 0 0 0 .272-.12l.004-.002.06-.037.025-.016c.014-.009.027-.017.04-.027l.02-.015.041-.03.038-.029.023-.018.06-.051 18.149-16.5c.028-.024.054-.05.079-.077l.021-.023c.022-.023.043-.048.063-.073l.011-.013c.024-.028.045-.058.065-.086.007-.008.011-.016.018-.026.017-.023.031-.048.046-.073.005-.008.01-.014.013-.023a.99.99 0 0 0 .05-.094l.013-.026a3.68 3.68 0 0 0 .035-.078l.011-.028.037-.102.005-.015c.01-.031.018-.063.026-.094.002-.008.003-.016.007-.025a1.64 1.64 0 0 0 .034-.22l.002-.026.005-.092V56.098h-.002ZM74.245 82.496h12.23l-8.011 7.284-4.219 3.835v-11.12ZM46.196 8.25h3.3v3.3h-3.3v-3.3ZM72.595 8.25h3.3v3.3h-3.3v-3.3ZM80.845 26.398H42.897c-.911 0-1.65.74-1.65 1.65v6.6h3.3v-4.95h34.648v23.1H54.446v3.299h26.399c.91 0 1.65-.74 1.65-1.65V28.048c0-.91-.74-1.65-1.65-1.65ZM52.796 62.697h18.15v3.3h-18.15v-3.3Z" fill="#0037A1"/>
    <path d="M74.245 62.697h9.9v3.3h-9.9v-3.3ZM47.846 72.596h18.15v3.3h-18.15v-3.3ZM69.295 72.596h14.85v3.3h-14.85v-3.3ZM39.597 82.496h28.048v3.3H39.597v-3.3ZM52.796 8.25h16.5v3.3h-16.5v-3.3Z" fill="#0037A1"/>
    <path d="M26.397 89.095c.349 0 .697-.108.99-.33l7.281-5.46a41.101 41.101 0 0 0 15.873-25.83l2.23-12.64a1.65 1.65 0 0 0-.848-1.743L27.174 29.893a1.648 1.648 0 0 0-1.552 0L.873 43.093a1.65 1.65 0 0 0-.848 1.742l2.213 12.55a41.131 41.131 0 0 0 15.667 25.68l7.496 5.695c.294.223.645.335.996.335ZM5.487 56.811l-2.005-11.37 22.915-12.223L49.313 45.44 47.29 56.9a37.817 37.817 0 0 1-14.602 23.764l-6.284 4.714-6.504-4.941A37.841 37.841 0 0 1 5.486 56.81Z" fill="#E93123"/>
    <path d="M32.725 77.124a30.584 30.584 0 0 0 11.808-19.217l1.637-9.27a1.65 1.65 0 0 0-.848-1.741l-8.253-4.402-1.553 2.912 7.197 3.84-1.428 8.089a27.299 27.299 0 0 1-10.538 17.152l-4.343 3.257-4.504-3.423a27.308 27.308 0 0 1-10.403-17.05l-1.417-8.028 7.195-3.837-1.553-2.912-8.25 4.4a1.65 1.65 0 0 0-.849 1.742l1.622 9.203a30.61 30.61 0 0 0 11.657 19.107l5.497 4.175a1.647 1.647 0 0 0 1.988.007l5.338-4.004Z" fill="#E93123"/>
    <path d="m26.396 40.541 5.826 3.107 1.552-2.912-6.603-3.52a1.648 1.648 0 0 0-1.552 0l-6.598 3.518 1.552 2.913 5.823-3.105ZM24.685 65.996h.063c.475 0 .927-.204 1.24-.562l11.55-13.2-2.483-2.172-10.21 11.668-3.727-4.973-2.64 1.98 4.95 6.6c.298.397.76.64 1.257.66ZM24.747 46.198h3.3v3.3h-3.3v-3.3ZM24.747 69.296h3.3v3.3h-3.3v-3.3Z" fill="#E93123"/>
</svg>
