<svg width="31" height="37" fill="none" xmlns="http://www.w3.org/2000/svg">
    <g clip-path="url(#a)" fill-rule="evenodd" clip-rule="evenodd">
        <path d="M.032.06h30.922v28.753l-.015.299-.014.298-.028.298-.042.299-.057.284-.07.27-.085.284-.1.255-.098.27-.127.242-.128.256-.141.227-.155.227-.184.227-.184.2-.183.198-.213.185-.226.184-.226.157-.254.17-.255.128-.254.142-.282.114-.283.114-.297.085-.311.085-.31.085-.326.057-.339.043-.353.028-.354.014-.367.014h-3.745l-.226.015h-.226l-.227.028-.211.014-.212.029-.198.028-.198.043-.198.042-.184.043-.184.043-.183.056-.184.057-.17.057-.155.057-.17.07-.155.072-.155.07-.156.072-.141.085-.142.086-.141.085-.141.085-.142.085-.127.1-.127.1-.127.099-.113.099-.128.1-.113.099-.127.113-.494.498-.495-.498-.127-.113-.113-.1-.127-.1-.114-.099-.127-.099-.127-.1-.141-.099-.127-.085-.142-.085-.141-.085-.141-.086-.142-.085-.155-.071-.156-.071-.155-.071-.17-.071-.17-.057-.169-.057-.17-.057-.183-.056-.184-.043-.184-.043-.197-.042-.198-.043-.212-.028-.198-.029-.212-.014-.226-.028h-.226l-.24-.015H6.291l-.367-.014-.353-.014-.354-.028-.339-.043-.325-.057-.31-.085-.312-.085-.296-.085-.283-.114-.283-.114-.268-.142-.255-.128-.24-.17-.226-.157-.226-.184-.198-.185-.198-.199-.184-.199-.17-.227-.169-.227-.141-.227-.127-.256-.127-.242-.113-.27-.085-.255-.085-.284-.07-.27-.057-.285-.043-.298-.028-.298-.014-.298-.014-.299V.06Z" fill="#fff"/>
        <path d="M.413.43h30.173v28.383l-.014.284-.014.284-.029.285-.042.27-.056.27-.071.27-.07.24-.085.257-.1.241-.113.242-.127.213-.127.227-.155.213-.156.199-.17.185-.183.184-.184.17-.212.171-.212.157-.226.142-.24.127-.24.128-.255.114-.283.1-.268.085-.297.085-.297.07-.325.043-.31.057-.34.029-.339.014-.353.014h-3.745l-.24.014h-.24l-.227.029-.226.014-.212.028-.212.043-.212.028-.198.043-.198.043-.198.056-.197.057-.184.057-.17.057-.183.07-.17.072-.17.071-.155.085-.17.071-.155.085-.141.086-.156.085-.141.1-.142.099-.14.1-.142.099-.127.1-.128.113-.127.114-.127.099-.113.114-.254.241-.24-.241-.128-.114-.127-.1-.127-.113-.127-.114-.128-.1-.141-.099-.141-.1-.141-.099-.142-.099-.141-.085-.156-.086-.17-.085-.155-.07-.155-.086-.17-.071-.17-.071-.183-.071-.17-.057-.198-.057-.183-.057-.184-.056-.198-.043-.212-.043-.212-.028-.212-.043-.212-.028-.226-.014-.226-.029h-.24l-.24-.014H6.292l-.354-.014-.34-.014-.338-.029-.325-.056-.311-.043-.297-.071-.297-.085-.282-.086-.255-.1-.268-.113-.255-.128-.226-.128-.226-.142-.212-.156-.212-.17-.184-.17-.183-.185-.17-.185-.155-.199-.156-.213-.127-.227-.127-.213-.113-.242-.1-.241-.084-.256-.085-.242-.056-.27-.057-.27-.042-.27-.029-.284-.014-.284V.43Z" fill="#161413"/>
        <path d="M.583.614h29.805v28.2c0 3.04-1.936 5.184-5.695 5.184h-3.505c-2.7 0-4.423.938-5.695 2.202-1.272-1.264-3.01-2.202-5.696-2.202H6.292c-3.759 0-5.71-2.145-5.71-5.185V.614Z" fill="#A8002C"/>
        <path d="M7.084 26.057c.226-.852.749-1.292 1.611-1.434.834-.143 1.752-.611 2.756-1.08.424-.313.48-.17.17.44l-.481.554c-.255.284-.311.583.042.867.48.241.679.469.608.667-.523-.142-1.003-.07-1.413.313-.297-.085-.65-.043-1.145.199-.254-.142-.537-.156-.876-.057-.085-.213-.325-.27-.735-.199-.113-.128-.297-.213-.537-.27Zm5.78 0c-.509-.525-.565-.994.014-1.392.325-.227.806-.753 1.4-1.548.395-.029.748-.114 1.144-.17 1.583-.2 3.08-.54 4.282-1.208.226-.071.396-.029.495.142l.932 1.236-.268.1.707.539c-.128.1-.043.17.113.227-.085.128-.029.256.099.242.056.17.183.426-.184.07-.226-.113-.255 0-.07.356l.38.554c.03.256.128.469.326.653l.31.64c0 .1.057.198.086.284.042.241.098.37.296.398-.198.383-.452.738-.876.965-.834.455-1.498.27-1.427-.838.042-.596.155-1.093.17-1.704.24-.952.013-1.435-.806-1.492-.424.014-.75.014-.99.185-.226.156-.55.1-.989-.157-.848-.639-1.484-.98-1.908-.98.41.47.523.938.198 1.407.34.156.325.312-.014.468-.82.029-1.738-.142-2.7-.412-.31-.056-.367 0-.155.17.707.285 1.088.711 1.088 1.308-.452.014-.833.042-1.045.085-.198.128-.41.114-.608-.128Zm8.013 4.589c-.24.128-.297.27-.07.412.155.1.24.113.268.042.283-.056-.113-.213-.198-.454Zm-7.391-.625c-.156.113-.226.241-.141.412l.31.27c.128-.114.1-.284-.042-.398-.07-.057-.113-.156-.127-.284Zm-3.618-1.492c.226.1.226.313-.057.44-.212-.085-.197-.27.057-.44ZM5.74 20.091c1.018 1.179 1.202 2.514.368 4.063-.311.753-.269 1.236.141 1.463.113-.256.212-.654.269-1.066.084-.639.494-.568 1.031-1.122.58-.596.41-1.222.354-2.216-.1-2.13.339-3.367.96-4.063-1.582-.44-2.543.739-3.123 2.94ZM6.745 2.46c-.184.028-.255.156-.226.37l1.257 1.79c.043.085.128.17.113.24-.099.242-.14.399.071.612l.424.412c.043.298.099.54.198.625-.099.199.028.383.198.568.042.057.056.128.127.185l.07.61c-.593.498-.89.867-.946 1.094-.029.128-.057.228.028.299l.834-.085c.07.042.155.056.184.113.127.298-.043.767-.495.824-1.032.256-1.78.611-1.484 1.307.382.497.184.938-.466 1.335a.623.623 0 0 0-.198.569c-.184.156-.325.397-.452.667-.1.284-.1.412.098.384 1.442-.483 2.855-.682 3.859.156.494.412.41.625 1.187.668-.085.327 0 .511.282.568l.043.37c-.311.07-.664.07-.975.156-.354.085-.693.227-1.004.227-.268-.213-.58-.34-.834-.497-1.3-.81-2.388-.853-3.335.256-.494.582-.947 1.378-1.314 2.6-.07.212-.24.297-.58.099-.678-.554-.805-1.052-.466-1.378.48-.455.664-.185.41.056l.014.057c.367 0 .509.256.65.526.311-.81.141-1.364-.297-1.804l-.099-.015.043.697c-.75-.157-1.159.426-1.216.966-.042.525.198.994.877 1.392.381.128.494.568.198 1.008-.735 1.08-.622 2.23.042 3.708l.085-.042c.141-1.62.48-2.444 1.017-2.6a.981.981 0 0 0 .467-.355c.155-.242.24-.213.353.042.297.682.268 1.336-.141 1.99-.933 1.52-.976 2.684.353 3.608l.042.113-.353.455c-.113.184-.028.412.283.668.226.27.339.71.41 1.264-.114.17-.128.383-.057.625.198.284.678.44 1.357.37.07-.015.056-.072.056-.143.057-.312-.155-.54-.381-.923-.665-.597-.806-1.165-.594-1.72l.099-.155c.523.184 1.187.397 1.795.483-.255.525-.226 1.179 0 1.562.424.739.876 1.08 1.738 1.009 1.145-.1 1.71-1.051 1.286-2.344.41-.227.678-.213.82.042-.014.583.24.398.254.967-.678.596-.933 1.108-.198 1.434.382.384.17.526-.325.554-.523-.128-.904-.099-.975.327-.48.029-.622.313-.607.767.14-.34.41-.37.55-.284.255-.014.524.057.75-.043.212-.099.452-.099.72.015.142 0 .24.056.311.17.34.355.297-.042 1.046.412.184.014.495 0 .551.299l.07-.27c.057-.1.03-.214-.084-.313-.24-.284.141-.298.806-.17.353.156.678.227.932.184.297-.298.368-.113.424.284.212-.582.071-.895-.508-.923.099-.313.141.156.353-.227.184-.086.367 0 .551.184.042-.284-.127-.454-.495-.54-.084-.241-.268-.255-.522-.014-1.075-.284-1.188-.937-.58-1.065.325-.085.452.256.707.355.198.071.296.043.565.071.297.014.565.071.75.199l.211.07c.113-.084.226-.07.367.058.156.227.311.255.453.07.424-.34 1.06-.34 1.017-.127-.014.313.043.426.156.398.099.014.141.142.141.37-.41-.015-.692.056-.692.354-.382.114-.368.384-.198.739-.043-.682.537-.128 1.102-.497l.396-.043c.042.199.226.284.58.27.126-.057.324-.057.451-.085.693-.185 1.244-.142 1.654.426a.507.507 0 0 0-.043-.526c.481-.326 1.004-.198.693.327.283-.142.565-.866.198-.852.155-.426.791-.071.608.241.268-.142.31-.355-.015-.625-.042-.241-.24-.312-.593-.213-.198-.34-.452-.355-.792-.057-.339.157-.607.17-.777-.057-.184-.298-.141-.44.113-.34.127.042.184-.114.34-.413.056-.127.169-.227.254-.397.367-.057.664-.384 1.046-1.037.268-.128.395-.654.41-1.478.113.057.254.014.438-.1-.128-.013-.184-.056-.184-.383h.353c.141-.056.198-.113.184-.184 0-.057-.142-.043-.24-.2-.043-.198-.156-.397-.368-.596l-.339-.554c-.24-.767-.523-1.208-.876-.923l-.1-.057c-.268-.299-.466-.696-.621-1.137.014-.54-.551-.568-.848-.056l-.085-.427-.141.228-.89-1.293c.098-.014.268-.114.367-.128 1.088-.085 2.176-.412 3.293-1.037l.791-.241c.354-.143.467-.029.65.156l.806.838c.155.17.155.327.07.497-.084.17.114.398.396.64.255.284.283.667.057 1.15-.127.313-.1.512.085.611l.55.398c.368.298.552.199.538-.327a1.971 1.971 0 0 0-.269-.796c-.183-.326-.31-.639-.325-.966-.014-.653-.099-.994-.367-1.221-.311-.299-.58-.64-.792-1.009-.07-.213-.127-.34-.24-.398-.028-.682-.523-1.023-.834-.838a2.187 2.187 0 0 1-.805.043v-.156c.353-.2.96-.825 1.569-1.506.226-.284.339-.17.565.056l.876.924c-.028.454.043.753.353.724.212.37.311.725.113.881-.198.17-.353.284-.353.526.043.355.452.724.905.895.042.014.113-.015.14-.071a1.49 1.49 0 0 0 .015-1.051l-.155-.526c-.029-.213 0-.384.014-.54.042-.412.056-.64-.382-.952a10.608 10.608 0 0 1-1.399-1.761c.014-.81-.678-1.023-1.116-.142l-.848.596c-.212.142-.354-.085-.354-.312-.084-1.066-.805-1.918-1.597-2.742-.424-1.293-1.003-2.372-1.215-3.367.806.085 1.413.242 1.653.483.354.384.806.583.919.313.042-.085-.212-.242-.34-.37.142 0 .326.128.524.327.353 0 .466-.27.367-.64.043-.297.028-.525-.099-.624l-.296-.17a9.17 9.17 0 0 1-1.244-1.677.344.344 0 0 1-.057-.185c0-.241-.07-.454-.31-.667l.112-.057-.014-.085.255.056-.255-.426c-.141-.525-.621-.61-1.342-.398-.1.029-.226-.085-.354-.227-.452-.44-.932-.682-.763-.355.029.057.17.213.014.199l-.777-.128c-.17-.028-.198.028-.155.114.141.156.282.298.339.468l-.99.057c-.197.014-.367.1-.55.086-.538-.455-1.202-.114-1.894.411l-.1-.042-.013-.81h.084l-.07-.526h.056c.057-.795-.099-1.306-.395-1.662-.057-.241.183-.213.24-.284.226-.284.212-.61.212-.781-.043-.341-.156-.455-.325-.341h-.198c-.212-.028-.382-.1-.466-.199-.227-.156-.439-.156-.65-.014-1.018.256-1.202 1.051-2.446.511-.14-.014-.169.043-.112.157.211.284.508.468.833.61-.113.086-.339.1-.706.071.212.285.621.427 1.257.412.24.142.523.086.834-.042.17-.1.184-.043.07.184-.324.27-.55.796-.593 1.748a1.73 1.73 0 0 0-.24.653c-.466-.128-.876-.213-1.046-.07l-.183-.015c-.41-.312-.806-.298-1.131-.085l-.72.554c-.27.185-.495.199-.538-.029l-.297-.639c.015-.454-.155-.667-.466-.696a.803.803 0 0 1-.268-.454l-.212-.27c.07-.242-.029-.327-.198-.327-.184 0-.354-.029-.453-.1l-1.47-1.818Z" fill="#161413"/>
        <path d="m27.138 23.5.141-.298c.07-.1.127-.1.17-.014l.339.312c-.07.071-.226.071-.34.1l.114.184-.113.057-.043.156c-.212-.17-.339-.326-.268-.497Zm.296-1.023c.043 0 .085.128.085.27 0 .142-.042.27-.084.27-.057 0-.085-.128-.085-.27 0-.142.028-.27.084-.27Zm-.197-1.15c.028-.029.099.028.14.1.058.084.072.17.043.184-.028.014-.099-.029-.141-.114-.057-.085-.07-.156-.042-.17ZM28.141 19.934c-.042-.042-.085-.028-.127.015-.155.184-.184.326-.099.454l.311.242c.099.085.212.042.155-.043l-.113-.156c.071.028.128.1.198.1.057 0 .07-.086 0-.143-.113-.113-.141-.156-.07-.227.028-.028.028-.057-.015-.085l-.24-.157Zm0-1.32c-.141-.171-.113-.27.07-.256-.169-.27.015-.327.185-.043.084.128.098.384.07.682-.014.085-.113.113-.141 0a1.382 1.382 0 0 0-.184-.384Zm.113 1.122.07-.327c.015-.085.043-.071.086 0 .113.142.212.284.24.525.028.1.014.157-.057.171-.084.014-.155-.029-.226-.1-.099-.113-.127-.184-.113-.27ZM23.251 16.099c.014-.597.085-1.08.085-1.52 0-.185.127-.185.127.028.029.469-.028.952-.085 1.45 0 .07-.127.198-.127.042Zm.82 2.372c.028 0 .042.029.042.057 0 .029-.014.057-.042.057-.028 0-.042-.029-.042-.057s.014-.057.042-.057Zm-1.4-2.102.057-.043c.014-.014.043-.014.057.014l.212.27a.043.043 0 0 1 0 .057l-.057.043c-.014.014-.042.014-.056-.015l-.226-.27c-.014-.014-.014-.042.014-.056Zm2.036 1.52.085-.554-.1.199c-.084 0-.098-.085-.112-.256-.014-.199 0-.27.113-.227l.07.184.057-.128c.099-.056.113 0 .07.17l-.028.612c-.056.085-.098.241-.155 0Zm1.498-1.747c-.085-.114-.099-.256 0-.356a.224.224 0 0 1 .31-.042c.086.042.114.1.114.142l-.17.057.212.056c.113.1.015.284-.084.128-.085-.085-.184-.1-.283-.042 0 .127-.028.156-.099.056Zm-2.05.994c.03-.014.086.043.128.114.028.07.042.142 0 .156-.028.028-.085-.029-.113-.1-.043-.07-.043-.156-.014-.17Zm-1.3-.114c.029-.014.085.029.128.1.042.085.042.156.014.17-.028.014-.085-.028-.127-.114-.043-.07-.043-.142-.014-.156Zm.382-.696c.1-.014.226.1.255.256.042.17-.029.312-.128.34-.113.015-.226-.084-.268-.255-.028-.17.028-.313.141-.34Zm.184.938c-.057-.27.028-.313.127-.057.156.37.24.838.226 1.406 0 .213-.17.228-.184.029-.056-.497-.07-.966-.17-1.378Zm1.64.44c.013-.27.07-.554.169-.824.042-.128.099-.142.17-.07.254-.413.197-.185.084.127l.07.043c.312-.583.185-.114.156.142-.226.284-.381.34-.452.142l-.07.369c-.057.17-.1.199-.128.071ZM5.84 27.591c-.099.384-.523.185-.31-.156.522-.852 1.031-1.704 1.13-2.855.028-.412.283-.597.608-.781.692-.384.932-1.037.918-1.776-.155-3.21.735-4.617 2.106-5.171l-.043.128c-1.229.753-1.738 2.201-1.752 4.176-.014.44-.056.895 0 1.378l.042-.1c.043-1.164.043-2.159.184-2.84.156-.753.396-1.208.636-1.535.085-.113.156-.256.24-.34.113-.114.24-.143.34-.242l-.015.1a3.822 3.822 0 0 0-1.045 1.846c-.198.895-.212 1.932-.142 3.012a1.096 1.096 0 0 1-.099.398l.057-.029c.085-.17.127-.37.127-.61-.099-1.308 0-2.629.466-3.552.326-.64.523-.881 1.428-1.392l-.028.099c-.764.526-1.484 1.136-1.626 3.21l.043-.042c.141-1.577.706-2.742 1.752-3.168.368-.156.806-.128 1.286-.128l-.085.071c-.734-.07-1.37.185-1.921.767l.084.029c.523-.54 1.13-.838 1.894-.668l-.056.114c-.537-.085-.99.113-1.414.44v.057c.48-.327.919-.483 1.343-.398.141.014.184.128.141.298l-.085.782c-.014.753-.056 1.491-.24 2.16l-.07.056.07-1.307-.297 1.62c-.028.184-.155.156-.127-.015.07-.34.184-.81.254-1.307-.07.014-.127.057-.14.156-.086.697-.199 1.265-.354 1.464.099-.44.155-.881.17-1.321l-.085.07-.212 1.236c.155.086-.043.214-.1.057l.071-.681-.056-.015-.297 1.094.099-.753-.254.753h-.1l.128-.64-.424 1.166c-.127.028-.141-.014-.043-.213l.27-.796-.086.014c-.17.583-.297.995-.509 1.123l-.07.014c.297-.526.339-.782.353-1.037-.155.497-.31.852-.593 1.15-.043-.042.014-.17.183-.483l.156-.412c-.07-.085-.113-.056-.156.072-.099.355-.198.596-.381.824l.183-.697-.028-.085c-.127.412-.297.767-.537.98l.113.057c.382-.255.905-.17 1.442-.412.113-.057.226-.085.296-.028l-.098.27-.1-.157c-.056.213-.14.412-.254.498l-.042-.313c-.226.497-.382.767-.396.526l.043-.299c-.17.17-.283.37-.326.611-.084-.014-.098-.184-.07-.426l-.142.526c-.127.028-.155-.114-.084-.426-.113.284-.212.482-.255.511-.056-.085-.07-.227-.028-.412l-.141.27c0 .199-.057.27-.142.256.043-.299.043-.412-.014-.341l-.17.454c-.098.057-.126-.057-.112-.312-.156.085-.113.398-.226.525-.085-.056-.1-.199-.085-.355-.071.242-.142.384-.24.398l-.029-.469a1.633 1.633 0 0 1-.184.526l-.127-.341-.056.327c-.1.056-.184-.029-.24-.242-.015.44-.057.81-.34.995.029.113-.099.412-.268.753l.452-.668c.099-.029.141.028.099.241l-.466.767c-.071.086-.156.057-.24 0-.1.384-.27.654-.439.91.198-.128.325-.398.48-.768.029-.113.156.029.114.256l-.113.1.014.17-.141.014v.228l-.128.056c.128.313-.028.512-.339.355ZM8.497 16.894l.551-.1-.028.115-.523-.015ZM3.353 21.227c.07-.27.254-.426.438-.753.113-.184.155-.056.141.114-.24.355-.424.54-.58.64Z" fill="#fff"/>
        <path d="M9.133 16.639c-.904-.81-1.795-1.236-2.459-1.094-1.258.284-1.865 1.449-2.233 2.557.212-.37.396-.611.622-.682-.622.994-.975 2.003-1.032 3.168a.774.774 0 0 1-.226.37c-.396.298-.367.54-.438.78.085-.056.184-.24.311-.397.17-.213.367-.44.452-.81.127-.497.184-.994.283-1.364.141-.483.283-.81.537-1.236.452-.753 1.032-1.434 1.696-1.719v.057c-.65.356-1.117.895-1.64 1.733a4.198 4.198 0 0 0-.325.71c-.113.27-.226.583-.254.938-.085.768-.269 1.265-.48 1.563-.227.298-.368.426-.41.568-.029.071-.085.2-.071.341.495-.937.72-.852.933-1.52.297-1.023.099-2.074 1.455-3.566h.1c-.65.753-1.089 1.464-1.315 2.984-.042.255-.085.61-.198.824-.17.326-.523.582-.622.909l.071-.014c.17-.17.509-.569.636-.839.41-.795.268-1.86.791-2.713.679-1.122 1.202-1.705 2.035-2.031l.1-.014c-1.145.61-1.343 1.05-1.838 1.733-.17.227-.297.454-.438.88-.127.37-.212.938-.283 1.378-.084.569-.296.91-.523 1.194-.127.156-.226.227-.325.369-.084.128-.17.37-.212.54l.071-.029c.311-.838.495-.653.72-.937.128-.17.326-.512.382-.91.085-.823.255-1.448.537-1.988.297-.597.764-1.25 1.287-1.69.24-.2.423-.313.749-.413h.07c-.381.256-.636.327-.933.611-.48.455-.946 1.137-1.173 1.72-.24.553-.367 1.164-.438 1.789.014-.085.057.043.085-.028.255-1.478.777-2.515 1.442-3.183.367-.383.805-.667 1.215-.767l.269-.014c-.622.17-1.216.469-1.668 1.165l.085-.014c.55-.597 1.102-.867 1.64-.994l.084.014c-.368.127-.707.27-.919.468l.029.086c.41-.27 1.031-.412 1.766-.483ZM3.48 22.847a.678.678 0 0 1-.099-.355c.014-.171.141-.157.17-.043.028.213-.071.227-.071.398ZM5.12 24.367l.14-.157c.071-.042.156-.056.213-.028-.014.071-.17.142-.354.185ZM4.992 24.807l.184-.199c.099-.07.212-.085.297-.042-.029.085-.226.184-.48.241ZM5.006 25.034l.212-.184c.1-.057.227-.071.311-.014-.028.07-.268.156-.523.198ZM5.063 25.233l.198-.17a.316.316 0 0 1 .297-.014c-.043.085-.255.156-.495.184ZM5.162 25.446l.127-.142c.07-.042.155-.056.212-.028-.014.057-.17.128-.34.17ZM5.883 23.174l.113-.072c.056-.028.127-.014.155.015-.014.042-.141.056-.268.056ZM5.699 23.415l.24-.114c.113-.014.226 0 .283.071-.057.071-.269.085-.523.043ZM5.84 22.832l.184-.142a.269.269 0 0 1 .254 0c-.042.072-.226.114-.438.142ZM5.981 22.492l.184-.043c.085 0 .17.043.198.1-.042.042-.212.014-.382-.057ZM5.586 26.313l.127-.071a.265.265 0 0 1 .155.014c-.014.043-.14.071-.282.057ZM5.982 25.873l-.311.042c-.128.057-.226.17-.24.27.098.029.324-.114.55-.312ZM5.84 25.73H5.6c-.113.029-.198.1-.212.185.07.029.268-.057.452-.184ZM6.942 26.895l.142-.298c.07-.1.198-.156.31-.156 0 .1-.197.298-.452.454ZM7.578 26.597l.255-.1c.127 0 .24.043.297.114h-.014c-.015.085-.184.242-.396.355l.127-.241a.616.616 0 0 1 .099-.085H7.86c-.056.07-.17.156-.297.241l.1-.199c.013-.028.042-.042.056-.056-.043-.015-.085-.015-.142-.029ZM8.808 26.64c.085-.043.381.028.34.128-.015.085-.199.241-.397.383l.113-.256c.029-.042.057-.056.085-.085H8.85a1.297 1.297 0 0 1-.282.242l.084-.213c.015-.015.043-.029.057-.043-.028 0-.057-.014-.07-.014-.043.057-.128.113-.213.17l.057-.142c.099-.128.17-.113.325-.17ZM10.631 26.597c0-.241.184-.384.537-.426.41-.057.905.028.763.213h-.042l-.07.17-.156.285.099-.313.042-.156c-.042-.014-.113-.043-.184-.057l-.127.128-.212.241.17-.284.07-.113c-.028 0-.056-.015-.084-.015l-.128.128-.212.242.17-.27.07-.114h-.112l-.085.128-.198.256.141-.299.043-.07a2.325 2.325 0 0 0-.156.042l-.099.242.043-.228c-.127.057-.24.128-.283.27ZM9.303 26.796v-.028h.028l.353-.228c.24-.113.537-.156.495.043 0 .014-.028.043-.085.057 0 .07.014.156.014.241l-.099-.213h-.056c0 .114 0 .227.014.341l-.142-.313c-.028.015-.042.015-.07.015.014.156.014.327.014.497l-.198-.412v-.028c-.028.085-.042.184-.07.27l-.043-.285c-.042.114-.099.256-.141.398l-.014-.298v-.071.014Z" fill="#fff"/>
        <path d="m5.26 17.193.608-.611c-.24.1-.452.298-.607.61ZM8.596 28.302c-.057-.142-.127-.27 0-.597.113-.298.254-.383.34-.37.098.114-.03.342.027.626l-.226-.199.07.383-.169-.184-.042.34ZM10.603 28.671c-.029-.057-.071-.085-.085-.085-.028.014 0 .07.028.128.043.057.085.085.1.085.013-.014 0-.071-.043-.128ZM10.603 28.927c-.057-.085-.113-.128-.142-.114-.028.014 0 .085.057.17.057.086.113.129.141.114.014-.014 0-.085-.056-.17ZM10.476 29.168c-.043-.07-.085-.113-.1-.113-.027.014-.013.085.015.156.042.057.085.114.099.1.028 0 .014-.072-.014-.143ZM10.348 29.41c-.028-.114-.099-.199-.127-.185-.028.014-.028.114.014.227.029.1.085.185.114.185.042-.014.042-.113 0-.227ZM8.695 29.31c.085.015.141.043.141.072-.014.014-.085.028-.155.014-.07-.015-.142-.043-.127-.057 0-.028.07-.043.14-.028ZM8.624 29.126c.1.014.17.057.17.085 0 .028-.085.043-.184.028-.099-.028-.17-.056-.17-.085 0-.028.085-.042.184-.028ZM8.582 28.898c.113.029.198.072.198.1-.014.043-.113.057-.226.028-.113-.014-.212-.056-.198-.1 0-.027.099-.042.226-.027ZM12.256 26.483c-.084-.284.226-.383.551-.241.255.1.566.142.976.057.197-.043.41-.043.621-.014.212.113.198.213-.042.255-.452.426-.791.867-.848 1.293-.155-.213.17-.753.679-1.42-.311.24-.594.553-.863.909.057-.228.24-.54.495-.881-.551.412-.933 1.023-.876 2.16-.212-.683-.07-1.336.367-1.976l-.607.64.55-.853-.338.114.028-.128-.212.1v-.142l-.283.227.057-.242c-.1-.056-.17.029-.255.142ZM12.51 28.089a.735.735 0 0 0 .128.568c.042.043.099-.014.07-.114-.098-.085-.155-.255-.197-.454Z" fill="#fff"/>
        <path d="M13.217 28.174c.029 0 .057.071.057.17 0 .1-.028.185-.057.185-.028 0-.056-.085-.056-.185 0-.099.028-.17.056-.17ZM13.867 27.45c.014.014.014.085-.014.156-.042.085-.085.142-.113.128-.028 0-.014-.086.014-.157.043-.085.085-.142.113-.128ZM14.023 27.108c.028.029 0 .086-.043.143-.042.07-.098.113-.113.099-.014-.014 0-.085.043-.142.042-.071.099-.1.113-.1ZM19.323 27.663c.24.085.268.426.14.838a1.858 1.858 0 0 0-.14-.838ZM18.093 29.41a.67.67 0 0 0-.085-.213l.043.256.042-.043ZM15.323 25.12c.028 0 .07 0 .113.014l.113.185a.409.409 0 0 1-.127-.029l-.099-.17ZM15.097 26.356c.028.014.07.085.085.156.014.07 0 .113-.029.1-.028-.015-.07-.072-.084-.143-.014-.07 0-.113.028-.113ZM15.309 26.341c.014-.014.056.043.07.114.029.071.043.128.029.142-.028 0-.057-.043-.085-.114-.028-.085-.042-.142-.014-.142ZM15.563 26.299c.029 0 .085.085.1.184.013.086.027.128-.043.128-.057.014-.043-.028-.057-.128-.014-.085-.014-.184 0-.184ZM15.804 26.213c.014 0 .07.072.113.185.028.1.042.2.014.2-.028.013-.07-.058-.113-.171-.028-.114-.043-.2-.014-.213ZM16.058 26.213c.042-.014.085.086.113.2.028.127.014.227-.014.24-.028 0-.085-.098-.099-.212-.028-.128-.028-.227 0-.227ZM16.34 26.256c.029-.014.114.128.128.242.028.113.042.17-.043.184-.099.015-.07-.042-.099-.17-.014-.114-.014-.256.015-.256ZM16.524 26.2c.043-.015.085.085.127.212.029.128.029.242 0 .242-.028.014-.084-.085-.113-.213-.028-.128-.042-.242-.014-.242ZM16.821 26.128c.028 0 .07.128.07.284 0 .157-.028.285-.07.285-.028 0-.07-.128-.07-.285 0-.156.028-.284.07-.284ZM17.061 26.213c.029 0 .057.114.057.242 0 .142-.028.242-.057.242-.042 0-.056-.1-.056-.242 0-.128.014-.241.056-.241ZM17.302 26.142c.028 0 .056.128.056.285 0 .156-.028.284-.056.284-.029 0-.057-.128-.057-.284 0-.157.028-.285.056-.285ZM17.556 26.071c.042.015.056.142.042.327-.028.157-.056.299-.099.299-.028 0-.042-.142-.028-.313.014-.17.043-.313.085-.313ZM17.895 26.057c.043 0 .043.142.014.313-.028.17-.07.298-.113.298-.028 0-.042-.142-.014-.312.028-.17.085-.299.113-.299ZM18.164 25.901c.042 0 .113.213.084.412-.042.213-.099.384-.14.37-.043-.015-.015-.185.013-.384.029-.213.015-.412.043-.398ZM16.722 27.506c.014-.014.043.043.07.1a.431.431 0 0 1 .03.142c-.015.014-.057-.043-.072-.1-.028-.07-.042-.142-.028-.142ZM16.92 27.435c.028 0 .07.071.099.157.028.085.028.127-.014.142-.057.028-.043-.029-.07-.114-.03-.071-.03-.17-.015-.185ZM18.828 26.839v.099l.127-.085a3.92 3.92 0 0 0 .014-.696 6.341 6.341 0 0 1-.141.682Z" fill="#fff"/>
        <path d="M18.686 27.151c-.07.37-.084.483-.226.611.057-.227.029-.398.029-.44-.043.014-.071.028-.1.028v.043a.727.727 0 0 1-.155.554c-.014-.2.07-.384.07-.583-.041.014-.07.029-.112.043v.199a1.496 1.496 0 0 1-.113.312c.014 0 .07-.412.028-.497-.028.014-.07.014-.099.029v.056c-.014.043-.014.085-.042.085-.014 0-.029-.028-.029-.07-.014-.015-.014-.043-.028-.057-.014 0-.042 0-.07.014v.014c.014.043.014.071 0 .085-.015 0-.043-.042-.071-.085-.028 0-.057.014-.07.014.013.071.013.1-.043.128-.07.029-.07-.043-.085-.114-.042.015-.085.015-.127.029.014.057 0 .1-.014.1-.014.014-.043-.03-.07-.086h-.114c.014.057.014.085 0 .1-.014 0-.042-.029-.07-.086l-.015.014c0-.014 0-.014.014-.014-.014-.014-.014-.042-.028-.07-.042-.086-.056-.171-.042-.186.028-.014.07.043.113.143a.264.264 0 0 1 .028.1.26.26 0 0 1 .099-.03c0-.028 0-.042-.014-.056-.028-.114-.028-.213 0-.227.028-.015.07.07.099.184 0 .015.014.043.014.071.042-.014.07-.028.113-.042-.014-.071-.014-.1-.014-.142 0-.057 0-.086.014-.086.014-.014.085.085.113.2.028-.015.042-.015.07-.03-.014-.013-.014-.013-.014-.028-.028-.085-.028-.113-.028-.17-.014-.043-.014-.057 0-.071.014-.014.085.1.113.199 0 .014 0 .028.014.042.029-.014.043-.014.071-.028v-.227c0-.057.014-.085.028-.085.015 0 .029.028.043.07.014.057.028.128.042.2a.2.2 0 0 0 .085-.029v-.114c.014-.042.014-.07.028-.07.014-.015.043.07.057.141.042-.014.07-.028.113-.042v-.156c0-.043.014-.086.028-.086.014-.014.028.014.028.057a.42.42 0 0 1 .029.142c.028-.014.056-.014.084-.043 0-.085.014-.17.014-.227.015-.057.029-.1.043-.1.014-.013.028.015.028.072.014.057.014.128.014.213.029-.014.057-.028.085-.028.1-.398.226-.938.226-1.421-.028-.057-.056-.1-.085-.156-.028.54-.07.994-.24 1.292.085-.44.1-.909-.014-1.449h-.042c.014.583.014 1.066-.142 1.393a3.393 3.393 0 0 0-.141-1.52.2.2 0 0 0-.085-.029c.127.114.1.568.043.64-.085-.27-.015-.356-.255-.54h-.07c.127.142.14.355.113.525a1.68 1.68 0 0 0-.297-.454h-.127c.183.213.183.255.155.426-.07-.185-.353-.313-.466-.398-.057 0-.07.014-.127.014.14.071.339.327.268.412-.099-.113-.31-.227-.396-.383-.056 0-.028.028-.084.028.028.085 0 .142.014.242-.127-.029-.198-.043-.354-.214-.028 0-.084-.014-.084 0 .014.043.07.142.084.185-.028-.043-.325-.199-.353-.241-.014-.015.056-.015-.113-.029.014.043.113.27.127.313a5.7 5.7 0 0 0-.268-.299c-.071-.014-.127-.014-.198-.028l-.127-.213a8.678 8.678 0 0 0 2.19-.142l.792-.156c.268-.086.452.056.508.468l.043.455c.17.241.24.54.07.952.071.298.24.554.495.767.226.213.254.511-.014.938-.24.625-.58 1.008-.876 1.42 0 .014-.029.029-.029.043-.014.014-.028.028-.042.056.014-.028.028-.042.042-.07l-.042-.214c.042.057.056.1.07.157l.128-.213a6.582 6.582 0 0 1-.043-.228c.029.057.057.1.085.157.029-.057.07-.114.1-.171-.03-.071-.043-.156-.071-.241.042.056.07.113.098.17a1.54 1.54 0 0 0 .114-.213c-.015-.071-.043-.142-.057-.213.028.042.056.085.085.142.042-.128.07-.227.085-.313l-1.456.91c.127-.114.268-.213.396-.327l-.015.014-.042-.27c.043.071.07.156.1.227.027-.028.07-.056.098-.085l-.042-.34c.056.099.084.198.113.283.042-.028.084-.07.127-.099-.014-.142-.028-.298-.057-.455.071.128.113.256.142.384a.713.713 0 0 1 .113-.1 11.073 11.073 0 0 0-.07-.639c.098.2.169.384.169.54.028-.028.056-.043.084-.071a6.242 6.242 0 0 0-.084-.696c.113.213.183.426.197.597 0-.015.029-.029.043-.043 0-.227-.043-.54-.085-.824.141.27.212.526.184.71a68 68 0 0 0 .085-.085c-.014-.412-.156-.781-.283-1.165-.057.199-.057.27-.113.256.028-.227.014-.327-.028-.355-.029.312-.1.511-.198.61l.056-.51h-.085Z" fill="#fff"/>
        <path d="M17.415 28.046c0 .085 0 .156-.057.156-.056-.014-.042-.085-.028-.156h.085ZM17.57 27.89c.028.014.042.043.042.142 0 .1 0 .17-.07.17-.085-.014-.07-.1-.043-.184.029-.1.043-.128.071-.128ZM17.768 27.918c0 .157 0 .27-.057.256-.056-.014-.056-.128-.028-.256h.085ZM17.74 27.72c.014 0 .014.028.028.07h-.07c.013-.042.027-.07.042-.07ZM17.938 27.69c.028 0 .042.058.042.186 0 .127 0 .241-.1.227-.098-.014-.07-.128-.041-.256.042-.113.056-.156.099-.156ZM16.962 23.614c.354.085.721.383 1.089.696.056.1.028.128-.057.085-.254-.085-.622-.511-1.032-.781ZM18.32 24.537c.07.043.098.085.084.1-.014.028-.07.014-.142-.029-.056-.042-.098-.1-.084-.113.014-.015.07 0 .141.042ZM14.758 25.063l.381.043.085.141-.014-.014c-.042 0 .127.455-.099-.028-.028-.057-.113-.043-.184-.071-.07-.029-.042-.043-.17-.071ZM12.991 31.2c.07 0 .142.028.142.057 0 .014-.043.042-.114.042-.084 0-.14-.014-.14-.042-.015-.029.042-.057.112-.057ZM13.175 31.555c.113-.028.24-.043.254-.014.029.028-.056.07-.17.113-.112.029-.225.029-.254 0-.014-.028.057-.07.17-.099ZM13.288 31.669c.127-.029.254-.043.283-.015.014.029-.071.086-.198.114-.141.043-.255.043-.283.014-.028-.028.057-.085.198-.113ZM13.458 31.797c.084-.029.17-.029.183 0 .014.014-.042.056-.127.085-.099.014-.184.014-.198-.015-.014-.014.057-.056.142-.07ZM13.57 31.91c.085 0 .142.029.142.057.014.028-.043.043-.113.043s-.142-.015-.142-.043c0-.028.043-.057.114-.057ZM15.083 31.342c.113-.043.226-.043.24.014.028.043-.056.128-.17.17-.113.043-.226.043-.24-.014-.014-.042.057-.113.17-.17ZM14.885 31.214c.085-.043.17-.043.184 0 .014.043-.043.1-.128.128-.084.043-.17.028-.183 0-.028-.043.042-.1.127-.128ZM14.701 30.958c.07-.028.127-.014.141 0 .015.043-.028.086-.098.1-.071.028-.128.028-.142 0-.014-.029.028-.071.1-.1ZM12.652 29.78c-.014-.072-.085-.072-.113-.015-.014.1.014.227.113.284.113.057.141-.057.085-.1a.28.28 0 0 1-.085-.17ZM12.454 29.68c.014-.085-.056-.128-.113-.057-.07.1-.099.256-.014.355.099.128.184.014.155-.057-.042-.1-.056-.156-.028-.241ZM22.319 23.301c-.085.128-.113.611.31 1.194.156.198-.028.34.198.369.085-.014.142-.085.156-.213l-.142-.071h.198l-.212-.142c.071-.014.24.028.226-.043-.014-.085-.212-.1-.31-.142l.24-.057c.014-.07-.127-.128-.354-.199l.227-.056-.255-.157.198-.056-.31-.157.169-.085-.184-.057.17-.085c-.142-.057-.198-.185-.325-.043ZM21.98 23.67c-.085-.184-.1-.34-.057-.482.099-.256.198-.327.283-.327.169.185-.114.298-.17.44-.043.029-.057.128-.057.37ZM21.909 22.79c.07-.071.155-.114.183-.085.029.028-.014.1-.084.184-.071.071-.156.128-.184.1-.028-.029.014-.114.085-.2ZM21.838 23.7c.042 0 .085.042.085.099 0 .042-.043.085-.085.085-.056 0-.099-.043-.099-.085 0-.057.043-.1.1-.1ZM22.022 23.983c.056.014.07.085.028.156-.028.072-.085.114-.127.086-.057-.015-.07-.086-.028-.157.028-.07.084-.113.127-.085ZM22.22 24.282c.07.028.085.099.028.184a.221.221 0 0 1-.212.1c-.07-.029-.085-.114-.043-.185.043-.071.142-.128.227-.1ZM22.432 24.608c.042.057.014.114-.057.142a.154.154 0 0 1-.184-.042c-.028-.043-.014-.1.057-.128.07-.029.141-.014.184.028ZM23.45 24.779c.027-.043.027-.114-.043-.128-.071-.014-.113-.014-.156-.085-.056-.17.028-.256.17-.299.113 0 .155.043.127.114l-.07.057c.127.042.211.085.254.156-.07 0-.113.014-.127.071.24-.043.226.341.014.27-.142-.043-.212.014-.142.256.057.284.255.355.24.056-.028-.142.453-.17.51.143l-.184-.071c.042.227.226.127.254.326l-.155.015c.183.127.325.284.395.468-.197-.028-.212-.241-.395-.241.24.326.523.255.664.582-.198-.014-.438-.17-.707-.426.24.341.396.625.34.767-.354-.156-.425-.682-.566-.838 0 .27.198.426.127.724-.141-.17-.212-.44-.212-.866.142.028.198-.071.198-.313-.028-.255-.155-.241-.127 0 0 .185-.127.242-.509.015-.056.056.028.128.24.255l-.014.213.113-.184.043.596c-.014.157-.057.128-.1-.028l-.042-.298c0 .213-.028.312-.099.298l-.056-.554-.155.199-.043-.313-.141.114v-.384c-.1.057-.212.015-.325-.156.155.043.254.014.381-.057-.07-.284.057-.426.297-.454ZM20.086 26.512c.014-.128.042-.17-.085-.341-.057-.057-.1-.071-.085 0 .028.114.141.227.17.34ZM19.86 25.645c.183.1.268.114.367.384.028.1.014.17-.057.085-.113-.128-.17-.34-.31-.469ZM19.888 25.091c.24.17.339.2.452.597.028.156-.014.242-.099.114-.141-.2-.184-.498-.353-.71ZM20 24.694c.27.085.467.412.467.696 0 .156-.07.255-.113.113-.056-.199-.155-.61-.353-.81ZM20.114 24.48c.24.1.396.27.48.526.015.142 0 .213-.098.1-.057-.214-.198-.427-.382-.626ZM21.782 31.512c.056-.142.268-.284.523-.17.113.028.098.17.098.27-.07-.071-.14-.156-.212-.071-.197-.157-.268-.071-.41-.029ZM21.018 31.57c.057 0 .1.028.1.084 0 .043-.043.072-.1.072-.042 0-.084-.029-.084-.072 0-.056.042-.085.084-.085ZM20.524 31.57c.028-.015.07.042.099.113.014.07.014.142-.014.142-.029.014-.071-.028-.1-.114-.014-.07-.014-.142.015-.142ZM20.693 31.54c.014 0 .043.03.057.086.014.043.014.085-.014.1-.015 0-.043-.029-.057-.086-.014-.042-.014-.085.014-.1ZM20.736 29.708c-.014.014-.029.029-.029.043-.056.057-.113.1-.127.07-.028-.013-.014-.084.029-.141l.056-.057c-.014-.014-.014-.028-.028-.043-.014.015-.014.029-.028.043-.057.071-.128.114-.156.085-.028-.014-.014-.1.043-.17.014-.029.042-.043.056-.057-.014-.014-.014-.029-.028-.029-.057.072-.127.1-.156.086-.028-.029-.014-.1.043-.17 0-.015.014-.03.028-.03-.028-.027-.028-.042-.042-.056-.043.029-.071.043-.1.029-.014-.015 0-.072.043-.128-.028-.057-.042-.114 0-.142.085-.072.127.028.212.213.028.07 0 .113.043.156.028.057.113.085.14.128.1.156.085.284.071.298-.028.014-.014-.014-.07-.128Z" fill="#fff"/>
        <path d="M20.736 29.85c.042.029.014.114-.057.2-.07.084-.141.127-.17.099-.042-.029-.013-.114.043-.2.07-.085.155-.127.184-.099ZM22.474 29.012c.014 0 0 .085-.028.17-.029.086-.085.143-.113.128-.014 0 0-.085.028-.17.042-.085.085-.142.113-.128ZM22.262 28.927c.028.014.014.128-.042.256-.071.113-.142.213-.184.198-.042-.014-.028-.127.042-.255.057-.128.142-.213.184-.2ZM21.767 28.728c.029.014.015.1-.028.213-.042.1-.099.17-.127.156-.028-.014-.014-.1.028-.199.043-.113.1-.184.127-.17ZM8.059 4.72c.042-.2.17-.298.31-.313l.312.057c.113.085.099.114-.029.128-.254-.043-.395.014-.466.185-.099.142-.141.156-.127-.057ZM9.048 5.316c.028 0 .07.029.07.086 0 .042-.042.085-.07.085-.042 0-.07-.043-.07-.085 0-.057.028-.086.07-.086Z" fill="#fff"/>
        <path d="M8.017 5.032c-.1.128-.071.27.098.44l.227.285c.197.142.296.113.268-.1-.028-.142.014-.199.141-.199a.25.25 0 0 0 .184-.127c.028-.114.014-.17-.085-.2-.183.129-.339.185-.466.214.17-.114.297-.199.34-.27.042-.043.098-.057.183-.028 0-.071-.028-.142-.127-.17-.198 0-.396.141-.58.34.113-.241.283-.384.537-.384.014-.07 0-.127-.07-.184a.615.615 0 0 0-.438.128l-.212.255ZM9.161 6.794c.467.455.862.994 1.173 1.605v.526l-.17-.597c.015.412 0 .682-.042.597l-.141-.853-.099.37-.085-.526c-.07-.057-.085.27-.07.725-.128-.128-.113-.498-.1-.91l-.14.398c-.086-.213-.043-.497 0-.767-.086-.07-.142.071-.17.497-.1-.284-.071-.511-.029-.78l-.099.212-.028-.497ZM12.624 2.788c.155.113.367.142.58.142l.013.114c.34 0 .693-.157 1.046-.398-.014-.014-.085-.029-.155 0-.255.128-.226.042.254-.2.07-.042.127.015.24-.028l.311-.07c-.254.227-.509.454-.791.667-.396.227-.75.284-1.074.17a3.019 3.019 0 0 1-.537-.326c-.043-.071-.085-.114.113-.071ZM14.574 2.859c.042 0 .07.028.07.057 0 .028-.028.057-.07.057-.028 0-.056-.029-.056-.057 0-.029.028-.057.056-.057ZM14.998 3.711c.028-.042.057-.057.085-.028.028.014.028.057 0 .085-.028.043-.071.057-.085.043-.028-.015-.028-.057 0-.1ZM16.001 3.328c.043-.015.085-.015.1.014.013.028 0 .085-.057.1-.043.028-.085.028-.1-.015-.028-.028 0-.071.057-.1ZM15.775 3.171c.043-.028.085-.042.1-.014.027.014.013.071-.015.1-.042.028-.085.042-.099.014-.014-.014-.014-.057.014-.1ZM14.235 3.47c.042-.015.085 0 .099.028 0 .028-.028.071-.07.071-.043.014-.086 0-.1-.028 0-.029.029-.057.07-.071ZM14.786 4.52c.056-.027.127-.027.141 0 .014.03-.014.072-.085.1-.056.015-.127.015-.14-.014-.015-.028.013-.07.084-.085ZM12.977 3.555c.155-.014.367-.071.65-.199l.325-.156c.156-.071.184-.057.057.07-.142.143-.325.214-.453.313a.682.682 0 0 1-.621.114c-.156-.043-.1-.128.042-.142Z" fill="#fff"/>
        <path d="M13.966 3.413c.184-.17.297-.213.552-.327.24-.1.48-.128.72-.128.17-.156.325.057.142.228-.057.056-.128.085-.198.127-.184.142-.382.2-.58.256-.254.071-.282.043-.07-.1.07-.056.127-.099.197-.141.156-.1.326-.128.481-.142-.24-.157-.707.085-1.173.312-.141.071-.184.028-.07-.085Z" fill="#fff"/>
        <path d="M15.238 2.674c.1-.028.184-.014.297-.014.184.057.269.156.283.284-.043.128-.1.199-.184.227-.042-.227-.127-.355-.254-.397-.057-.015-.085-.015-.142-.015v-.085ZM15.026 2.731c.057-.028.07-.043.127-.057v.085l-.113.029c-.056.014-.113-.029-.014-.057ZM14.772 2.589c.127-.114.268-.213.438-.227.17-.015.353-.015.537.014.353.128.212.241-.014.156-.142-.085-.311-.07-.509 0-.014.142-.254.029-.396.128-.099.043-.113.014-.056-.071ZM15.803 2.632c.113 0 .198.014.212.113.015.128-.014.228-.099.284.043-.27-.084-.241-.113-.397ZM16.114 2.56c.029.043.043.157 0 .341l-.113.214c-.028.099 0 .127.071.099a.341.341 0 0 0 .17-.313c0-.213.014-.312.084-.383-.127-.213-.254-.185-.212.043ZM15.21 3.81c0 .143.325.171.367.015.071-.17-.056-.299-.014-.469a.446.446 0 0 0-.353.455ZM15.125 4.18c.07-.128.184-.17.354-.156.127 0 .197.028.197.156s.014.27-.014.384c-.042.113-.056.099-.198.113-.155 0-.212-.07-.381.029.099-.242-.014-.341.042-.526ZM15.733 3.626c-.07-.114.014-.156.085-.071.085.07.141.17.141.27.014.1-.099.184-.17.1-.07-.086.015-.171-.056-.299ZM15.803 4.166c-.042-.142.015-.157.184-.085.113.099.127.17.07.227.114.114.114.27.015.454-.07-.056-.155-.028-.212-.113-.014-.057-.056-.029-.028-.242a.36.36 0 0 0-.029-.241ZM16.001 5.33c.071 0 .113.043.113.086 0 .042-.056.07-.113.057-.07 0-.113-.043-.113-.086 0-.028.057-.056.113-.056ZM15.125 5.203c.07 0 .127.042.113.085 0 .043-.056.085-.127.071-.07 0-.127-.043-.113-.085 0-.043.057-.085.127-.071Z" fill="#fff"/>
        <path d="M16.2 5.047c-.085-.142-.297-.242-.608-.285-.198-.028-.467.029-.75.1-.155.17-.211.426-.183.767l.127.028-.113.086h.155l-.098.142.084.028-.07.185.085.057-.043.113.113.014-.028.114.085.014-.029.114.085.028a.875.875 0 0 0 .269.228.43.43 0 0 0 .268.028c.17-.128.212-.241.354-.398.042-.014.056-.1.056-.227.085-.043.113-.114.113-.213l.07-.1v-.34c-.084.028-.14.042-.211.028l-.198-.085-.057.44c0 .085-.042.213-.14.17l-.241-.113c-.057-.028-.043-.114.028-.142l.085-.014V5.43c-.141.043-.297.057-.438-.043-.057-.028-.113-.028-.17-.028a.573.573 0 0 1 .156-.199l-.085-.128c.028 0 .085.015.127.015.198-.015.297-.043.353.014.057.057.1.1.156.128l.014-.1c.042-.113.127-.142.254-.1l-.028.285.452-.142v-.085ZM15.153 6.21a.928.928 0 0 1 .395 0c.226.057.24.143.029.27-.128 0-.269 0-.41-.042.042-.071.084-.1-.014-.228Zm.17.1c.056-.043.14-.043.225 0 .043.028.029.07-.014.1a.29.29 0 0 1-.155 0c-.043-.043-.014-.072-.057-.1Z" fill="#fff"/>
        <path d="M15.365 5.87c.029 0 .043.015.043.043 0 .014-.014.029-.043.029-.014 0-.042-.015-.042-.029 0-.028.028-.043.042-.043ZM15.592 5.217c0-.028.014-.057.014-.1.07-.07.099-.113.099-.042 0 .057 0 .1-.014.142h-.1ZM15.507 5.913c.014-.185.042-.34.07-.568h.1c-.015.156-.029.327-.085.597-.029.056-.057.028-.085-.029ZM14.418 4.933c-.014-.114.1-.1.114 0 .028.199 0 .355-.1.455-.07.042-.169 0-.112-.086.098-.142.127-.241.098-.37ZM14.334 5.743c-.028-.128.056-.17.085-.029.098.384.268.753.65 1.108.155.128-.014.242-.156.114-.381-.327-.494-.781-.58-1.193ZM15.747 6.908c-.014-.114.028-.228.155-.327.085-.057.114.042.071.1-.085.099-.155.099-.226.227ZM12.058 8.484c.014-.099.029-.17.085-.241a.426.426 0 0 1-.099-.071c-.07.156-.17.284-.31.469.098-.299.197-.526.41-.753-.03.1-.057.184-.086.255.029.029.071.057.1.086.028-.029.056-.057.07-.086 0 .043 0 .086-.014.128h.014l-.014.043L12.2 8.3c-.028.07-.071.113-.142.184ZM11.889 8.74a.334.334 0 0 1 .099-.199c-.014.1-.028.128-.1.2ZM12.638 8.854c.014-.057.028-.114.042-.156l.029-.029c0-.014.014-.043.028-.057.028-.028.056-.07.085-.1-.015.171-.057.228-.184.342ZM12.61 9.266c-.043-.142 0-.242.17-.327 0 .213-.015.27-.17.327ZM12.949 9.138c.141-.341.155-.497.113-.924.155.398.127.512-.113.924ZM15.252 10.43c.071-.298.1-.582.085-.88-.028.014-.042.014-.07.028-.015.157-.057.341-.142.569.043-.185.07-.37.057-.554a.2.2 0 0 1-.085.028c-.014.128-.057.27-.113.454.028-.156.042-.298.042-.44-.042 0-.085.014-.127.014a7.397 7.397 0 0 1-.085.64c0-.213-.014-.427-.014-.625h-.141c0 .213-.029.426-.07.724-.015-.256-.015-.497-.03-.739-.042-.014-.084-.014-.14-.028 0 .227-.029.454-.071.767-.014-.27-.028-.526-.028-.781l-.127-.043c-.015.213-.057.426-.114.71 0-.255 0-.483.014-.738a105.45 105.45 0 0 0-.127-.043c-.014.284-.042.54-.056.838-.043-.37-.07-.625-.043-.88-.042-.015-.084-.029-.113-.057-.07.34-.099.639-.07.98-.1-.44-.113-.696-.014-1.009-.029-.028-.057-.042-.085-.057a2.506 2.506 0 0 1-.198.384c.07-.142.099-.284.141-.412-.042-.028-.099-.057-.141-.085-.028.184-.113.37-.255.625.184-.455.198-.881.213-1.42.042.212.07.383.07.539.057.028.1.043.156.071.028-.241.042-.469.042-.739.07.313.099.54.056.753.043.014.085.043.128.043.014-.029.042-.071.07-.114l-.042.128c.028 0 .07.014.099.014.028-.085.042-.184.085-.298 0 .114-.014.213-.014.327.042 0 .07.014.113.014 0-.071.014-.156.014-.242.028.1.028.17.042.256.043 0 .1.014.141.014V8.84c.029.127.057.227.071.326.057.015.113.015.17.015 0-.114 0-.214.014-.341.028.127.042.241.07.34h.142v-.51c.056.198.085.354.099.496.042 0 .085-.014.127-.014 0-.114-.028-.241-.042-.37.056.129.099.242.113.356.028 0 .056-.014.084-.014-.014-.128-.042-.256-.056-.398.056.142.099.256.127.37.028 0 .057 0 .085-.015-.028-.199-.042-.412-.085-.653.325.81.325 1.179.028 2.003ZM15.648 9.493l.057.128.197-.185c.057-.07.114-.057.156.043l.014-.228c.07-.042.127-.014.184.057.042-.057.042-.127.014-.213l.028-.284c-.113-.185-.198-.298-.325-.34a.5.5 0 0 1 .028.397c-.014-.185-.099-.313-.24-.384.057.114.085.228.057.341a.425.425 0 0 0-.142-.127l.029.17-.085.057.028.568ZM16.948 8.484c0 .043 0 .071-.028.071s-.057-.028-.099-.07h.127ZM16.863 8.243c.029.07.057.128.057.17h-.155a1.243 1.243 0 0 1-.085-.142c-.014 0-.014-.014-.014-.028h.197ZM16.61 7.973c.042 0 .14.085.211.213h-.184c-.056-.114-.07-.213-.028-.213ZM16.524 8.47c.014-.014.07.043.127.128.043.085.057.156.043.17-.014.015-.07-.042-.113-.127-.057-.086-.07-.17-.057-.17ZM16.256 8.413c.014-.014.085.057.155.157.057.113.085.199.057.213-.014.014-.085-.057-.156-.157-.056-.113-.085-.198-.056-.213ZM11.691 7.86c.042.028.07.056.099.07l.07-.07c-.014.099-.042.127-.112.198a.966.966 0 0 1 .042-.113c-.028-.029-.057-.057-.099-.086ZM10.433 22.108l-.056.185-.057-.029.028-.156h.085ZM6.052 28.373c.184-.071.226.014.283.227.155.142.254.256.254.37.325.27.269.383-.17.34-.14-.042-.225-.142-.225-.34l-.142-.597ZM6.123 29.467c-.113.17-.085.383.056.554a.35.35 0 0 0 .283.128l-.056-.157.17.114c0-.085-.072-.185-.227-.298l.212.056c0-.113-.099-.213-.269-.298h.142c-.07-.199-.198-.256-.311-.1ZM6.674 29.566c.056-.014.099.057.113.142.014.086-.014.157-.07.17-.043.015-.1-.056-.114-.141 0-.086.029-.17.071-.17ZM9.543 19.835c0-.454.198-.895.452-1.335-.184.454-.34.895-.452 1.335ZM10.56 17.193c-.17.07-.183-.071-.056-.17.268-.228.565-.313.904-.313h.594c.226 0 .198.227-.014.213h-.424c-.382-.014-.693.1-1.004.27Z" fill="#fff"/>
        <path d="M11.847 16.98c.155 0 .282.028.282.056 0 .043-.127.057-.282.057-.156 0-.283-.014-.283-.057 0-.028.127-.056.283-.056ZM13.005 13.968c-.028-.028-.099.071-.198.199-.084.114-.14.227-.127.227.014.014.1-.07.184-.199.099-.113.155-.227.141-.227ZM12.016 14.948c-.07.128-.042.199.099.256.565.17 1.116-.014 1.668-.327l.692-.327c.127-.156.099-.199-.07-.142l-.34.17.085-.283a1.355 1.355 0 0 0-.382.44l-.056-.142a.539.539 0 0 0-.184.298l-.07-.156a.43.43 0 0 0-.17.185l.028-.2c-.056-.042-.141.058-.254.285l.056-.213c-.042-.043-.113.043-.212.255l.226-.681c-.113.014-.268.27-.438.724-.07.014-.099-.014-.085-.07l.255-.498c-.127-.014-.269.17-.438.497l.198-.568-.368.483v-.185a.517.517 0 0 0-.24.2ZM12.087 24.196c-.057-.057.042-.113.07-.085l.17.156c.042.043-.056.114-.099.085l-.141-.156ZM12.214 24.083c-.028-.043.042-.1.07-.071l.142.142c.042.042-.043.1-.07.07l-.142-.141ZM12.299 23.955c-.057-.057.042-.128.085-.085l.17.17c.041.043-.072.114-.1.071l-.155-.156ZM12.37 23.742c-.057-.071.07-.17.14-.128l.255.255c.07.072-.099.185-.141.128l-.255-.255ZM12.638 23.514c-.085-.085.028-.198.099-.127l.31.27c.085.07-.042.198-.112.142l-.297-.285ZM12.822 23.372c-.071-.07.014-.17.084-.113l.269.227c.07.071-.043.17-.099.128l-.254-.242ZM13.062 23.287c-.057-.057.014-.142.07-.1l.227.2c.056.056-.043.156-.085.113l-.212-.213ZM11.931 21.682c0-.071-.113-.043-.127.014l-.028.256c0 .057.127.028.127-.015l.028-.255ZM11.564 22.037c-.014-.114-.127-.057-.127.014l.028.199c0 .1.141.043.127-.014l-.028-.199ZM11.14 22.307c-.014-.1-.085-.071-.085 0l-.014.185c-.014.099.099.056.099 0v-.185ZM11.677 21.952c.028 0 .056.028.056.07 0 .043-.028.072-.056.072-.014 0-.043-.029-.043-.071 0-.043.029-.071.043-.071ZM11.281 22.207c.043 0 .07.043.07.086 0 .056-.027.085-.07.085-.042 0-.07-.029-.07-.085 0-.043.028-.086.07-.086ZM10.928 22.463c0-.085-.113-.085-.113-.014v.17c0 .086.127.071.127.015l-.014-.17ZM13.995 11.723c.042 0 .07.043.07.1 0 .057-.028.114-.07.114-.029 0-.057-.057-.057-.114s.028-.1.057-.1ZM14.164 11.993c-.028 0-.042-.07-.042-.156 0-.1.014-.17.042-.17.029 0 .057.07.057.17 0 .085-.028.156-.057.156ZM14.433 11.922c.07 0 .127.029.127.057 0 .014-.057.043-.127.043-.057 0-.113-.029-.113-.043 0-.028.056-.057.113-.057ZM14.574 12.164c.028 0 .057.028.057.057 0 .042-.029.07-.057.07-.014 0-.042-.028-.042-.07 0-.029.028-.057.042-.057ZM14.8 12.15h.523c.17 0 .198.085.085.241.056.284-.297.469-.283.014-.028-.085-.127-.128-.325-.128-.085-.028-.085-.113 0-.127ZM13.98 15.488c.043 0 .071.028.071.071s-.028.085-.07.085c-.029 0-.057-.042-.057-.085 0-.043.028-.071.056-.071ZM13.754 15.559c.043 0 .085.043.085.1 0 .042-.042.085-.085.085-.056 0-.084-.043-.084-.085 0-.057.028-.1.084-.1ZM14.037 15.715c.184-.127.367-.213.396-.17.028.043-.1.184-.297.327-.198.127-.367.198-.41.156-.014-.043.113-.185.311-.313ZM14.715 15.275c.113-.1.226-.156.24-.142.029.028-.056.128-.169.227-.113.085-.226.156-.24.128-.028-.028.056-.128.17-.213ZM14.277 16.355c.043-.1.085-.2.141-.285l-.028-.014c.028-.17.156-.298.325-.383l.029.014a.795.795 0 0 1 .212-.142c-.043.07-.071.142-.114.199l.043.028a.895.895 0 0 1 .367-.227 1.71 1.71 0 0 1-.268.284l.085.057c.127-.114.282-.2.41-.256-.1.1-.198.213-.311.313l.099.056c.127-.099.282-.17.423-.199-.07.057-.14.114-.197.171.098-.028.211-.028.353-.043-.184.086-.297.114-.438.17l.113.072a.854.854 0 0 1 .424-.128c-.1.057-.212.128-.325.185l.099.056a.716.716 0 0 1 .41-.085 2.077 2.077 0 0 0-.311.142l.056.043a.929.929 0 0 1 .382-.085c-.113.042-.198.1-.297.142l.085.042a.648.648 0 0 1 .325-.028c-.085.028-.17.043-.255.085l.297.185-.056.028-.453-.156c-.028 0-.042.014-.056.029 0-.015.014-.029.028-.043l-.113-.029c-.056.029-.127.072-.198.1.043-.057.07-.1.113-.128l-.113-.043c-.056.029-.127.072-.198.1.029-.043.071-.1.114-.142l-.114-.043c-.084.057-.155.114-.24.157a.91.91 0 0 1 .142-.185l-.156-.057c-.07.07-.141.128-.212.185a.449.449 0 0 1 .113-.213l-.141-.057c-.07.07-.156.142-.24.213.042-.085.084-.17.14-.242l-.225-.085c-.071.085-.17.17-.269.242ZM12.694 16.795c-.183.37-.367.938-.494 2.088-.07.512-.113 1.023-.014 1.549.056.284.183.383.31.37l2.106-.342c.156-.028.311-.156.24-.298l-.084-.17-.07.24-.114-.198-.085.227-.127-.284-.099.341-.127-.27-.07.284-.071-.241-.085.298-.1-.27-.084.327-.113-.313-.085.228-.099-.185-.07.17-.1-.142a.36.36 0 0 0-.296 0l-.042.071-.057-.07c-.155-.043-.325-.072-.48-.1l.197-.1c0-.07-.07-.099-.197-.085l.211-.156-.226-.043.212-.128c0-.056-.056-.113-.226-.184l.226-.071v-.057l-.226-.028.24-.114c.029-.057-.042-.1-.197-.156l.197-.057c-.014-.057-.028-.128-.17-.185l.17-.057-.17-.128.213-.085c0-.07-.028-.1-.156-.156l.227-.1c-.015-.042-.071-.113-.213-.156l.213-.07-.17-.114.198-.086-.156-.056.184-.114c.042-.043-.028-.085-.184-.1l.212-.085.014-.085-.197.028.099-.085-.128-.1.297-.07.028-.057-.212-.057.17-.1c-.028-.085-.085-.113-.17-.113Zm.325.298.043-.014c-.184 1.009-.269 1.975-.127 2.841-.071-1.35.099-2.784.353-3.026l.042.1c-.296 1.08-.325 2.046-.127 2.912-.127-1.477-.014-2.33.24-2.784v.142c-.197 1.037-.211 1.875-.028 2.557l.057-.043a8.304 8.304 0 0 1 .113-2.756l.099.014c-.198 1.094-.198 1.947-.057 2.728l.057-.057c-.113-1.122-.1-1.904.07-2.614l.085.014c-.155 1.08-.17 1.933-.028 2.629l.056-.015c-.113-1.179-.056-2.017.1-2.642l.056.057a10.19 10.19 0 0 0 0 2.543l.056-.029c-.028-1.022-.084-1.832.043-2.429l.07-.085a9.528 9.528 0 0 0 .029 2.529h.056c-.099-1.108-.07-1.947.043-2.629l.056.043c-.056.895-.056 1.705.014 2.6l.057-.014c-.057-1.222-.014-2.06.113-2.558.113-.042.113.1.014.256-.07.739-.099 1.478 0 2.287l.085.015c-.085-1.18-.014-1.861.113-2.53.07-.07.141.015.056.185-.098.825-.155 1.407-.07 2.345h.099c.113.042.127.085.014.127-.693.142-1.357.27-1.993.313-.127.014-.17-.057-.17-.242a8.683 8.683 0 0 1 .311-2.77Zm2.332.583.085-.426c.1-.057.141-.029.127.085l-.183.355-.029-.014Zm-.155-.455c-.1.71-.1 1.137-.17 1.875l.057.128c.014-.824.127-1.35.24-1.974.043-.114-.07-.143-.127-.029Zm-.212-.028c.042-.057.113-.043.099.028-.113.611-.184 1.335-.198 2.16h-.042c-.043-.796-.015-1.506.14-2.188Zm-2.94 4.645a1.8 1.8 0 0 1 .1-.71c.028-.1.127-.157.296-.17l1.894-.285c.099-.014.113.043.099.17-.029.185-.057.356-.142.498-.07.057-.084-.185-.07-.554-.142.34-.085.696-.311.753-.1-.156.056-.455.085-.682-.212.199-.142.44-.325.696-.071.014-.057-.227-.015-.61-.098.283-.183.51-.282.61-.057-.085-.057-.298-.043-.526-.084.37-.183.625-.268.668a2.201 2.201 0 0 1 .014-.61l-.042-.043c-.057.355-.113.568-.198.667a.815.815 0 0 1 .028-.653h-.085c-.056.184-.085.34-.17.398-.112-.015-.169-.142-.169-.356-.099.398-.24.611-.396.74Z" fill="#fff"/>
        <path d="M15.62 17.818c-.113.085-.156.184.07.17-.155.142-.17.242-.042.284-.283.356-.283.455-.014.299-.311.397-.269.454-.057.383-.268.327-.226.37-.14.384-.185.255-.185.383-.015.37-.141.056-.24.17-.269.397-.056.227-.664.483-.155.696.155.085.283.298.382.668.042.199.127.213.296.142.142-.043.283-.057.424-.071.269.028.283-.27-.014-.313.028-.113-.07-.17-.226-.1.127-.212-.028-.155-.085-.184.085-.043.07-.142-.155-.014l-.028-.071c.127-.043.17-.114.183-.199l-.381.128c.113-.1.17-.17.155-.242l-.268.057c.282-.199.395-.34.381-.412l-.297.085c.212-.17.354-.312.34-.397l-.255.1c0-.086.113-.171.325-.228.17-.085.255-.2.226-.355l-.381.184c.31-.284.565-.54.636-.71-.029-.1-.34.114-.75.455v-.071c.396-.27.693-.583.92-.938l-.75.582.679-.81c-.043-.099-.24.015-.622.413l.028-.086.353-.383a1.31 1.31 0 0 0 .552-.597c.07-.184-.17.057-.538.384-.084.085-.183.128-.282.227l.862-.91.014-.113c-.085-.085-.636.569-1.102.796Zm-1.018 3.509c-.155-.1.014-.327.127-.228l.424.313c.128.1 0 .27-.098.199l-.453-.284Zm.17-.27c-.156-.1.028-.299.127-.213l.226.227c.127.114.043.213-.07.156l-.283-.17Zm.904.852c-.113-.057-.17.029-.099.085.184.157.382.284.594.384.212.114.438.128.65.128.155 0 .226-.1.028-.142a4.935 4.935 0 0 1-1.173-.455Zm.113-.014c-.07-.085-.056-.156.043-.213l.508-.043c.1 0 .184.057.27.17l.24.27c.098.128.013.228-.085.2-.34-.1-.665-.228-.976-.384Z" fill="#fff"/>
        <path d="M16.298 20.545a.728.728 0 0 1 .396-.34c.48-.072.96-.171 1.413-.342.141-.099.198-.07.184.086-.043.44-.1.81-.226.923v-.767l-.057.014c-.042.384-.099.668-.198.782l.029-.71h-.071l-.156.695.043-.61c0-.086-.029-.1-.07-.057-.1.71-.227 1.008-.368 1.108a2.42 2.42 0 0 0 .113-1.037l-.043-.029c-.042.37-.099.725-.226.995-.141-.213.127-.583.07-.938h-.027l-.255.88c-.084 0-.056-.113.029-.34l.028-.497-.043.028c-.07.27-.14.469-.24.64l.043-.654-.184.469.014-.384-.198.085Zm2.092-.54c.014-.156.183-.113.113.043l-.085.199h-.042l.014-.241Zm-.043.583c.014 0 .029.043.029.1 0 .056-.015.099-.029.099-.014 0-.028-.043-.028-.1 0-.056.014-.099.028-.099Zm.071-.213c.028 0 .042.014.042.057 0 .028-.014.056-.042.056-.028 0-.056-.028-.056-.056 0-.043.028-.057.056-.057Zm-.014-.867c.042 0 .07.057.085.128.014.071.014.142-.029.142-.014.014-.056-.042-.07-.113-.014-.072 0-.142.014-.157Zm-.212-.412c.127.128.141.242.127.341-.014.142-.127.242-.127.142-.014-.128 0-.27-.1-.44-.056-.071.043-.1.1-.043Zm-1.032-.255c.014-.142.127-.029.127.056l-.042.228c-.042.042-.057.014-.099-.071l.014-.213Zm-.494.738c-.114.071-.114.128.014.17l.056-.013v.014c0 .057.029.1.057.1s.056-.043.056-.1v-.043l.127-.028v.284c-.042.014-.084.014-.14.028 0-.028-.03-.042-.043-.042-.028 0-.057.028-.057.056 0 0 .014.015.014.029-.028.014 0 .014.057.057l.947-.213c.282 0 .353-.213.282-.554.043-.114.015-.157-.084-.142l-.212-.029.127-.085c.17-.085.17-.128.028-.128l-.297-.043.24-.042c.071-.014.1-.1-.014-.142l-.254-.029.198-.042c.127-.1.056-.17-.184-.2.085-.099.07-.17-.028-.17-.043-.099-.17-.17-.127.015l.056.937c.028.1-.014.17-.127.213l-.692.142Zm.537-.37c.042 0 .07.03.07.072 0 .043-.028.071-.07.071-.029 0-.057-.028-.057-.071s.028-.071.057-.071Zm.565.3c.014 0 .028.014.028.028 0 .028-.014.042-.028.042s-.028-.014-.028-.042c0-.014.014-.029.028-.029Zm-.057-.185c.057-.015.1 0 .113.028.014.043-.028.071-.084.085-.057.014-.1 0-.113-.042-.015-.014.028-.057.084-.071Zm-.65.61h.029v-.284l-.071.029.042.256Zm.156-.042c.028 0 .042-.014.07-.014v-.27l-.127.028.057.256Zm.17-.057c.014-.014.028-.014.042-.028v-.228l-.057.014.014.242Zm.126-.057s.029 0 .043-.014c.099-.114.099-.17-.014-.199h-.029v.213ZM19.704 6.354c-1.173-.1-1.738.284-2.05.681-.268.341-.409.725-.437 1.151.028.071.155-.085.339-.327l-.113-.042a.995.995 0 0 1 .127-.242c.028-.042.028-.113.099-.156.085-.043.141-.128.141-.156h-.099c.325-.398.778-.498 1.286-.483.142.014.269.028.396.042a.256.256 0 0 0 .184-.042c.042-.029.056-.071-.014-.071a3.554 3.554 0 0 0-1.343.056c.325-.213.792-.227 1.456-.198.268.014.282-.185.028-.213Zm-2.05 7.586c.043.028.057.113.03.213-.03.085-.1.156-.142.142-.057-.014-.07-.114-.043-.2.043-.099.1-.17.156-.155Zm-1.017.412c.014 0 .043.07.043.142 0 .085-.029.142-.043.142-.028 0-.042-.057-.042-.142 0-.072.014-.143.042-.143Zm.085.497a.97.97 0 0 1 .396-.668c.198-.142.24-.1.085.1-.142.184-.226.412-.34.61-.042.086-.17.185-.14-.042Zm.594-1.08a.806.806 0 0 0-.453.384c-.07.17-.042.184.085.056.127-.142.283-.227.424-.34.057-.043.113-.143-.056-.1Zm-1.216.952c-.099.128-.085.17.085.1.269-.413.452-.683.608-.768l.48-.426c.368-.085.58-.483.65-1.15l-.028-.086c-.184.469-.396.81-.678.995a3.04 3.04 0 0 0-.665.681c-.084.086-.084.185-.155.299-.085.113-.226.227-.297.355Zm-.113-.299c-.085.157-.014.214.07.086.326-.455.552-.767.891-1.051.311-.242.763-.682.947-1.265.113-.34-.014-.44-.099-.227-.184.511-.395.966-.735 1.236-.381.312-.791.667-1.074 1.221Zm-.042-.468c-.07.128-.085.227-.029.298.27-.1.184-.526.849-.867.084-.113.056-.156-.085-.113l-.622.454c.212-.34.424-.61.735-.681a.894.894 0 0 0 .551-.299c.07-.156.042-.199-.07-.128-.382.256-.707.356-1.004.583a1.518 1.518 0 0 0-.523.838l.198-.085Zm-.043-.824c.114-.242.424-.398.863-.54.296-.1.537-.313.748-.568.227-.142.184-.014.113.142-.084.142-.14.184-.282.27a2.71 2.71 0 0 1-.622.355c-.24.085-.466.227-.678.483-.128.1-.184.057-.142-.142Zm.665-.81c.212-.128.395-.256.537-.469.198-.284.282-.298.226 0a.869.869 0 0 1-.58.625c-.296.114-.381-.028-.183-.156Zm.89-.653.099-.512a.95.95 0 0 1 .212-.54l.155-.426c.043-.17.113-.156.113.057l-.099.27c.085.042.043.128-.014.213-.014.1-.014.213-.113.242-.028.383-.07.696-.183.795-.17.213-.226.185-.17-.1Zm-.678-.072.226-.554c.056-.198.155-.312.282-.326l.311-.299c.07-.085.113.029.07.1l-.225.37c-.043.298-.156.567-.424.88-.057.057-.156.057-.099-.028l.268-.54-.339.469c-.099.127-.113.028-.07-.072Zm-.396.228c.127-.341.17-.526.297-.64.155-.156.198-.142.099.043-.071.142-.17.341-.17.696 0 .284-.353.228-.226-.1Zm-.028-.455c.014.114.028.085.084 0l.128-.355c.14-.128.339-.27.523-.497.084.128.24.014.48-.313.297-.142.438-.369.523-.653.07-.242.028-.284-.127-.128-.226.298-.396.412-.48.625-.27.085-.481.384-.792.526-.085.056-.113.142-.113.255-.127.086-.212.228-.226.54Zm.028-.696c.028-.043.085-.057.113-.043.028.029.028.086-.014.128-.028.057-.085.071-.127.043-.015-.029-.015-.085.028-.128Zm1.569-2.43c.197-.24.438-.411.664-.51.268-.114.254.099.07.099-.14 0-.339.128-.664.54-.084.113-.183.014-.07-.128Zm-1.866 2.899c-.042-.511.07-.81.311-.98.65-.398.876-.98 1.088-.966.212-.37.537-.753.919-1.108.282-.2.34-.157.184.156-.41.582-.82 1.278-1.188 1.477-.17.015-.296.114-.395.27l.254-.128c.127-.014.142.029.057.114-.212.114-.566.668-.65.313-.142.27-.382.227-.396.497l-.029.355c-.056.1-.098.1-.155 0Zm2.516-3.722c.127.014.183.057.084.17-.31.128-.607.37-.89.71.028.129-.028.242-.17.327 0 .214-.127.313-.339.341l-.31.398c.07.1-.043.256-.27.483-.14.156-.197.114-.169-.142.17-.469.495-1.15.65-1.15.085 0 .085-.029.114-.185.014-.114.127-.085.099 0-.015.113.014.128.084.042.354-.582.735-.88 1.117-.994Zm-.947.142c.254-.298.692-.497 1.512-.483.17.014.141.185-.014.17-.127-.014-.269.043-.396.071-.155.043-.325.057-.466.143-.283.156-.537.412-.763.767-.085.042-.1.014-.057-.086.283-.511.622-.78.975-.81l.014-.028c-.198-.042-.438.043-.791.37-.043.042-.057 0-.014-.114Zm.31-.44c.312-.2.665-.313 1.075-.256.254.028.254.185.113.17-.396-.056-.777-.042-1.159.142-.141.072-.113 0-.028-.056ZM19.93 5.956c-.099-.128-.028-.2.142-.185.438.085.82.142 1.06.341.14.1.028.199-.071.128l-.297-.156c.014.127-.099.07-.268-.071-.114.113-.255.056-.41-.114l.099.284c.014.057-.043.057-.071.014l-.184-.241Zm.608.227c-.057.043.014.142.056.185.057.057.128.028.1-.057-.015-.085-.1-.17-.156-.128ZM21.442 6.538c-.042-.028-.14-.07-.014-.1-.141-.084-.085-.198.014-.212.382-.015.679-.228 1.117.014l.198.227c.127.298.014.44-.156.227-.084-.127-.014-.241-.226-.34.113.213.198.426.198.667.325.313.028.384-.056.185l-.128-.583c.029.285.043.498 0 .498-.099 0-.042-.2-.084-.44-.029-.1-.057-.285-.114-.3-.24-.084-.466-.013-.65 0 .311-.013.523 0 .594.086a.501.501 0 0 1 .07.44c-.07.114-.113.086-.113-.056l-.042-.185c-.014-.1-.127-.114-.283-.1-.098.015-.212.043-.325-.028ZM17.514 17.15c.452.753.975 1.478 1.568 2.16.07.085.014-.171.07-.072.128.27.326.526.41.611.085-.07-.183-.312-.225-.596l.805.937c.07-.128-.396-.682-.777-1.165l.056-.057.919 1.208.042-.014c-.14-.398-.565-.881-.848-1.321l.029-.1c.17.213.395.54.58.81.268.384.508.724.579.753.339.085-.806-1.122-1.329-2.131l.014-.057c.622.952 1.173 1.819 1.781 2.216.07.043.127-.042.056-.128-.55-.653-1.2-1.363-1.596-2.003l.028-.056c.593.71.904 1.52 2.035 2.201.07.043.113.114.184.057.254-.199-.976-.497-1.922-2.102l.014-.114c.353.483.41.625.735.966.452.497 1.158 1.08 1.271.995.114-.1-1.017-.881-1.625-1.833l.029-.028c.48.667 1.158 1.477 2.148 1.988.141.072.084.057.254.057.438.029-.975-.696-1.71-1.506l.014-.07c.212.184.48.426.777.667.354.256.721.483 1.018.654.268.142.48.227.58.184.254-.128-.976-.568-1.287-.895.184.1.368.17.523.242.537.27.919.454 1.004.355.056-.071-.226-.227-.721-.412-.057-.057-.014-.071.127-.043.565.228.89.384.961.341.184-.057-.113-.184-.452-.398.424.185.791.356.99.299.07-.014-.241-.185-.51-.426.382.241 1.286.568.424-.043l.057-.028c.325.241.735.34.24-.057h.07c.283.227.439.397.227-.071.283.412.565.568.184-.029l.438.341c-.156.071-.142.114 0 .2.367.24.395.198.325 0 .042-.384-.1-.64-.354-.796-.282-.185-.268.028.057.54a1.271 1.271 0 0 1-.297-.327.357.357 0 0 0-.325-.185c-.664.014-1.314.142-1.936.227-.48.071-.848 0-1.017-.113-.17-.142-.227-.2-.142-.355.057-.128 0-.228-.085-.27l-.452-.91c.057.1.127.143.184.228.184.298.31.54.353.525-.07-.199-.31-.639-.494-1.136.353.625.664 1.165.749 1.094-.043-.242-.325-.71-.608-1.194.085.086.113.114.17.185.113.142.211.27.268.242-.226-.47-.466-.767-.72-.853-.396-.142-.637-.199-.58.057l-.198-.227-.212-.029c-.07.029.028.142.17.384l-.043.028-.24-.383c-.07-.043-.17-.085-.184 0l.127.256-.268-.299c-.127-.07-.269-.1-.269-.043l.396.654c-.07-.1-.184-.199-.283-.341-.155-.213-.282-.37-.466-.398-.184-.014.184.284.438.895l-.608-.88c-.056-.043-.296-.086-.31 0l.706 1.022c-.325-.369-.65-.681-.834-1.037-.042-.042-.084-.042-.127-.042-.028-.014-.056 0-.085.028l.862 1.122a4.95 4.95 0 0 1-.466-.483c-.184-.255-.353-.426-.495-.653-.056-.071-.17-.043-.183-.014-.071.1.65.838.96 1.278a7.056 7.056 0 0 1-1.088-1.278c-.14-.071-.24-.071-.282 0-.043.085.876.966 1.23 1.52-.481-.512-.948-.995-1.33-1.52-.056-.071-.225-.071-.225 0 0 .142.791.866 1.427 1.747-.466-.511-1.032-1.193-1.272-1.335-.113-.015.283.483 1.187 1.52a12.164 12.164 0 0 1-1.243-1.321c-.113.099.381.724 1.102 1.52l-1.13-1.194c-.156-.1-.184-.085-.1.057Zm4.805-.27c-.1-.142.042-.213.155-.042.226.383.438.71.594 1.08.07.17-.029.212-.1.056-.183-.412-.41-.739-.65-1.094Zm-.439-.142c-.07-.113.114-.184.255.014.325.455.607.91.834 1.378.127.284 0 .355-.128.1-.268-.554-.621-1.037-.96-1.492Z" fill="#fff"/>
        <path d="M19.86 7.135c-.015.256.127.582.395.795 0-.042-.127-.241-.212-.412-.085-.199-.127-.355-.183-.383Zm.876 8.864c-.029-.412-.255-.71-.707-1.05.014.098.297.34.466.638.17.284.17.356.24.412Zm-.014-.426c-.057-.042-.1-.199-.24-.426-.142-.242-.382-.483-.396-.554.367.27.607.653.636.98Zm-.057-.54c-.042-.042-.085-.156-.184-.326-.113-.185-.296-.37-.31-.427.296.2.48.483.494.753Zm-.056-.554c0-.184-.142-.383-.34-.497.015.043.128.156.212.284.071.114.1.185.128.213Zm-.212-7.785c-.071.242 0 .583.226.867.014-.057-.071-.27-.128-.469-.042-.184-.056-.37-.098-.398Zm-2.502 9.15c-.212.013-.254-.03-.268-.242.099.099.183.142.268.241Zm-.283-.37c.142.142.283.227.424.383.071.029.142.029.212-.028-.226-.242-.438-.384-.678-.625l.042.27Zm-.056-.398c.297.298.523.483.791.767.085.043.142.043.184 0-.325-.412-.622-.724-.947-1.136-.028.127-.028.255-.028.369Zm.056-.455c.368.426.721.796 1.103 1.265.113.057.198.057.24.014-.367-.483-.834-1.009-1.258-1.534-.028.07-.042.127-.07.184-.015.029-.015.043-.015.071Zm.1-.355c.48.554.918 1.052 1.427 1.662a.2.2 0 0 0 .198.015 18.132 18.132 0 0 1-.453-.54c-.41-.512-.65-.782-1.116-1.35a1.192 1.192 0 0 1-.057.213Zm.084-.298c.509.568.693.824 1.244 1.477.056.086.353.384.41.455.07.142.31.142.198.043-.1-.114 0-.029-.142-.213-.452-.555-1.201-1.464-1.653-2.032-.014.1-.043.185-.057.27Zm.07-.341c.015-.085.03-.156.043-.227.424.54 1.258 1.548 1.739 2.145.254.312.24.298.381.454 0 .071-.056.043-.155.015-.128-.143-.113-.128-.24-.299-.594-.696-1.244-1.506-1.767-2.088Zm.043-.298c.029-.1.029-.213.043-.313.452.71 1.102 1.463 1.823 2.131-.057-.284-.961-1.065-1.512-1.804a6.92 6.92 0 0 1-.283-.54c.014-.085.014-.156.028-.256.382.782.99 1.506 1.837 2.245-.099-.256-.975-.966-1.441-1.719a5.072 5.072 0 0 1-.368-.739v-.128c.382.768 1.046 1.563 1.838 2.245-.085-.256-.99-.995-1.428-1.719a6.311 6.311 0 0 1-.381-.753v-.142c.367.739 1.187 1.733 1.936 2.387-.085-.242-1.103-1.137-1.526-1.833a5.426 5.426 0 0 1-.382-.781v-.2c.31.74 1.102 1.72 1.88 2.359-.085-.242-1.06-1.051-1.456-1.719a4.526 4.526 0 0 1-.396-.824c0-.07 0-.156.014-.213.269.753 1.018 1.662 1.81 2.273-.085-.213-.99-.952-1.357-1.577-.24-.412-.354-.682-.439-.88 0-.086 0-.157.015-.242.226.739.932 1.634 1.724 2.259-.057-.213-.905-.881-1.272-1.478-.269-.454-.354-.753-.438-.952v-.042c.014-.085.014-.185.028-.27.155.739.834 1.69 1.64 2.344-.057-.185-.834-.853-1.16-1.407-.31-.525-.381-.838-.48-1.008.24-2.046 1.102-3.253 2.36-3.466l.028.014c-.042.241 0 .54.142.824.028-.057-.043-.341-.057-.583V6.61l.113.029c.014.284.113.554.24.582-.098-.156-.113-.355-.113-.526l.156.043c0 .298.099.625.24.64-.127-.171-.127-.398-.113-.583l.028.014c.029.114.071.227.128.284.056-.07.028-.213-.015-.37.156-.084.34-.07.537.058.071.085.043.128-.056.128h-.099l.226.099c.014.028.057.057-.07.071l-.085.071.296.028c.1.043.085.072.057.114l-.07.085c.254 0 .522.057.847.228-.014.113-.141.1-.381-.029.056.142.282.157.268.242-.028.156-.367.014-.523.213l.382.014c.085.057.056.1-.07.1.197.241.352.312.409.142.057-.128.113-.128.17 0 .24.142.282.156.14.184l-.225.043.268.042c.071.029.071.086.029.128-.184.029-.198.057.14.071.142.071.199.142.142.2-.297.013-.282.056.07.084.086.043.114.1.1.143-.184.042-.156.085.07.085.029.042.057.07.015.113-.212.057-.184.086.084.086.015.1.17.085.227.213.226-.043.325.113.127.113l-.014.043c.325.014.466.1.424.298-.029.086-.467-.17-.283.512l.07.07c.128.03-.014-.312.198-.283.029.014.057.113.015.284-.043.156-.142.227-.297.128-.142-.1-.226-.2-.212-.313l.014-.213c-.155.014-.184-.085-.198-.242 0-.028-.056-.014-.042-.056-.255-.043-.368.042-.438.227-.015.071-.071.014-.1-.057.015-.042-.084.014-.14-.014-.043 0-.029-.1-.071-.085-.029 0-.029.042-.085.042-.043-.014-.028-.113-.113-.028-.057.057-.07.057-.085-.028.014-.072.07-.214-.085-.015-.056.029-.07.029-.099-.042-.085-.242-.141-.256-.17-.043-.042.085-.084.1-.084-.028-.085-.37-.099-.37-.07-.015-.015.157-.057.143-.142-.042-.099-.299-.141.028-.212-.114-.099-.17-.028-.412-.198-.483l.099.497c0 .071-.113.086-.127-.028-.057-.327-.269-.895-.226-.71l.127.682c.014.056-.141.028-.17-.057l-.17-.853c-.042-.241-.042.455.057.753 0 .043-.113.043-.099-.014 0-.07-.127-.88-.17-.838-.098.1.17.91-.042.781-.028-.014-.099-.824-.127-.838-.014 0 0 .781-.028.767-.226-.284.014-1.051-.141-1.094-.029 0-.1.938-.128.91.1.724.679.752.636.966l-.41-.213c.114.213.283.44.396.681-.127.043.014.213.1.299-.128-.014-.1.07.14.298.057.043.071.085.057.128-.297-.071-.325-.071.155.312-.296-.042-.31-.014.029.213a.38.38 0 0 1 .141.214c.014.056-.042.028-.07.028-.057-.028-.142-.085-.17-.1-.085-.014-.028.1.367.398.1.085.142.156.07.185-.48-.298-.451-.227.072.227.127.2.14.284.099.313-.424-.355-.707-.583.028.156.127.128.155.213.056.227-.735-.554-.339-.184.156.327.028.029 0 .071-.029.057-.706-.526-.734-.398.015.383.028.071.07.128.042.185-.014.029-.07 0-.099-.014-.509-.483-.466-.384.113.412.085.128.127.241-.014.17-.636-.724-.834-.88-.014.228.085.142.099.213-.014.17-.58-.795-.594-.696-.029.156.043.1.043.114 0 .1-.522-.64-.678-.796-.028.142.085.17.07.199-.014.114-.636-.796-.65-.696-.028.128.056.099.085.156-.014.113-.735-.838-.735-.81-.029.1.015.227.015.213-.127.099-.07-.085-.07-.156-.141-.227-.452-.554-.509-.512.028.198-.056.057-.127.057-.212-.014-.466-.61-.509-.61-.141-.028l-.255-.043a.634.634 0 0 0-.14-.184c-.439-.426-.594-.47-.156.085.014.014-.029.028-.014.043l-.495-.086a.241.241 0 0 1-.184-.1c-.212-.368-.339-.51-.692-.852.028.128.297.356.509.71.056.228-.198.129-.283.086-.156-.213-.212-.242-.438-.511-.636-.753-1.315-1.606-1.866-2.202Zm1.71-5.967c.043.029.1.213.212.426.113.228.283.44.297.512-.34-.27-.523-.64-.509-.938Zm-.212.227c.057.057.1.242.226.498.142.255.368.511.368.596-.368-.312-.594-.738-.594-1.094Zm-.198.256c.071.057.114.27.269.554.155.284.424.583.438.668-.438-.341-.707-.824-.707-1.222Zm-.17.256c.015.44.326.98.806 1.364-.014-.1-.339-.427-.508-.753-.184-.313-.227-.54-.297-.611Zm-.155.27c.029.483.368 1.065.919 1.506-.028-.114-.396-.483-.594-.839-.197-.355-.254-.596-.325-.667Zm-.14.27c.041.525.423 1.165 1.017 1.633-.029-.127-.453-.511-.665-.909-.226-.383-.268-.64-.353-.724Zm-.142.27c.056.582.494 1.264 1.13 1.775-.028-.142-.494-.568-.749-.994-.226-.412-.282-.682-.381-.781Zm-.113.27c.056.625.537 1.363 1.23 1.917-.043-.156-.552-.61-.82-1.065-.255-.455-.311-.739-.41-.852Zm-.1.284c.057.667.58 1.463 1.33 2.06-.057-.171-.609-.668-.905-1.165-.283-.483-.325-.782-.424-.895Zm-.112.27c.099.71.692 1.619 1.484 2.258-.057-.184-.707-.767-1.018-1.293-.297-.525-.353-.823-.466-.965Zm1.865-2.799c.043.014.1.17.156.327.056.142.141.298.141.34-.226-.184-.325-.454-.297-.667Zm3.689 3.75c-.156-.156-.255.029-.043.228.184.17.382.113.325.056l-.282-.284Zm-1.145-1.761c-.028 0 .014.17.028.256 0 .085.029.142.085.213.057.07.085.085.07.056-.056-.156-.112-.298-.127-.426 0-.057-.028-.085-.056-.1Zm-.198-.213c-.028 0 .014.199.014.298 0 .085.029.17.085.256.057.07.085.1.07.07-.056-.198-.112-.354-.112-.51-.014-.072-.043-.1-.057-.114Zm-.212-.213c-.028-.015.014.213.014.326a.5.5 0 0 0 .085.313c.057.085.085.113.07.07-.042-.212-.112-.397-.112-.582 0-.085-.014-.113-.057-.127Zm-.198-.213c-.028-.029 0 .241 0 .369a.642.642 0 0 0 .071.355c.07.1.099.128.085.085-.043-.255-.1-.469-.1-.667 0-.1-.027-.128-.056-.142Zm-.198-.228c-.028-.014 0 .284-.014.426a.717.717 0 0 0 .071.384c.056.128.099.156.085.114-.043-.284-.1-.526-.085-.753 0-.1-.028-.142-.057-.17Zm-.212-.213c-.028-.028 0 .298-.014.469a.759.759 0 0 0 .071.426c.057.142.085.17.085.128-.043-.313-.1-.582-.085-.838.014-.114-.014-.156-.057-.185Zm-.183.014c-.014-.028-.014.242-.029.37a.612.612 0 0 0 .057.355c.042.114.07.142.07.1-.028-.256-.07-.47-.056-.668.014-.1-.014-.128-.042-.157Zm-.156 0c-.028-.014-.028.2-.042.299a.458.458 0 0 0 .028.27c.043.099.057.113.057.085-.014-.2-.043-.37-.014-.526.014-.07-.015-.1-.029-.128Z" fill="#fff"/>
        <path d="M6.759 2.745c.424.526.82 1.023 1.272 1.62 0 .1-.043.156-.156.156-.466-.668-.82-1.208-1.173-1.719-.07-.1.014-.114.057-.057Zm2.134 3.651c.042.114-.043.17-.127.057-.184-.213-.142-.483.056-.725.212-.255.48-.255.72-.07.142.113.1.127-.07.127-.48 0-.664.242-.58.611Zm.494-.227c-.198-.071-.254.014-.212.227 2.827 4.006 7.109 9.86 12.154 16.763l-.028.1.424.241-.141-.568-.085.057c-3.887-5.455-8.395-11.877-12.112-16.82Z" fill="#E2B700"/>
        <path d="M16.242 7.22c0-.1.367-.355.848-.682a.922.922 0 0 1 .593-.227.676.676 0 0 0 .255.014c.113.071.07.128-.057.156-.057-.042-.113-.056-.17-.028-.127.028-.141.114-.226.142l-.056-.085c-.17.113-.283.426-.41.582l-.028-.156c-.085.014-.142.199-.269.298.014-.113-.014-.17-.056-.17-.212.142-.368.213-.424.156Zm-5.611 7.444c.127 0 .24.043.24.085 0 .057-.113.1-.24.1-.141 0-.254-.043-.254-.1 0-.042.113-.085.254-.085Zm.961-.199c.085-.128.184-.184.212-.156.028.043-.014.17-.085.284-.085.128-.183.199-.212.156-.028-.028.014-.156.085-.284Zm-.31.17c.056-.099.126-.156.155-.127.028.028 0 .128-.057.227-.07.1-.141.156-.17.128-.028-.028 0-.128.071-.227Zm-.284.058c.057-.086.114-.128.128-.114.028.028 0 .114-.043.199-.056.07-.113.113-.141.1-.014-.03 0-.114.056-.185Zm-4.706-1.01-.056.157c.07.014.127-.085.198-.128l-.057.256c.085.014.283-.199.424-.298l-.099.255c.127 0 .212-.184.311-.284l-.056.27c.155-.014.254-.213.381-.327l-.028.256c.113-.014.198-.17.31-.27l.057.185c.1.014.156-.128.24-.185l.043.17.212-.213.042.185.24-.085.071.1.198-.1-.014.213.269-.114.028.142.198-.113v.184l.226-.056.014.17.34-.142-.114.256.297-.185-.043.2.325-.143-.183.298c.212.014.282-.142.424-.213l-.1.27c.213-.043.396-.213.58-.44.043.07.014.184-.141.426.226-.1.34-.256.424-.426l-.07.298c.14-.014.282-.128.41-.327l-.015.284a.774.774 0 0 0 .254-.34c.142.056.297-.029.354-.256.084-.213.028-.284-.156-.213-.608.426-1.413.54-2.6.184-.763-.213-1.555-.241-2.346-.27-.353-.014-.65.043-.792.37Zm1.795-3.053c.057-.1.17-.185.311-.27l.028.128.34-.114.028.114.367-.2c-.212.27-.254.384-.183.384.056 0 .325-.312.41-.227-.184.284-.015.199.296-.057.085.028-.113.227-.085.256.029.028.142-.057.368-.213.056-.043.183-.185.212-.114.014.085-.07.128-.113.185-.226.27-.17.227.226-.029.056-.028.141-.1.198-.07-.269.354-.156.283.24.042.056-.029.127-.128.198-.057-.495.44-.41.497.226.185-.297.34-.226.355.24.056.043-.014.1 0 .156-.028-.212.213-.24.37-.142.313.156-.071.354-.157.453-.128-.198.199-.184.284.07.241.085.029 0 .128-.254.299-.043.07-.085 0-.127-.17-.029.099-.071.099-.113.042l-.057.37-.085-.015v-.213c-.042-.057-.085-.057-.127 0l-.07.284-.128-.071a.61.61 0 0 1-.198.27c-.085-.114-.141-.085-.17.014-.056.014-.084-.028-.14-.014-.043.128-.085.156-.156.07a1.703 1.703 0 0 0-.325.257l-.057-.143c-.099.143-.183.228-.24.2l-.099-.1-.155.256-.255.07c0 .072.1.072.269.043.226-.028.664-.128.947-.213.282-.085.593-.128.933-.27.268-.127.579-.355.89-.511.07.057.014.199-.58.668l-.282-.086.155.213c-.07.072-.127.1-.198.086l-.254-.128.085.27c-.184 0-.269-.228-.438-.128l.07.213-.381-.114.07.256-.325-.142-.07.142c-.1 0-.156.029-.17.071.75.128 1.569-.142 2.417-.554.042-.014.056.014.056.085-.07.341-.31.64-.692.91l.113-.455c-.254.114-.537.668-.75.739l.227-.597-.664.554c-.057-.071.028-.227.17-.426-.198 0-.538.469-.594.44-.142-.07.113-.213.17-.312-.184-.015-.312.156-.467.241-.014-.085.085-.185.254-.34l-.55.255c0-.1.211-.185.254-.327-.255.17-.48.284-.537.27l.17-.27-.481.256.296-.313-.508.242.141-.27-.367.241.155-.298c-.184.156-.353.256-.452.256.099-.128.17-.228.155-.299-.17.143-.339.242-.41.242l.071-.242a1.188 1.188 0 0 1-.466.299l.17-.284c.028-.043.013-.1-.043-.057l-.382.312c.085-.156.127-.255.07-.298l-.268.142.029-.156-.311.34c-.043-.013.014-.099.056-.255l-.325.213c.17-.34.453-.568.834-.682.452-.142.806-.156 1.088-.199.495-.07.806-.113 1.202-.298.183-.071.395-.156.621-.34.113-.086.071-.115-.056-.1l-.509.028v-.227l-.198.27-.042-.27-.17.469-.07-.54-.128.582-.07-.568-.212.654-.057-.682-.127.696-.127-.71-.085.71-.141-.668-.057.64-.184-.654-.014.682-.212-.654-.042.583-.141-.569-.057.512-.113-.469-.07.511c-.213-.397-.297-.724-.156-.909.212-.241.495-.298.777-.255ZM9.698 9.08c.043 0 .085.057.113.156.029.1.029.185.014.185-.042.014-.084-.057-.113-.156-.028-.085-.028-.17-.014-.185Zm-1.441-.17c.212-.327.381-.427.494-.17.142-.455.297-.498.495-.1.269 0 .325.412.283 1.023l-.255-.682v.44c-.17-.753-1.257-.312-1.017-.511Zm4.692-2.472c.31.028.622.142.918.312.014.043.029.071-.028.043-.113-.085-.212-.128-.297-.128.029.128.014.185-.042.17-.113-.198-.212-.227-.297-.184-.028.014-.042.028-.07.014-.085-.185-.128-.185-.17-.114-.085-.07-.085-.113-.014-.113Zm-1.597.085c-.07.043-.07.071-.014.085.099-.085.198-.1.325.029 0-.185.07-.17.226.056-.057-.227 0-.284.24.057 0-.184.014-.213.17.1.042.057.084.057.099.028-.085-.327-.043-.312.14.029.057.07.086.07.086.028-.014-.227.085-.185.296.128.057.07.085.1.1.028-.043-.184.042-.17.226.057.14-.014.339.1.593.327.028.042.057.057.085.042-.141-.255.028-.156.254 0 .142-.07.156-.113.071-.142-.48-.17-.876-.355-1.159-.568-.325-.256-.466-.185-.848-.426-.325-.142-.622-.071-.89.142Zm-.693.455c-.17.056-.17.127-.014.156a.4.4 0 0 0 .184 0c.099-.014.141 0 .184.085.07.142.155.199.226.156.042-.042-.269-.27-.113-.27h.084c.24.228.467.356.453.313l-.1-.256c-.027-.085.1-.042.156.014l.325.285c.043.056 0-.043-.056-.228-.028-.057.056-.057.113 0 .198.2.438.54.438.412v-.128c0-.056.07-.056.113 0 .113.142.269.27.254.214l-.028-.114c-.014-.071.043-.071.127 0l.34.284c.07.057.127.028.098-.014l-.056-.085c-.043-.071-.014-.086.07-.029l.297.213c.057.043.057-.014-.028-.142h.17c.028.1.099.128.268.199.043.028.057-.028.141-.057l.41-.128c.127-.042.113-.127 0-.1-.593.157-1.215-.141-1.88-.51-.876-.47-1.582-.47-2.176-.27Zm5.823.326c.028.029 0 .071-.043.128-.042.043-.098.057-.127.043-.014-.029 0-.085.043-.128.056-.043.099-.057.127-.043Zm.452.114c-.099-.071-.141.1.028.043l.24-.213c.114-.2.043.056.114.042.085-.028.212-.284.183-.383l.198-.1c.113-.1.085-.142-.07-.128a2.538 2.538 0 0 0-.523.512l-.17.227Z" fill="#0092D0"/>
    </g>
    <defs>
        <clipPath id="a">
            <path fill="#fff" d="M0 0h31v37H0z"/>
        </clipPath>
    </defs>
</svg>
