<svg width="145" height="52" fill="none" xmlns="http://www.w3.org/2000/svg">
    <rect x="1" y="1" width="50" height="50" rx="3" stroke="#fff" stroke-width="2"/>
    <path d="M78.71 11.4V24h-3.222v-9.486h-3.276V24H68.99V11.4h9.72Zm8.215 3.6h2.988v9h-2.988v-.828c-.612.72-1.464 1.08-2.556 1.08-1.2 0-2.208-.45-3.024-1.35-.804-.912-1.206-2.046-1.206-3.402 0-1.356.402-2.484 1.206-3.384.816-.912 1.824-1.368 3.024-1.368 1.092 0 1.944.36 2.556 1.08V15Zm-3.258 5.922c.348.36.804.54 1.368.54.564 0 1.02-.18 1.368-.54.348-.36.522-.834.522-1.422s-.174-1.062-.522-1.422c-.348-.36-.804-.54-1.368-.54-.564 0-1.02.18-1.368.54-.348.36-.522.834-.522 1.422s.174 1.062.522 1.422Zm12.317 3.33c-1.368 0-2.508-.456-3.42-1.368-.912-.912-1.368-2.04-1.368-3.384 0-1.344.456-2.472 1.368-3.384.912-.912 2.052-1.368 3.42-1.368.888 0 1.692.21 2.412.63a4.41 4.41 0 0 1 1.692 1.692l-2.556 1.476c-.324-.588-.846-.882-1.566-.882a1.68 1.68 0 0 0-1.26.522c-.336.336-.504.774-.504 1.314s.168.984.504 1.332c.336.336.756.504 1.26.504.744 0 1.266-.3 1.566-.9l2.556 1.476c-.396.72-.96 1.29-1.692 1.71-.72.42-1.524.63-2.412.63ZM109.672 15v9h-2.988v-6.174h-2.646V24h-2.988v-9h8.622Zm6.087 9.252c-1.332 0-2.466-.456-3.402-1.368-.936-.924-1.404-2.052-1.404-3.384 0-1.332.468-2.454 1.404-3.366.936-.924 2.07-1.386 3.402-1.386 1.344 0 2.478.462 3.402 1.386.936.912 1.404 2.034 1.404 3.366 0 1.332-.468 2.46-1.404 3.384-.924.912-2.058 1.368-3.402 1.368Zm0-2.88c.528 0 .96-.174 1.296-.522.348-.348.522-.798.522-1.35s-.174-1.002-.522-1.35c-.336-.348-.768-.522-1.296-.522-.516 0-.948.174-1.296.522-.336.348-.504.798-.504 1.35s.168 1.002.504 1.35c.348.348.78.522 1.296.522Zm11.665-6.624c1.2 0 2.202.456 3.006 1.368.816.9 1.224 2.028 1.224 3.384 0 1.356-.408 2.49-1.224 3.402-.804.9-1.806 1.35-3.006 1.35-1.092 0-1.944-.36-2.556-1.08V27.6h-2.988V15h2.988v.828c.612-.72 1.464-1.08 2.556-1.08Zm-2.034 6.174c.348.36.804.54 1.368.54.564 0 1.02-.18 1.368-.54.348-.36.522-.834.522-1.422s-.174-1.062-.522-1.422c-.348-.36-.804-.54-1.368-.54-.564 0-1.02.18-1.368.54-.348.36-.522.834-.522 1.422s.174 1.062.522 1.422ZM140.125 15v2.862h-2.574V24h-2.988v-6.138h-2.61V15h8.172ZM81.842 28.4V41h-3.204v-6.786l-3.06 5.058h-.324l-3.042-5.04V41H68.99V28.4h3.222l3.204 5.382 3.222-5.382h3.204Zm14.17 2.826c.984.9 1.475 2.058 1.475 3.474 0 1.416-.491 2.58-1.475 3.492-.984.9-2.353 1.458-4.105 1.674v1.494h-3.096v-1.494c-1.752-.216-3.126-.774-4.122-1.674-.983-.912-1.475-2.076-1.475-3.492s.492-2.574 1.475-3.474c.997-.912 2.37-1.476 4.123-1.692V28.04h3.096v1.494c1.751.216 3.12.78 4.103 1.692ZM86.435 34.7c0 1.248.791 1.986 2.375 2.214v-4.482c-.816.12-1.416.366-1.8.738-.383.372-.575.882-.575 1.53Zm5.471 2.214c.817-.12 1.416-.36 1.8-.72.385-.372.577-.87.577-1.494 0-.648-.193-1.158-.577-1.53-.383-.372-.983-.618-1.8-.738v4.482Zm16.813.972h1.44v5.526h-3.222V41h-8.1V28.4h3.312v9.486h3.276V28.4h3.294v9.486ZM35.73 11H14v30h21.731a2.976 2.976 0 0 0 2.975-2.97V13.97A2.976 2.976 0 0 0 35.73 11ZM15.766 39.235v-26.47h16.402c.686 0 1.245.54 1.245 1.204V38.03c0 .665-.559 1.205-1.245 1.205H15.765Zm21.176-1.204c0 .664-.543 1.204-1.21 1.204h-.814c.166-.368.26-.776.26-1.204V13.97c0-.43-.094-.837-.26-1.205h.814c.667 0 1.21.54 1.21 1.204v24.062Z" fill="#fff"/>
    <path d="M24.588 14.53a7.067 7.067 0 0 0-7.059 7.058 7.067 7.067 0 0 0 7.06 7.059 7.067 7.067 0 0 0 7.058-7.059 7.067 7.067 0 0 0-7.059-7.059Zm5.22 6.176H27.8c-.073-1.419-.322-2.739-.719-3.787a5.309 5.309 0 0 1 2.727 3.787Zm-5.22 6.176c-.098 0-.478-.294-.84-1.24-.322-.848-.534-1.971-.604-3.171h2.889c-.07 1.2-.283 2.323-.606 3.17-.36.947-.74 1.241-.839 1.241Zm-1.444-6.176c.07-1.2.282-2.323.605-3.171.36-.947.741-1.241.84-1.241.097 0 .478.294.838 1.24.323.849.535 1.972.606 3.172h-2.89Zm-1.048-3.787c-.398 1.048-.647 2.368-.72 3.787h-2.008a5.309 5.309 0 0 1 2.728-3.787Zm-2.728 5.552h2.008c.073 1.418.322 2.738.72 3.787a5.31 5.31 0 0 1-2.728-3.787Zm7.713 3.787c.397-1.049.646-2.369.72-3.787h2.007a5.31 5.31 0 0 1-2.727 3.787ZM20.177 31.294H29v1.765h-8.823v-1.765ZM21.941 34.823h5.294v1.765h-5.294v-1.765Z" fill="#fff"/>
</svg>
