<svg width="48" height="62" viewBox="0 0 48 62" fill="none" xmlns="http://www.w3.org/2000/svg">
<path d="M37.6101 43.3982C37.0973 43.3982 36.6819 43.8137 36.6819 44.3263V54.935C36.6819 57.2832 34.7713 59.1936 32.4231 59.1936H7.06513C4.71683 59.1936 2.80638 57.2832 2.80638 54.935V7.06513C2.80638 4.71683 4.71694 2.80638 7.06513 2.80638H32.423C34.7712 2.80638 36.6818 4.71683 36.6818 7.06513V12.7832C36.6818 13.2958 37.0972 13.7114 37.61 13.7114C38.1227 13.7114 38.5381 13.2958 38.5381 12.7832V7.06513C38.5383 3.69313 35.795 0.95 32.4231 0.95H7.06513C3.69325 0.95 0.95 3.69313 0.95 7.06513V54.935C0.95 58.3069 3.69313 61.05 7.06513 61.05H32.423C35.795 61.05 38.5381 58.3069 38.5381 54.935V44.3263C38.5383 43.8137 38.1227 43.3982 37.6101 43.3982Z" fill="#0037A1" stroke="#0037A1" stroke-width="0.1"/>
<path d="M28.3226 5.31585L28.3226 5.31583C28.5069 4.80542 28.9948 4.46282 29.5369 4.46282H32.4231C33.8582 4.46282 35.0255 5.63013 35.0255 7.06519V12.7535C35.0255 13.2661 34.6101 13.6817 34.0973 13.6817C33.5846 13.6817 33.1691 13.2662 33.1691 12.7536V7.06519C33.1691 6.65383 32.8344 6.3192 32.4231 6.3192H29.9342L29.9271 6.33896L28.3226 5.31585ZM28.3226 5.31585L28.1807 5.7094L28.1807 5.7094M28.3226 5.31585L28.1807 5.7094M28.1807 5.7094C27.9847 6.25325 27.4643 6.61883 26.8862 6.61883M28.1807 5.7094L26.8862 6.61883M26.8862 6.61883H18.8824M26.8862 6.61883H18.8824M18.8824 6.61883C18.3698 6.61883 17.9542 7.03441 17.9542 7.54702M18.8824 6.61883L17.9542 7.54702M17.9542 7.54702C17.9542 8.05963 18.3698 8.47521 18.8824 8.47521M17.9542 7.54702L18.8824 8.47521M18.8824 8.47521H26.8862M18.8824 8.47521H26.8862M26.8862 8.47521C28.2445 8.47521 29.4664 7.61684 29.927 6.339L26.8862 8.47521Z" fill="#0037A1" stroke="#0037A1" stroke-width="0.1"/>
<path d="M29.136 17.3606L29.136 17.3606C31.0686 15.974 33.3511 15.241 35.7359 15.241C41.9851 15.241 47.069 20.3251 47.0691 26.5742C47.0691 28.883 45.6344 31.853 42.8224 35.3983C40.6582 38.127 38.2436 40.4923 36.9972 41.6593L36.963 41.6228L36.9972 41.6593C36.6435 41.9903 36.1896 42.1559 35.736 42.1559C35.2823 42.1559 34.8285 41.9903 34.4749 41.6591C33.2284 40.4924 30.8141 38.1273 28.6497 35.3983C25.8377 31.8531 24.4029 28.8831 24.4029 26.5742C24.4029 24.3268 25.0602 22.1539 26.3036 20.2908C26.588 19.8645 27.1645 19.7494 27.5908 20.034C28.0171 20.3186 28.1322 20.8949 27.8476 21.3213M29.136 17.3606L27.806 21.2935M29.136 17.3606C28.7196 17.6595 28.624 18.2394 28.9229 18.6559C29.2219 19.0726 29.802 19.1677 30.2182 18.869M29.136 17.3606L29.1652 17.4012C28.7712 17.684 28.6808 18.2327 28.9636 18.6267C29.2465 19.021 29.7953 19.111 30.189 18.8284M27.8476 21.3213L27.806 21.2935M27.8476 21.3213C27.8476 21.3213 27.8476 21.3213 27.8476 21.3213L27.806 21.2935M27.8476 21.3213C26.8085 22.8784 26.2592 24.6947 26.2592 26.5742C26.2592 27.4619 26.5626 28.495 27.0929 29.6149C27.623 30.7342 28.378 31.9369 29.2773 33.1628C31.0739 35.612 33.4434 38.1502 35.7359 40.297M27.806 21.2935C26.7614 22.8589 26.2092 24.6848 26.2092 26.5742C26.2092 30.167 31.1166 36.0411 35.7093 40.3406C35.7246 40.355 35.747 40.3551 35.7625 40.3406C40.3552 36.041 45.2626 30.1666 45.2626 26.5742C45.2626 21.3212 40.9889 17.0475 35.7359 17.0475C33.731 17.0475 31.8129 17.6633 30.189 18.8284M35.7359 40.297C35.7334 40.2994 35.7309 40.3017 35.7283 40.3041C35.7297 40.3028 35.7324 40.3014 35.7359 40.3014C35.7393 40.3015 35.742 40.3028 35.7435 40.3041C35.741 40.3017 35.7384 40.2994 35.7359 40.297ZM35.7359 40.297C38.0284 38.1501 40.3979 35.6118 42.1945 33.1626C43.0938 31.9367 43.8489 30.734 44.3789 29.6147C44.9092 28.4948 45.2126 27.4618 45.2126 26.5742C45.2126 21.3489 40.9613 17.0975 35.7359 17.0975C33.7414 17.0975 31.8335 17.71 30.2182 18.869M30.2182 18.869L30.189 18.8284M30.2182 18.869C30.2182 18.869 30.2182 18.869 30.2182 18.869L30.189 18.8284" fill="#E93123" stroke="#E93123" stroke-width="0.1"/>
<path d="M42.0935 26.5742C42.0935 23.0686 39.2415 20.2166 35.7359 20.2166C32.2303 20.2166 29.3784 23.0686 29.3784 26.5742C29.3784 30.0798 32.2303 32.9317 35.7359 32.9317C39.2415 32.9317 42.0935 30.0798 42.0935 26.5742ZM31.2348 26.5742C31.2348 24.0923 33.2541 22.073 35.7359 22.073C38.2179 22.073 40.2372 24.0923 40.2372 26.5742C40.2372 29.0561 38.2178 31.0754 35.7359 31.0754C33.254 31.0754 31.2348 29.0561 31.2348 26.5742Z" fill="#E93123" stroke="#E93123" stroke-width="0.1"/>
<path d="M16.1986 43.8268C15.7921 43.4571 15.1649 43.4672 14.771 43.8499L6.31938 52.0502V48.1108L12.8825 41.7428C13.2505 41.3859 13.2593 40.7982 12.9023 40.4304C12.5453 40.0624 11.9578 40.0535 11.5899 40.4106L6.31938 45.5242V7.06519C6.31938 6.65383 6.65401 6.3192 7.06537 6.3192H9.67137L9.67854 6.33908C9.67854 6.33908 9.67855 6.33909 9.67855 6.33909C10.1392 7.61695 11.3611 8.47533 12.7194 8.47533H15.14C15.6526 8.47533 16.0682 8.05975 16.0682 7.54714C16.0682 7.03453 15.6526 6.61895 15.14 6.61895H12.7194C12.1412 6.61895 11.6209 6.2535 11.4248 5.70953C11.4248 5.70953 11.4248 5.70952 11.4248 5.70952L11.283 5.31611C11.0992 4.80577 10.6111 4.46294 10.0687 4.46294H7.06537C5.63031 4.46294 4.463 5.63025 4.463 7.06531V54.9352C4.463 56.3702 5.63031 57.5375 7.06537 57.5375H32.4233C33.8583 57.5375 35.0256 56.3702 35.0256 54.9352V44.4292C35.0256 43.9166 34.6102 43.501 34.0974 43.501C33.5847 43.501 33.1693 43.9166 33.1693 44.4292V52.9187L20.2183 41.1509L25.8158 35.7199C26.1837 35.3629 26.1926 34.7752 25.8356 34.4073C25.4787 34.0393 24.8912 34.0304 24.5231 34.3875L18.3038 40.4218C18.0979 40.6216 17.9824 40.9007 17.9872 41.1875C17.992 41.4745 18.1165 41.7494 18.3287 41.9421L33.0582 55.326C32.9265 55.539 32.6911 55.681 32.4231 55.681H29.2446L16.1986 43.8268ZM6.31914 54.9351V54.6368L15.5151 45.7143L26.484 55.681H7.06514C6.65388 55.6809 6.31914 55.3463 6.31914 54.9351Z" fill="#0037A1" stroke="#0037A1" stroke-width="0.1"/>
<path d="M22.1348 30.1788L22.1696 30.2146L22.1348 30.1788L14.276 37.804C14.276 37.804 14.276 37.804 14.276 37.804C13.908 38.1609 13.8992 38.7486 14.2562 39.1164C14.4382 39.304 14.6802 39.3982 14.9223 39.3982C15.1551 39.3982 15.3883 39.3111 15.5686 39.1362L15.5686 39.1362L23.4275 31.5111C23.7954 31.1542 23.8043 30.5665 23.4473 30.1986C23.0905 29.8308 22.5029 29.8218 22.1348 30.1788Z" fill="#0037A1" stroke="#0037A1" stroke-width="0.1"/>
<path d="M14.086 28.1152C14.5987 28.1152 15.0142 27.6996 15.0142 27.187V22.9977C16.6917 22.581 17.9392 21.0634 17.9392 19.2586C17.9392 17.1339 16.2108 15.4054 14.086 15.4054C11.9613 15.4054 10.2329 17.1339 10.2329 19.2586C10.2329 21.0634 11.4804 22.581 13.1579 22.9977V27.187C13.1579 27.6996 13.5734 28.1152 14.086 28.1152ZM12.0893 19.2586C12.0893 18.1576 12.9851 17.2618 14.086 17.2618C15.187 17.2618 16.0828 18.1576 16.0828 19.2586C16.0828 20.3596 15.1871 21.2554 14.086 21.2554C12.985 21.2554 12.0893 20.3596 12.0893 19.2586Z" fill="#E93123" stroke="#E93123" stroke-width="0.1"/>
</svg>
