<svg width="30" height="30" fill="none" xmlns="http://www.w3.org/2000/svg">
    <rect width="30" height="30" rx="2" fill="#5181B8"/>
    <path fill-rule="evenodd" clip-rule="evenodd" d="M22.633 11.61c.111-.352 0-.61-.53-.61h-1.75c-.445 0-.65.223-.761.469 0 0-.89 2.055-2.152 3.39-.408.386-.593.509-.816.509-.11 0-.272-.123-.272-.474v-3.285c0-.421-.129-.609-.5-.609h-2.75c-.279 0-.446.196-.446.381 0 .4.63.492.695 1.616v2.441c0 .536-.102.633-.324.633-.593 0-2.037-2.065-2.893-4.426-.168-.46-.336-.645-.783-.645H7.6C7.1 11 7 11.223 7 11.469c0 .44.594 2.617 2.763 5.498C11.21 18.933 13.248 20 15.102 20c1.113 0 1.25-.237 1.25-.645v-1.487c0-.473.106-.568.458-.568.26 0 .705.123 1.743 1.072C19.74 19.495 19.936 20 20.603 20h1.75c.5 0 .75-.237.606-.704-.157-.466-.724-1.142-1.476-1.943-.408-.457-1.02-.949-1.205-1.195-.26-.316-.186-.456 0-.737 0 0 2.132-2.845 2.355-3.811Z" fill="#fff"/>
</svg>
