<svg width="19" height="19" viewBox="0 0 19 19" fill="none" xmlns="http://www.w3.org/2000/svg">
<path d="M18.9504 6.88062C18.8261 6.49589 18.4848 6.22264 18.0811 6.18625L12.5972 5.68831L10.4287 0.612754C10.2688 0.240782 9.90467 0 9.50008 0C9.09549 0 8.73134 0.240782 8.57145 0.613624L6.40297 5.68831L0.918186 6.18625C0.515192 6.22351 0.174822 6.49589 0.0497195 6.88062C-0.0753826 7.26535 0.040152 7.68733 0.345007 7.95334L4.49019 11.5887L3.26787 16.973C3.17843 17.3689 3.33209 17.7781 3.66058 18.0156C3.83714 18.1431 4.04371 18.2081 4.25202 18.2081C4.43163 18.2081 4.60979 18.1597 4.76968 18.064L9.50008 15.2368L14.2287 18.064C14.5748 18.2722 15.0109 18.2532 15.3387 18.0156C15.6673 17.7774 15.8209 17.368 15.7314 16.973L14.5091 11.5887L18.6543 7.95406C18.9591 7.68733 19.0755 7.26607 18.9504 6.88062Z" fill="#FFC107"/>
</svg>
