<svg width="232" height="36" fill="none" xmlns="http://www.w3.org/2000/svg">
    <path d="M57.44 2.8v1.76h-4.48V14h-1.84V2.8h6.32Zm3.438 11.408c-1.174 0-2.17-.405-2.992-1.216-.822-.81-1.232-1.808-1.232-2.992s.41-2.181 1.232-2.992c.821-.81 1.818-1.216 2.992-1.216 1.184 0 2.181.405 2.992 1.216.821.81 1.232 1.808 1.232 2.992s-.41 2.181-1.232 2.992c-.81.81-1.808 1.216-2.992 1.216Zm-1.776-2.4c.48.48 1.072.72 1.776.72s1.296-.24 1.776-.72.72-1.083.72-1.808c0-.725-.24-1.328-.72-1.808s-1.072-.72-1.776-.72-1.296.24-1.776.72-.72 1.083-.72 1.808c0 .725.24 1.328.72 1.808Zm11.338 2.4c-1.205 0-2.213-.405-3.024-1.216-.8-.81-1.2-1.808-1.2-2.992 0-1.195.4-2.192 1.2-2.992.81-.81 1.819-1.216 3.024-1.216.779 0 1.488.187 2.128.56.64.373 1.12.875 1.44 1.504l-1.488.864a1.99 1.99 0 0 0-.832-.896c-.362-.224-.784-.336-1.264-.336-.704 0-1.296.24-1.776.72-.47.48-.704 1.077-.704 1.792 0 .715.235 1.312.704 1.792.48.48 1.072.72 1.776.72.47 0 .89-.112 1.264-.336a2.18 2.18 0 0 0 .864-.896l1.488.848a3.806 3.806 0 0 1-1.472 1.52c-.64.373-1.35.56-2.128.56ZM82.456 6v8h-1.728V7.632h-3.664V14h-1.728V6h7.12Zm5.781 8.208c-1.173 0-2.17-.405-2.992-1.216-.821-.81-1.232-1.808-1.232-2.992s.41-2.181 1.232-2.992c.822-.81 1.819-1.216 2.992-1.216 1.184 0 2.181.405 2.992 1.216.822.81 1.232 1.808 1.232 2.992s-.41 2.181-1.232 2.992c-.81.81-1.808 1.216-2.992 1.216Zm-1.776-2.4c.48.48 1.072.72 1.776.72s1.296-.24 1.776-.72.72-1.083.72-1.808c0-.725-.24-1.328-.72-1.808s-1.072-.72-1.776-.72-1.296.24-1.776.72-.72 1.083-.72 1.808c0 .725.24 1.328.72 1.808ZM103.496 6h1.728v8h-11.2V6h1.728v6.368h3.008V6h1.728v6.368h3.008V6Zm10.483 0v8h-1.728V7.664h-2.672v2.976c0 1.27-.278 2.17-.832 2.704-.555.533-1.344.752-2.368.656v-1.616c.49.085.858-.016 1.104-.304.245-.288.368-.795.368-1.52V6h6.128Zm7.805 0h1.328v8h-1.696V8.912L117.32 14h-1.328V6h1.696v5.072L121.784 6Zm8.725 0h1.728v8h-1.728v-3.184h-3.664V14h-1.728V6h1.728v3.184h3.664V6Zm10.069 0h1.728v8h-1.728v-1.152c-.65.907-1.584 1.36-2.8 1.36-1.098 0-2.037-.405-2.816-1.216-.778-.821-1.168-1.819-1.168-2.992 0-1.184.39-2.181 1.168-2.992.779-.81 1.718-1.216 2.816-1.216 1.216 0 2.15.448 2.8 1.344V6Zm-4.336 5.84c.48.48 1.083.72 1.808.72.726 0 1.328-.24 1.808-.72.48-.49.72-1.104.72-1.84s-.24-1.344-.72-1.824c-.48-.49-1.082-.736-1.808-.736-.725 0-1.328.245-1.808.736-.48.48-.72 1.088-.72 1.824s.24 1.35.72 1.84Zm17.615-1.952c.789.363 1.184.976 1.184 1.84 0 .672-.23 1.221-.688 1.648-.448.416-1.094.624-1.936.624h-4.096V6h3.776c.821 0 1.456.208 1.904.624.458.405.688.933.688 1.584 0 .757-.278 1.317-.832 1.68Zm-1.888-2.416h-2v1.776h2c.704 0 1.056-.299 1.056-.896 0-.587-.352-.88-1.056-.88Zm.288 5.024c.725 0 1.088-.315 1.088-.944 0-.277-.096-.49-.288-.64-.192-.16-.459-.24-.8-.24h-2.288v1.824h2.288ZM163.517 14h-2.063l-3.28-3.696V14h-1.728V6h1.728v3.536L161.278 6h2.112l-3.52 3.92 3.647 4.08Zm7.915-8v8h-1.728V7.664h-2.672v2.976c0 1.27-.277 2.17-.832 2.704-.555.533-1.344.752-2.368.656v-1.616c.491.085.859-.016 1.104-.304.245-.288.368-.795.368-1.52V6h6.128Zm9.15-.208c1.173 0 2.17.405 2.992 1.216.821.81 1.232 1.808 1.232 2.992s-.411 2.181-1.232 2.992c-.822.81-1.819 1.216-2.992 1.216-1.035 0-1.931-.315-2.688-.944-.747-.64-1.211-1.456-1.392-2.448h-1.328V14h-1.728V6h1.728v3.184h1.328c.181-.992.645-1.803 1.392-2.432.757-.64 1.653-.96 2.688-.96Zm-1.776 6.016c.48.48 1.072.72 1.776.72s1.296-.24 1.776-.72.72-1.083.72-1.808c0-.725-.24-1.328-.72-1.808s-1.072-.72-1.776-.72-1.296.24-1.776.72-.72 1.083-.72 1.808c0 .725.24 1.328.72 1.808ZM191.075 6h1.728v8h-1.728v-2.704a5.809 5.809 0 0 1-2.016.352c-.992 0-1.776-.245-2.352-.736-.576-.49-.864-1.21-.864-2.16V6h1.728v2.592c0 .96.571 1.44 1.712 1.44.672 0 1.269-.123 1.792-.368V6Zm5.106 4.736c.128.608.421 1.077.88 1.408.458.32 1.018.48 1.68.48.917 0 1.605-.33 2.064-.992l1.424.832c-.79 1.163-1.958 1.744-3.504 1.744-1.302 0-2.352-.395-3.152-1.184-.8-.8-1.2-1.808-1.2-3.024 0-1.195.394-2.192 1.184-2.992.789-.81 1.802-1.216 3.04-1.216 1.173 0 2.133.41 2.88 1.232.757.821 1.136 1.819 1.136 2.992 0 .181-.022.421-.064.72h-6.368Zm-.017-1.408h4.705c-.118-.65-.39-1.141-.816-1.472a2.295 2.295 0 0 0-1.472-.496c-.64 0-1.174.176-1.6.528-.427.352-.699.832-.817 1.44ZM209.525 6h1.728v8h-1.728v-3.184h-3.664V14h-1.728V6h1.728v3.184h3.664V6Zm10.069 0h1.728v8h-1.728v-1.152c-.651.907-1.584 1.36-2.8 1.36-1.099 0-2.037-.405-2.816-1.216-.779-.821-1.168-1.819-1.168-2.992 0-1.184.389-2.181 1.168-2.992.779-.81 1.717-1.216 2.816-1.216 1.216 0 2.149.448 2.8 1.344V6Zm-4.336 5.84c.48.48 1.083.72 1.808.72.725 0 1.328-.24 1.808-.72.48-.49.72-1.104.72-1.84s-.24-1.344-.72-1.824c-.48-.49-1.083-.736-1.808-.736-.725 0-1.328.245-1.808.736-.48.48-.72 1.088-.72 1.824s.24 1.35.72 1.84ZM56.544 27.888c.79.363 1.184.976 1.184 1.84 0 .672-.23 1.221-.688 1.648-.448.416-1.093.624-1.936.624h-4.096v-8h3.776c.821 0 1.456.208 1.904.624.459.405.688.933.688 1.584 0 .757-.277 1.317-.832 1.68Zm-1.888-2.416h-2v1.776h2c.704 0 1.056-.299 1.056-.896 0-.587-.352-.88-1.056-.88Zm.288 5.024c.725 0 1.088-.315 1.088-.944 0-.277-.096-.49-.288-.64-.192-.16-.459-.24-.8-.24h-2.288v1.824h2.288Zm11.965 1.712c-1.205 0-2.213-.405-3.024-1.216-.8-.81-1.2-1.808-1.2-2.992 0-1.195.4-2.192 1.2-2.992.81-.81 1.819-1.216 3.024-1.216.779 0 1.488.187 2.128.56.64.373 1.12.875 1.44 1.504l-1.488.864a1.988 1.988 0 0 0-.832-.896c-.363-.224-.784-.336-1.264-.336-.704 0-1.296.24-1.776.72-.47.48-.704 1.077-.704 1.792 0 .715.235 1.312.704 1.792.48.48 1.072.72 1.776.72.47 0 .89-.112 1.264-.336a2.18 2.18 0 0 0 .864-.896l1.488.848a3.805 3.805 0 0 1-1.472 1.52c-.64.373-1.35.56-2.128.56ZM77.792 24v1.664h-2.608V32h-1.728v-6.336h-2.624V24h6.96Zm4.633 8.208c-1.174 0-2.171-.405-2.992-1.216-.822-.81-1.232-1.808-1.232-2.992s.41-2.181 1.232-2.992c.821-.81 1.818-1.216 2.992-1.216 1.184 0 2.181.405 2.992 1.216.821.81 1.232 1.808 1.232 2.992s-.411 2.181-1.232 2.992c-.811.81-1.808 1.216-2.992 1.216Zm-1.776-2.4c.48.48 1.072.72 1.776.72s1.296-.24 1.776-.72.72-1.083.72-1.808c0-.725-.24-1.328-.72-1.808s-1.072-.72-1.776-.72-1.296.24-1.776.72-.72 1.083-.72 1.808c0 .725.24 1.328.72 1.808ZM94.003 24h1.328v8h-1.696v-5.088L89.54 32h-1.328v-8h1.696v5.072L94.003 24Zm11.493 0v8h-1.68v-5.264l-2.304 3.664h-.208l-2.288-3.648V32h-1.68v-8h1.76l2.32 3.696 2.32-3.696h1.76Zm5.772 8.208c-1.173 0-2.17-.405-2.992-1.216-.821-.81-1.232-1.808-1.232-2.992s.411-2.181 1.232-2.992c.822-.81 1.819-1.216 2.992-1.216 1.184 0 2.182.405 2.992 1.216.822.81 1.232 1.808 1.232 2.992s-.41 2.181-1.232 2.992c-.81.81-1.808 1.216-2.992 1.216Zm-1.776-2.4c.48.48 1.072.72 1.776.72s1.296-.24 1.776-.72.72-1.083.72-1.808c0-.725-.24-1.328-.72-1.808s-1.072-.72-1.776-.72-1.296.24-1.776.72-.72 1.083-.72 1.808c0 .725.24 1.328.72 1.808Zm11.339 2.4c-1.205 0-2.213-.405-3.024-1.216-.8-.81-1.2-1.808-1.2-2.992 0-1.195.4-2.192 1.2-2.992.811-.81 1.819-1.216 3.024-1.216.779 0 1.488.187 2.128.56.64.373 1.12.875 1.44 1.504l-1.488.864a1.988 1.988 0 0 0-.832-.896c-.363-.224-.784-.336-1.264-.336-.704 0-1.296.24-1.776.72-.469.48-.704 1.077-.704 1.792 0 .715.235 1.312.704 1.792.48.48 1.072.72 1.776.72.469 0 .891-.112 1.264-.336a2.18 2.18 0 0 0 .864-.896l1.488.848a3.803 3.803 0 0 1-1.472 1.52c-.64.373-1.349.56-2.128.56ZM131.714 24v1.664h-2.608V32h-1.728v-6.336h-2.624V24h6.96Zm4.657 2.72c.853 0 1.552.245 2.096.736.544.48.816 1.115.816 1.904 0 .779-.272 1.413-.816 1.904-.544.49-1.243.736-2.096.736h-3.488v-8h1.728v2.72h1.76Zm.016 3.728c.341 0 .624-.101.848-.304a.987.987 0 0 0 .352-.784c0-.33-.117-.592-.352-.784-.224-.203-.507-.304-.848-.304h-1.776v2.176h1.776Z" fill="#0037A1"/>
    <circle cx="16" cy="18" r="15.25" fill="#fff" stroke="#0037A1" stroke-width="1.5"/>
    <path fill="#fff" d="m29.354 4.904 4.242 4.243-4.95 4.95-4.242-4.243z"/>
    <path d="m9 15.5 7 7L32.5 6" stroke="#0037A1" stroke-width="1.5" stroke-linecap="round" stroke-linejoin="round"/>
</svg>
