<svg width="33" height="33" fill="none" xmlns="http://www.w3.org/2000/svg"><path d="M29.893 15.355V3.038a.967.967 0 0 0-.966-.967h-4.73V.967a.967.967 0 1 0-1.933 0V2.07h-6.35V.967a.967.967 0 0 0-1.934 0V2.07H7.63V.967a.967.967 0 0 0-1.934 0V2.07H.966A.967.967 0 0 0 0 3.038v25.889c0 .534.433.966.967.966h14.388A10.256 10.256 0 0 0 22.713 33C28.385 33 33 28.385 33 22.713c0-2.881-1.191-5.489-3.107-7.358ZM1.933 4.005H27.96v4.28H1.934v-4.28Zm0 23.955V10.218H27.96v3.65a10.224 10.224 0 0 0-5.247-1.441c-5.672 0-10.286 4.614-10.286 10.286 0 1.915.526 3.71 1.441 5.247H1.934Zm20.78 3.106c-4.606 0-8.353-3.747-8.353-8.353s3.747-8.353 8.353-8.353 8.353 3.747 8.353 8.353-3.747 8.353-8.353 8.353Z" fill="#0037A1"/><path d="M25.82 21.747h-2.14v-2.14a.967.967 0 0 0-1.933 0v3.106c0 .534.432.967.966.967h3.107a.967.967 0 0 0 0-1.933Z" fill="#0037A1"/></svg>
