<svg width="56" height="56" fill="none" xmlns="http://www.w3.org/2000/svg">
    <path fill="#0037A1" d="M0 0h56v56H0z"/>
    <path d="M28.42 35.42c-1.42 1.98-3.41 2.97-5.97 2.97-2.56 0-4.55-.99-5.97-2.97-1.42-1.98-2.13-4.62-2.13-7.92s.71-5.94 2.13-7.92c1.42-1.98 3.41-2.97 5.97-2.97 2.56 0 4.55.99 5.97 2.97 1.42 1.98 2.13 4.62 2.13 7.92s-.71 5.94-2.13 7.92Zm-9.9-1.89c.92 1.42 2.23 2.13 3.93 2.13 1.7 0 3.01-.71 3.93-2.13.94-1.42 1.41-3.43 1.41-6.03s-.47-4.61-1.41-6.03c-.92-1.44-2.23-2.16-3.93-2.16-1.7 0-3.01.71-3.93 2.13-.92 1.42-1.38 3.44-1.38 6.06 0 2.6.46 4.61 1.38 6.03ZM37.25 17h2.4v21h-2.76V20l-4.47 1.32-.69-2.4L37.25 17Z" fill="#fff"/>
</svg>
