<svg width="56" height="56" fill="none" xmlns="http://www.w3.org/2000/svg">
    <path fill="#0037A1" d="M0 0h56v56H0z"/>
    <path d="M26.42 35.42c-1.42 1.98-3.41 2.97-5.97 2.97-2.56 0-4.55-.99-5.97-2.97-1.42-1.98-2.13-4.62-2.13-7.92s.71-5.94 2.13-7.92c1.42-1.98 3.41-2.97 5.97-2.97 2.56 0 4.55.99 5.97 2.97 1.42 1.98 2.13 4.62 2.13 7.92s-.71 5.94-2.13 7.92Zm-9.9-1.89c.92 1.42 2.23 2.13 3.93 2.13 1.7 0 3.01-.71 3.93-2.13.94-1.42 1.41-3.43 1.41-6.03s-.47-4.61-1.41-6.03c-.92-1.44-2.23-2.16-3.93-2.16-1.7 0-3.01.71-3.93 2.13-.92 1.42-1.38 3.44-1.38 6.06 0 2.6.46 4.61 1.38 6.03ZM30.596 38v-2.28l7.41-7.56c1.98-1.98 2.97-3.68 2.97-5.1 0-1.18-.36-2.1-1.08-2.76-.72-.66-1.6-.99-2.64-.99-1.98 0-3.42.94-4.32 2.82l-2.34-1.38c.66-1.36 1.57-2.39 2.73-3.09 1.18-.7 2.48-1.05 3.9-1.05 1.76 0 3.29.58 4.59 1.74 1.3 1.16 1.95 2.72 1.95 4.68 0 2.12-1.25 4.43-3.75 6.93l-5.37 5.34h9.51V38h-13.56Z" fill="#fff"/>
</svg>
