<svg width="247" height="151" fill="none" xmlns="http://www.w3.org/2000/svg">
    <g clip-path="url(#a)" fill="#3E0CC6">
        <path d="m13.306 55.593-.073.413.315.056-.177-.032.463.194c.192-.22.192-.626.35-.883-.298.066-.591.15-.878.252ZM166.882 44.35l.393-.043.167.03.059.01a1.29 1.29 0 0 0 .025-.138c-.187.08-.707.15-.834.24l.19-.1ZM63.66 109.556l-.097-.311.6-.352-.981-.711c.374-1.315 1.02-.023 1.474-.532l-.51-.506.164-.926-.177-.031a9.539 9.539 0 0 1-.25 1.073c-.06-.417-.092-.747-.132-1.039l-5.983.529.083.279c-.343.163-.584.263-.774.361l-.206-.564-.329.023-.145 1.173-.725.136c.003-.365.01-.75.013-1.227l-13.292 1.211c-.024.138-.001.294-.006.435-.872.456-1.745.911-1.229 2.708-.5-.504-.763-.622-.79-.82-.08-.521-.073-1.079-.11-1.796l.371-.371-1.155.101-.017.098-.36.028-.044-.099-5.249.455 1.796 1.333-.044-.099 1.093-.092c.02.288.04.576.07.865a.866.866 0 0 1-.834-.218c-.02.118-.11.224-.17.335-.543-.379-1.39-.417-1.56-1.29l-.773.524-.738-.882.233-.456-13.552 1.185a3.284 3.284 0 0 1-3.538-2.97l-1.031-12.235a3.608 3.608 0 0 0-.928-.499l.897.27-.103-1.145a1.452 1.452 0 0 0-.244-.114c-.11.163-.23.325-.341.498l-.614-.606c.223-.285.37-.483.489-.644l.096.088a.81.81 0 0 1 .527-.283l-.975-11.17c-.199.839-.379 1.63-.553 2.33l.409.966-.729.156-.208-.606-1.554 1.33c0 .407-.008.791-.004 1.229l.01-.06c.017.257.03.412.049.649l-.086-.087.012-.068.068-.384-.148-.027.118 1.29.055.091c.043-.246.018-.504.022-.757l.09-.512.134.216a3.162 3.162 0 0 0-.06.345 3.2 3.2 0 0 1 .034.666l.096.149-.089-.016a1.97 1.97 0 0 0-.041.237l-.046.256c-.013.079.05.293.069.418l-.11-.182-.1.226 1.29 14.677.109.131-.057.325.149.25-.025.138-.13-.186.263 3.001c.042.511.148 1.014.315 1.498.334.12.693.214.597.704l.112.111c-.017.099-.033.188.019.298.051.111-.104.073-.132-.175-.102-.11-.142-.117-.167-.03-.026.087.13.236.2.36l.124.104-.015.088a6.565 6.565 0 0 0 3.592 2.664l1.189.109-.023.128c.43.053.866.058 1.297.015l.897-.075.089-.157.119.071-.014.079 1.032-.092c-.013-.216-.014-.439-.026-.715.563-.084.688.243.717.654l3.093-.267.07.012 10.755-.936-.835-1.021 1.795.936.732-.064.019-.108c.244-.404.53-.13.808.021l1.187-.106.015-.089.656.025 9.117-.799-.351-.194c.047-.266.159-.439.262-.736l.315.056a1.999 1.999 0 0 1-.606-.483c-.184-.276-.209-.656.239-.719l.81.701c-.085.137-.21.329-.327.531l.276.049c-.1.277-.17.498-.247.708l3.095-.277c.276-.53.823-.809 1.087-1.382a1.501 1.501 0 0 1-.437 1.324l9.613-.732Zm-50.906-17.78a.44.44 0 0 0-.048.276c-.108-.08-.155-.27-.14-.532l.198.086-.01.17Zm-.687-5.025c-.026.147.05.465-.073.413.036-.207.064-.364.012-.587a.794.794 0 0 1 .06.174Zm-.845-1.256a.657.657 0 0 0 .024-.138l.08.126-.082.462c0-.172-.007-.305-.022-.45Zm.011 1.606a2.364 2.364 0 0 1-.024-.207l.063-.07c.006.082-.025.198-.039.277Zm.248-.89.013-.07-.124-.163c.037-.207.004-.426.013-.648l.098.018a.367.367 0 0 1-.019.108l.023-.128.086.086.04-.226-.088-.016a.536.536 0 0 1 .022-.128l.1.13.09.117-.017.098-.096-.088-.039.217.087.086c-.035.197-.01.405-.02.627-.058-.01-.102-.11-.151-.119l-.115.65.098-.551Zm.037-1.07.071-.059c-.017.099.007.306-.036.207-.044-.099-.042-.109-.035-.148Zm-.306 4.383c-.019.109.052.284-.052.296-.104.012-.053-.274.052-.296.037-.207.023-.128.098-.155.051.232-.024.138-.059.162l-.039-.007Zm.1-.165a3.09 3.09 0 0 1-.036-.372 16.11 16.11 0 0 0 .096-1.75c.019-.108.001-.355.046-.266l.015.379-.068.384c-.026.148.042.281.064.387l-.142.807c-.044.246.048.303.068.419.02.115.017.135-.003.02l-.04-.008Zm.709-4.018.045-.256.07.063c.026.259.005.377-.096.197l-.02-.004Zm.169 2.325.597-.798c.026-.148.121-.284.177-.426.166.324.323.646.448.912-.363.504-.675.896-.989 1.348l-.257.25.08.125c-.04.227-.135.129-.197-.035l-.269.37c-.434-.707.022-1.216.43-1.743l-.02-.003Zm.093 2.87c-.11.051-.167-.151-.237-.215l.026-.147.21.362Zm-.295-.459.026-.147c-.026.147.045.322-.056.315-.1-.008 0 0-.015.088l.07-.058c-.04.236.013.51-.08.463-.094-.047-.006-.255-.015-.378.002-.183-.019-.298.07-.282Zm-.09.513.068.245c-.01.06-.024.138-.105.134-.08-.004-.1-.068-.09-.24l.127-.14Zm-.22 3.373c-.083-.279-.18-.59-.267-.9.026-.148.14-.28.216-.42l-.109-.018.026-.148.028-.158a.29.29 0 0 0 .02-.108c.025-.148.006-.324.014-.485l.157.028.064.732 1.386.722-.887.767-.575-.02a.494.494 0 0 0-.021.118l-.05-.12-.002.01Zm1.265.142-.088-.077.079.014.009.063Zm-.68.52a.431.431 0 0 1 .076-.434c-.016.088-.033.187.02.288a1.43 1.43 0 0 1-.13.109l.033.036Zm.382-.157c-.05-.171-.102-.343-.162-.516l.117-.09c-.012.068.037.138.057.253l.068-.384c.18.184.03.401.106.608l.034-.197.07.012.062.854a.27.27 0 0 0-.148-.026l-.121-.347a1.322 1.322 0 0 1-.118.152c-.008-.133.002-.243.001-.355l.034.036Zm-.052.814s.08.014.129-.039c.094.14.205.269.328.383l.023.39-.315-.634-.13.16a.3.3 0 0 1-.07-.287l.035.027Zm-.028 2.523-.156-.444a.412.412 0 0 1 .018-.098c-.079-.014-.138-.025-.147-.32l.128.022.019.298c.049.008.105.15.16.241.055.091-.031.178-.056.264l.034.037Zm.433.076a5.253 5.253 0 0 1-.118-.366l.024-.138-.012.07-.14-.127a.754.754 0 0 0 .026-.148l.052-.295.069.185.096.26a.897.897 0 0 0 .078.136l-.07.394c-.022.128-.023.016-.037-.017l.032.046Zm.59 6.847c-.022.128-.118.152-.187-.033l-.123-.164c.05-.113.152-.115.278.151l.032.046Zm-.003-1.016-.037.207.037-.207Zm-.06-2.6c-.637-.65.336-1.098.14-2.006.417.52.584.722.74.932l-.88 1.074Zm-.775 6.585-.068-.367.153.169-.048.276-.037-.078Zm.666-.898-.294-.407c.016-.088-.028-.187-.038-.301l.118.021c-.024-.207-.05-.405-.088-.655.06.01.098.078.111.121l.149.767-.009.05c-.008.049.069.245.097.372.029.127.052-.295.121-.283l.075.094c-.033.187-.017.383-.03.574-.13-.186-.23-.132-.238-.438l.026.085Zm11.201 5.58c.157-.317.295-.577.449-.875.514.02.662.391.498 1.377l-.947-.502Zm17.846-2.275.727.656c-.191.01-.383 0-.573-.03-.055-.091-.081-.289-.18-.712l.026.086Zm.691 1.32a7.46 7.46 0 0 1-.094-.443l.1-.054c.047.141.105.273.161.415l-.166.082Zm2.312-.902c.152-.228.358-.587.403-.559.386.231 1.158-.172 1.095.934l-1.498-.375Zm1.793.143-.648-.876c.818-.434-.077-2.156 1.484-2.023-.045.256-.108.611-.277 1.109l.47.387a1.36 1.36 0 0 1-1.055 1.317l.026.086Z"/>
        <path d="M10.244 57.814c.015-.061.026-.124.033-.187l-.031.178c.615-.095 1.22-.181 1.768-.298l-.306-.51c.02-.119.109-.215.17-.326l.38.199c.119.193.248.379.376.574l.07.012 1.33-.232.078.074-1.376.316.336.516-.705-.033-.212-.352-1.058.24-.888.026-.347.01c-.07.09-.133.184-.192.281l.158.028.167.436-.073.068c.038.129.068.246.097.372l-.119-.02c-.078-.36-.157-.719-.38-.555a.41.41 0 0 0 .018-.098c-.041.058-.08.12-.113.183.03.181.048.364.055.548l-.069.394-.047.266.01-.06s-.086-.086-.117-.081l-.115.65c.028-.158-.035-.32-.048-.476-.013-.154 0 0 .012-.069l-.153-.169.03-.167-.009.05-.026.147.014-.079a6.37 6.37 0 0 0-.385 2.816l.165 1.887-.014.08 1.244 13.216a1.63 1.63 0 0 0 .437-.461c.29-.548.54-.301.804-.183l.088.015a.139.139 0 0 0-.01.06.71.71 0 0 0 .205.218c-.08-.237-.166-.496-.243-.753l-.366-.4c-.02-.237-.05-.466-.07-.693l.01-.059a.752.752 0 0 0 .037.19c.02.043.043.084.07.123.035-.197-.007-.366-.016-.54l-.086-.148-.014.079c-.05.355-.138.704-.265 1.04-.01.059-.059-.01-.158.033.143-.462.245-.81.354-1.146.11-.336.222-.682.313-1.082l.133.226c.04.23.093.453.133.684a251.14 251.14 0 0 0 .024 1.477c.048.073.092.148.133.226.017.041.03.084.038.129l-.019.108c.069.185.104.506.173.69l-.03-.35a.62.62 0 0 1 .136.44l.024-.138.046.658c-.1-.068-.083-.157-.066-.255l-.066.374c.036-.207-.02-.349-.035-.493a.17.17 0 0 1-.127.089l-.183-.114c-.029-.127-.069-.245-.097-.372-.35.598-.63.752-1.188.633l.072.917a1.11 1.11 0 0 1 .692-.244l-.069.394c-.023.128-.121.283-.186.424l-.417.059.092 1.031c.063.164.116.325.183.52-.055-.09-.114-.162-.154-.22l.068.824c.034.21.076.43.13.703l-.082.057.143 2.36.267-.307.087-.493.069.185a.2.2 0 0 1-.014.079 8.991 8.991 0 0 0 .931-1.308l.033-.188c.057 0 .114.01.168.03.16-.303.294-.62.4-.945.191-.565.469-1.105.716-1.701l.256.045-.608-6.86a1.35 1.35 0 0 1-.462-.142c.026-.148.121-.284.177-.426l.238-.03-.261-2.95c-.292.62-.589.17-.884.119.024-.138.119-.274.175-.416.236-.476.463-.325.685-.204l-.578-6.337-.089-.016.03-.167-.047-.597c.008-.1.025-.199.052-.296l-.08.047-1.03.083-.226-.04.274-.114.364.064.64-.172.03-.167-.131.109-.43.016.296-.121.285.05a3.26 3.26 0 0 1 2.966-3l3.548-.309a.33.33 0 0 1-.046-.14l-.336.063.35-.142c.067-.384.656-.9.084-1.173.212-.277.415-.566.643-.82l.48-.535-.813-.053c-.135.007-.27.02-.403.041l-.217-.038-.402.03c.095-.074-.08-.115-.453-.08l-.433-.076c.91-.018 1.821.037 2.723.166.202-.229.405-.457.598-.687l-.069-.012-.323.045-.098-.018-3.228.284.383.129-.807-.031.269-.085-1.64.148-.468 1.095-.34-.141-.71.687-.675-.322.26-.614-.5.135.256-.128-.192.048.023-.128.273.007.187.033.036-.206a6.51 6.51 0 0 0-2.819 2.051l.24-.039Zm-1.245 3.03.041-.236c.014-.079 0 0 .073-.068-.087.147-.1.226-.124.303l.01.001Zm2.04 15.784-.048-.018.048.018Zm.333 1.796c-.035.197-.045.255-.17.162-.126-.093.046-.266.062-.354l.108.192Zm-.18.16-.047.266.052-.295-.006.03Zm-.22 1.241.073.165-.145-.096.073-.069Zm-.122-.285c-.015.088.028.188.052.283.016-.088-.018-.186-.034-.27l-.018-.013Zm-.015 2.393-.099-.017a18.63 18.63 0 0 0-.375-.696c.017-.071.03-.143.038-.216l.075.094.016-.088.15.178a.411.411 0 0 0-.018.109.874.874 0 0 1 .052.222l.042-.236.128.368-.047.266c.024.097.059.191.102.282a.58.58 0 0 1 .036.372.93.93 0 0 1-.12-.641l.02.003Zm.9 1.174c-.035-.229-.009-.377.077-.443-.024.138.02.288.036.433l-.114.01Zm.347-1.97.023.33-.158-.028.135-.301Zm-.9 2.056.107.019-.026.148-.014.078.111.121c-.015.09-.033.188.03.29.063.103-.114.071-.133-.166a.209.209 0 0 0 .01-.059c-.128-.134-.165-.1-.203.178a1.454 1.454 0 0 0-.148-.2c-.067-.427.105-.366.206-.42l.06.01Zm.585-6.548a1.389 1.389 0 0 1-.045-.668l.045.668Zm-1.589-12.699c-.158.033-.207-.381-.34-.547.135-.078.169.365.34.547Zm-.546.33.059.244s-.024.138-.105.134c-.08-.004-.098-.017-.078-.247l.124-.13Zm-.008-.813.048-.276.17.243c-.036.207-.048.276-.109.275-.06 0-.125-.042-.115-.213l.006-.03Zm.074.957c.021-.118-.007-.245-.016-.368l.106-.083c-.027.27-.002.528-.095.48l.005-.029Zm.317-3.122c-.014.055-.024.11-.03.167-.107-.019-.168-.192-.207-.433-.039-.24.03-.167.045-.256.082.34.276.049.303.643l-.11-.121Zm.05-2.47.045-.255.073-.414.02-.108c-.016.14-.04.277-.074.413a.14.14 0 0 1-.015.09l.158.311.043-.246.2.249-.02.108-.04.226-.123-.163a1.797 1.797 0 0 0-.042-.221l-.024.138c-.009.049.009.296-.035.197a3.715 3.715 0 0 1-.166-.324Zm-.294 1.665c-.024.138.05.466-.073.414.037-.207.006-.375.013-.587.042.057.079.118.11.182l-.05-.009Zm-.044-1.358a1293.2 1293.2 0 0 1-.01.06c.011-.07-.054.01.01-.06Zm-.148.319a.14.14 0 0 0 .012-.069l.05.009a.251.251 0 0 1-.062.06Zm-.482 3.713c.017-.099-.018-.247-.036-.372a14.1 14.1 0 0 0 .097-1.76c.017-.099.06-.335.045-.256-.014.079-.042.236.007.366.048.13-.044.247-.07.394-.026.148.044.272.054.386l-.14.797c-.042.237.057.305.076.43.018.125-.002.07-.033.015Zm.446-2.014c.044-.246-.003-.498-.01-.743.113.58.175 1.169.187 1.76l.058.07a1.93 1.93 0 0 0 .042-.236l.1.12-.046.266-.117-.143c-.023.128.005.255.005.428l-.104-.1.071-.404a7.998 7.998 0 0 1-.177-1.067l-.009.05Zm-.562 5.263.305.054c-.012.069.03.177.061.346-.114-.275-.23-.082-.357-.45l-.01.05Zm.424.704-.066-.722-.098-.017.024-.138.028-.158.02-.108c.006-.04.055-.315.023-.483l.158.027c.024.269.045.496.056.721l.086.259a1 1 0 0 0-.216.073c.051.345-.122.69.082 1.03-.013.08-.026.148-.04.227-.013.079-.063-.103-.062-.163 0-.061.027-.382.014-.597l-.009.05Zm-.02 2.19c.027-.158-.045-.323-.058-.477l.07-.059c.03.117.07.236.124.397a.761.761 0 0 0-.136.139Zm.621 1.369.128.022.055.264s.106.15.16.241c.056.091-.037.217-.102.297l-.15-.422a.46.46 0 0 1 .017-.089c-.003-.041-.06-.061-.108-.313Zm.548 3.457c.016-.088-.007-.305.084-.188l.13.592c-.066.08-.112-.233-.174-.397l-.04-.007Zm.757-3.542.132-.23.434.188.319-.025.082.857a1.05 1.05 0 0 1-.544-.025 5.17 5.17 0 0 1-1.78 2.032c-.026.148-.034.197-.102.063l-.195.128 1.505-2.78a1.007 1.007 0 0 1-.011-.165l.16-.043Zm-.786.024.079.186.086.26.087.137-.07.393-.117-.366.026-.147-.014.078-.049-.07.026-.147c.009-.05-.022-.217-.015-.317l-.04-.007Zm.66-.747-.09-.016-.153-.22-.125.13-.332-.647-.132.17a.31.31 0 0 1-.05-.293c.01-.06.07.012.119-.04a2 2 0 0 0 .663.614s.121.062.139.309l-.04-.007Zm-.04-.81-.027.148-.103-.22a.18.18 0 0 1 .169.08l-.04-.007Zm-.825-1.485.068.246.063-.355c.182.174.03.401.107.598l.035-.197.206.158a.15.15 0 0 0 .012-.069l-.069-.012-.168-.141.264-.055a.568.568 0 0 1 .022-.128l.135-.363a32.948 32.948 0 0 1-.053-.852c0-.05.01-.1.026-.147l.072 1.089-.012.069.032.452-.1.571.093.159-.067.384a1.82 1.82 0 0 0-.114-.162l-.028.157-.098-.017c-.024.138.002.275.005.488l-.102-.17.014-.424c-.069-.012-.137-.085-.207-.037-.07.05-.09-.239-.122-.346l-.128.15.058-.325-.161-.526.217-.195Zm-.281.326c-.016.089.018.186.03.29l-.087.147a.45.45 0 0 1 .057-.437Zm.458-3.402c-.025.138-.042.236 0 .345l-.185-.103-.04-.292.225.05Zm-.582 2.609-.06.334-.243-.286c.126-.08.18-.273.303-.048Z"/>
        <path d="M206.866 39.012a1.18 1.18 0 0 1-.585-.428l-6.807.597.355.062-.431.026-.296-.052-10.861.958-.254.057-.138-.024-14.965 1.311.069.012-.132.058-.553.086.182-.11-12.129 1.06c-.037.5-.07.8-.085 1l-.374-.066c.138-.321.212-.511.37-.89l-14.078 1.235-.875.18.256-.127-.793.063-.209.095.492.087-.538.058-.158-.028-.481.138c-.284.001-.325-.057-.295-.052a1.415 1.415 0 0 1-.453.032l.144-.066-1.14.013.009-.05-.049-.008-10.034.87a1.257 1.257 0 0 1-.642.243l.456-.225-.555-.016-.109-.02-16.502 1.447-.716.087-.068-.012-2.857.248c.296.052-.014.078-.024.138-.296-.053.014-.08.024-.138l-.217.022.028.36-.009.05c-.009.05-.057.325-.261.847l-.082-.918c-.079-.014-.118-.02.011-.059l.02-.118-.202.056c.015-.062.026-.124.033-.188l-14.14 1.295.207.036-.623.48.205.107-.446.053a.38.38 0 0 0-.109-.02l-.995.232c-.005.06-.016.119-.031.177l-.568.052a.34.34 0 0 0-.017.098l-.456.052c-.177-.031.486-.168.084-.188l.42-.14.708-.21-.315-.055c.03-.168.122-.293.186-.424l-1.247.105-.25.098-.325-.007.08-.047-.579.284-.433-.015.992-.272-32.802 2.786-.014.079-.323.045c-.128-.023-.157-.028.017-.099l-37.242 3.263.21.483-.727.146-.205-.564-.05-.008-1.373 1.169.088.015.42.156-.421.027-.217-.038-.007.557.245-.12.09.067-.334.165c-.033.187.003.386.007.59l-.941.098.026.37.1-.043.372.015c-.152.073-.31.137-.47.191l.012.276-.264.055 2.062-.174-.171-.122.216.038.786.037.66-.056-.06-.01.935-.06 27.473-2.395-.177-.031.243-.11-.545.036.2-.096.666.026-.222.103-.099.043 9.789-.863-.108-.02.216.039.355.063 29.352-2.745.154-.065-.545.036.2-.096.666.026-.155.074 6.456-.568c.023-.128.161-.164.637-.212-.06-.01-.187.079-.194.118-.007.04-.01.06-.102.063l15.467-1.334-.544-.025 1.448-.212.266.047c-.279.087-.565.15-.855.184l7.127-.622c.015-.088.032-.187-.021-.288l.019-.108-.12.05-.217-.038.243-.11-.546.046.201-.107.464.021.029-.167.721-.056.372-.036c-.025.138.02.288.025.431l-.444.044-.288.02.143.228 20.223-1.765.127-.028.148.026 2.508-.228.226.04.111-.052.325.057 1.033-.102.112-.061.468-.12-.312.158 14.274-1.25.423-.21-.38.024-.118-.02.342-.042c.148.026.489-.005.335.059l-.089-.016c-.012.07-.106.144-.352.212l4.693-.411 3.906-.327c.095-.135.387-.236.557-.338l.415.012.256-.127.196.034a.667.667 0 0 1-.458.123l-.95.32 31.477-2.756c.109-.215.228-.427.337-.642l1.052.541 1.03-.082.146-.198.096.088c.11-.13.257-.22.422-.26l-.443-.079.87-.212c.177.031.674-.023.551.097l-.506-.008.167.03-.039.226 7.075-.62-.128-.023a2.27 2.27 0 0 1 .364-.047l.657.014 14.82-1.296a3.27 3.27 0 0 1 3.538 2.97l3.941 45.027a3.266 3.266 0 0 1-2.969 3.539l-74.501 6.502a2.31 2.31 0 0 1-1.23 1.214 1.528 1.528 0 0 1 .615-1.181l-11.354 1.044a1.7 1.7 0 0 0-.172.457l-.077-.43-76.167 6.625.215.566-1.428 2.338.211.473 44.143-3.873-.807-.203c.162-.226.358-.587.404-.559.358.216 1.031-.092 1.094.701l24.545-2.14c.012-.069.093-.126.143-.178.198-.199.413-.384.629-.57.215-.185.157-.317.294-.577l1.03.435c-.033.187.051.344-.01.404a13.75 13.75 0 0 1-.353.334l17.318-1.526.125-.191c.049.009.06.122.1.18l33.364-2.92-.374-.067-.985-.173c-.354-.063-.508-.171-.757-.255l.718-.443c.792.577 1.668.386 2.628.586-.021.118-.109.214-.167.315l.906-.073a4.88 4.88 0 0 1 .766-.312l.401.203 39.004-3.41a6.55 6.55 0 0 0 5.908-5.629c-.046.256-.117-.142-.243-.296l.154-.065c.038.129.06.234.094.332.062-.473.075-.95.038-1.425l-.166-1.827-.497.227-.303-.815.714-.361-.169-2.264-.049-.07-.389-4.475-.049-.009.014-.079-.111-2.253s-.118-.02-.197-.38l.087-.492L235.62 63.1c-.051.285-.045.601-.075 1.002l-.737-.313c-.039.217-.001.467-.089.503.033-.188.063-.355.021-.525.004-.05.013-.1.026-.147l.04-.227-.015.089c.266-1.05.324-2.126.547-3.102l-.039-.413c-.113-.223-.197-.38-.26-.544a2.968 2.968 0 0 1-.041-.281l.246.5.039.129-1.149-14.043a2.773 2.773 0 0 1-.051.286c.023-.129-.025-.259-.032-.392l-.238-2.682.019-.108a6.546 6.546 0 0 0-3.318-5.256l-.167-.03.01-.059a6.448 6.448 0 0 0-3.551-.707l-19.73 1.73c-.05.113-.124.303-.21.5ZM19.916 57.61a1.22 1.22 0 0 1-.548.056l.134-.068a1.16 1.16 0 0 1 .536-.048l-.122.06Zm3.346-2.619-.59.292-.444-.017 1.034-.275Zm-.768.383c-.197.077-.175.182-.642.242l.514-.265.128.023Zm-.798-.03.188.034a1.32 1.32 0 0 1-.212.105l-.098-.018.122-.12Zm-1.294.544.468-.232.128.023a.69.69 0 0 1-.082.117l.345.06c.203-.055.12-.16.58-.181l-.378.187-.197-.035-.458.123-.406-.062Zm1.176 1.223-.675-.028c.312-.05.63-.046.941.014l-.266.014Zm.755-.598c-.344.063-.68.168-.999.311l-.581.07.554-.207c.268-.055.53-.134.784-.237a2.93 2.93 0 0 0 1.26-.407l.605-.097a8.62 8.62 0 0 1-1.616.528l-.007.039Zm1.188-1.436-.325-.057c.24-.147.51-.241.79-.277l-.345-.06.565-.155.415.012-.018.099-1.083.438Zm25.177-1.47-.138-.024.316-.178.355.063-.533.14Zm2.862-1.14-.403-.02.105-.074c.396-.062.569-.062.305.054l-.007.04Zm43.098-2.555.898.036-.574.143-.43.025-.123-.113.23-.091Zm-1.851-.327.598-.107a8.889 8.889 0 0 1-1.614.568c-.346.062-.683.17-1 .321l-.59.059.596-.27c.228-.083.653-.13.774-.24a3.09 3.09 0 0 0 1.29-.412l-.054.081Zm-.7 1.319s-.017.098.02.176l-1.115-.126.01-.059c.377-.036.756-.05 1.135-.043l-.05.052Zm-1.08-.262-.666-.026c.309-.051.624-.047.932.012l-.267.014Zm.778-1.71.217.038a1.26 1.26 0 0 1-.642.242l.425-.28Zm-.667-.017.187.033-.2.097-.108-.019c.052-.059.11-.113.17-.163l-.05.052Zm-.827.312.138.024-.082.117.344.01c.203-.055.13-.16.58-.182l-.378.188-.197-.035-.458.122-.414-.012.467-.232Zm-.796.255.216.038.445.13-.431.025-.365-.064.135-.129Zm.298.5.098.017-.38.197-.207-.037.489-.177Zm-.496.735a.999.999 0 0 1 .537-.048l-.132.058a1 1 0 0 1-.537.048l.132-.058Zm-27.799 1.19.187.033-.211.105-.099-.017.123-.12Zm-3.275.895.028-.157.207.036c.009.072.013.144.012.216l-.247-.095Zm.32 1.011c.013-.079-.19-.135.151-.227l.021.227h-.173Zm1.216-.506-.154.125-.05-.009-.248.2.098.078-.188.028-.07.059-.274-.12.019-.108c.007-.04-.08-.014-.215.064-.135.077.02-.109.03-.168l.215-.013.07-.048c.113-.295.226-.59.35-.954l.64.64.121-.059.08.065-.424.22Zm.299-.658-.354-.124.109-.042.216.039.453.08-.424.047Zm.093-.187.47-.242.128.022a.73.73 0 0 1-.084.128l.354.011c.204-.065.121-.171.582-.191l-.38.197-.197-.035-.468.12-.404-.01Zm.894.229.451.15-.805-.04.354-.11Zm.289.954-.674-.037c.312-.053.632-.045.94.023l-.266.014Zm.259-1.467.512-.255.128.023c-.155.074-.133.18-.6.239l-.04-.007Zm27.794-1.05a1.22 1.22 0 0 1-.538.058l.122-.06a1.22 1.22 0 0 1 .538-.057l-.122.06Zm.417-.119a.14.14 0 0 0 .01-.059l-.195.016-.197-.035.122-.06.256-.127.325.058.365.064.373.015-.271.155a1.237 1.237 0 0 1-.259.026l-.529-.053Zm.616.596-.191-.125.227.04.885.044-.92.041Zm2.488-.059-.935.008-.132-.115.934-.058.168.14-.035.025Zm.303-.393-.937.017-.142-.116.944-.057.16.13-.025.026Zm-.356-.632.17-.325 1.329.234-.72.452-.779-.36Zm1.27.285.393-.154.423.136-.816.018Zm1.271.163c-.345-.06.189-.149.169-.264l-.495-.016-.315-.056 1.188.057.059.01-.295-.051.325.057-.636.264Zm.301-.383c-.364-.064.242-.16.172-.285l.414.074-.586.211Zm.886-.646c-.108-.02-.217-.038-.334-.008l-.226.072-.344-.061.323-.105.059.01.089.016.139-.098c.245-.057.499-.074.75-.05l-.465.1.118.021-.008.05.56.048-.661.005Zm13.269-2.636.023.217-.217.135a1.696 1.696 0 0 1-.014-.267l.208-.085Zm-.282.448-.34.143-.453-.019c.251-.107.524-.156.797-.144l-.004.02Zm-.106.6-.443-.017.11-.051.786-.024-.453.093Zm.845-.47-.118.152-.226.011.344-.163Zm-.265.756.313-.108.431.148-.744-.04Zm58.403-5.218.442-.034a2.18 2.18 0 0 0-.034.197l-.118-.02-.177-.093-.362.038c-.081.057.212.119-.214.176.013-.052.022-.105.028-.158l.217.038.218-.144Zm.264.463-.188.028c0-.03.006-.06.015-.089l.099.017.074.044Zm-1.755-1.569c.012-.069.187-.14.29-.203l.482.086.385-.166.207.036-1.013.502.415.012a.813.813 0 0 1-.457.113c.116-.081-.047-.08-.315-.056l-.301.038c.102-.175.295-.293.296-.414l.011.052Zm.777.665-.227-.04a.936.936 0 0 0 .028-.157l.217-.023-.018.22Zm-3.329-.587.382-.034c-.072.037-.14.079-.205.126l-.267.075-.073-.165.163-.002Zm-.081 1.438.421.145-.814.01.393-.155Zm-3.48.27.011-.06a7.704 7.704 0 0 1 1.104.013l-.029.167-1.086-.12Zm.814.509-1.117-.116a.233.233 0 0 0 .013-.069 9.978 9.978 0 0 1 1.114.014c-.028-.015-.027.036-.019.108l.009.063Zm-2.343-.474.256-.128.325.058.364.064.375.005-.273.165-.268.024-.492-.087a.133.133 0 0 1 .01-.059l-.242.049-.197-.035.142-.056Zm-.213.46a1.52 1.52 0 0 0-.207-.037l.134-.067.246-.13.335.06.364.064.365.064-.283.163-.257.016-.502-.088.011-.06-.206.015Zm-.326-.281c.172-.058.356-.074.536-.048l-.122.06a1.22 1.22 0 0 1-.538.058l.124-.07Zm-.275.002-.575.153-.611-.108a3.352 3.352 0 0 1 1.177-.107l.009.062Zm-.584.375.603-.25.374.006a5.104 5.104 0 0 1-1.589.491l.229-.092-.512-.09c.285-.098.585-.141.886-.128l.009.063Zm-.342.559-.453-.08.427-.179.026.259Zm-14.183-.592.138.024.225-.123.069.185-.432.087-.049-.01-.189.038.1-.053-.334-.059.472-.09Zm.04.291.069.185-.724.136.655-.32Zm-.689.224c-.325-.057-.049-.07.019-.108l.217.038-.236.07Zm-.145-.27.455.01-.34.143-.363-.013.248-.14Zm-12.145.52.128.022a.723.723 0 0 1-.083.128h.345c.203-.056.13-.16.59-.18l-.277.133-.202.107-.108-.02.071-.058-.079-.014-.458.123-.414-.012.487-.23Zm-2.037 1.59.205-.126.444-.044c-.016.065-.028.13-.035.197l-.118-.02-.176-.093-.363.038c-.081.057.213.119-.215.185a.766.766 0 0 0 .028-.157l.23.02Zm.468.337-.185.017c0-.03.005-.06.015-.088l.099.017.071.054Zm-.718-.127c-.014.079-.026.148.02.227l-.167-.03c.024-.138-.167-.202.144-.3l.003.103Zm-.268-.961.023.217-.227-.04a.704.704 0 0 0 .028-.157l.176-.02Zm-1.897.508c.241-.067.493-.085.741-.052l-.971.204.23-.152Zm-7.346-.148.355.063-.531.13-.147-.027.323-.166Zm-.301.384.384.068-.538.118-.138-.025.292-.161Zm-4.722.233.191-.047.227.04c-.201.1-.427.138-.649.109l.231-.102Zm-1.368.043-.128.09-.117.03-.734-.038.979-.082Zm-.75 2.061c-.325-.057-.048-.069.019-.108l.584.032-.603.076Zm1.509-1.186c-.315-.055-.048-.069.018-.098l.216.038-.234.06Zm.018-.098-.373-.015.259-.147.455.01-.341.152Zm.129-.272.552-.136.226.04-.302.16-.476-.064Zm.551.616.605.025.62.11.05.008c-.44.02-.88-.03-1.304-.149l.029.005Zm.303-.394.603.035.611.108c.059.01 0 0 .05.06a3.785 3.785 0 0 1-1.293-.208l.029.005Zm1.497-1.178c.321-.035.188.033.228.091.041.058.418-.068.436.006-.158-.028-.418.068-.436-.006-.368.016-.223-.06-.257-.096l.029.005Zm.569.578-.461.02a.766.766 0 0 0 .028-.157l.443-.034.217-.023-.454.042.227.152Zm.42-.251-.227-.04s-.116-.092.215-.125l.237.042-.225.123Zm-.134 2.545c.175-.07.295-.12.495-.217-.015.065-.027.13-.035.197l-.46.02Zm5.819-2.02-.325.46c-.129-.134-.257-.268-.397-.394a.744.744 0 0 0 .033-.188l-.752.173-2.391.086-.16.043-.414-.013a.86.86 0 0 1 .519-.121 1.1 1.1 0 0 0 .273-.054l.089.016-.298.08c1.052-.211 2.158-.32 3.128-.464a.337.337 0 0 1-.013-.164.339.339 0 0 1 .063-.152.348.348 0 0 1 .285-.144l.18.357.139-.036.236.042 1.332-.243.079.075-1.673.386.067.255Zm1.648.098c.163-.063.249-.088.393-.154l.421.145-.814.009Zm.947-.128-.355-.062 1.198.059.05.06-.893-.057Zm3.21.972-.492.025c.017-.098.384-.105.723-.126l-.231.101Zm.51-.65-.679-.009.505.018-.251.159-.443.033c-.068.04-.188.089-.205.127-.017.037-.267.074-.443.094.022-.128.151-.166.648-.22l-.197-.035.083-.128c-.252.108-1.049.19-.82.333l-.377.065s-.118-.02-.08-.065c.138-.074.282-.137.429-.188l.573-.254-.453-.02.291-.04.392-.032.176-.02.309-.026.069.012-.024-.208.493-.034-.34.204.189-.038.676.028-.572.244a.4.4 0 0 0 .029-.045l.022.044Zm.793-1.1-.207-.036.511-.246.08.065-.384.217Zm.292-.385-.197-.035.502-.257.078.075-.383.217Zm.046-.266-.355-.114.12-.05.217.039.453.08-.435.045Zm.094-.187.425-.22-.217.023-.354-.123.11-.052.217.039.404.07a1.494 1.494 0 0 1-.08.109l.353.011c.205-.065.132-.17.581-.182l-.379.187-.197-.034-.458.122-.405.05Zm1.963-.537.128.023a1.268 1.268 0 0 1-.64.232l.512-.255Zm-1.059.768.441.149-.805-.04.364-.11Zm.848.545-.266.014-.676-.027c.289-.061.587-.074.88-.038l.062.051Zm-.303.394-.266.014-.664-.036c.286-.068.582-.092.875-.07l.055.092Zm-.902 1.029-.191-.125.226.04.888.034-.923.05Zm.301-.384-.189-.135.216.038.896.047-.923.05Zm1.442-2.416-.442-.027 1.061-.26-.619.287Zm10.033-1.156a1.248 1.248 0 0 1-.139.098l-.109-.02-.736-.028.984-.05Zm-.843 2.015c-.315-.056-.049-.07.019-.109l.583.032-.602.077Zm1.115.988-.488.006-.392.032a.898.898 0 0 1-.058-.132.998.998 0 0 1 .221-.042l.661-.006.079.014.143-.066.226-.01a.413.413 0 0 1-.009.049l-.019.108-.364.047Zm.522.092.235-.181.785-.014c-.324.12-.668.173-1.013.156l-.007.04Zm.292-.385.262-.167.795-.012c-.345.115-.708.16-1.07.136l.013.043Zm1.825-.044-.465-.01-.251.037.009-.05.217.039.11-.052.413.022-.033.014Zm.043-2.49.446-.226.414.073-.86.153Zm1.654.637-.635.091-.158-.028.513-.082c.217-.083.41-.08.287-.02l-.007.04Zm.292-.385-.634.081-.158-.028c.168.03.346-.06.521-.07.174-.01.41-.08.278-.023l-.007.04Zm10.731.877-.124.069-.537.048c.07-.039.144-.07.22-.094l-.443-.078.427-.178c-.017.098-.028.157.02.288.154-.043.312-.07.471-.08l-.034.025Zm.738-.327c.02-.118.108-.215.169-.326l1.32.284-.727.44-.762-.398Zm1.802.318-.121.05-.216-.039.242-.11-.544.037.2-.097.675.028-.236.13Zm.182-.344-.217-.038.241-.1-.544.036.202-.107.663.036-.229.092-.116.08Zm.778.137-.562.023-.119-.021.333-.043c.184-.12.511-.133.359-.018l-.011.06Zm1.499-.609-.936.008-.132-.115.934-.059.168.142-.034.024Zm.538-2.129c-.215.125-.47.242-.714.362l-.468.232-.452.032-.112.173-.475-.012c.354-.222.351-.436.855-.642l.786-.196.626-.042-.077.037s.093-.065.009-.05l.022.106Zm.376 1.782.392-.154.423.136-.815.018Zm1.49 1.106-.631-.335c.098-.267.197-.544.329-.886l-.237-.042-.354-.062.615.027.049.009.532.033.059.01-.434-.016.588.236-.516 1.026Zm.664-1.518-.58.182c-.345-.06.188-.15.168-.264l-.503-.028-.344-.06 1.119.044-.455-.415.868-.72.183.174.088.016.126.093-.137.026.139.137-.026.147.138.025-.158.033c-.108.265-.216.53-.362.9l-.264-.29Zm.675 1.358a.8.8 0 0 0 .008-.05l-.225.012a.267.267 0 0 0 .015-.089l.147-.025.083.106.177.032-.205.014Zm.757-.435c-.018.098-.269.085-.445.104.022-.128.151-.166.648-.22l-.197-.035.083-.128c-.283.113-1.047.181-.777.32l-.377.066s-.118-.021-.08-.065c.038-.044.285-.122.429-.188l.571-.245-.285-.05.05.06-.387.063s-.118-.02-.07-.063c.136-.071.276-.135.419-.19l.572-.245-.434-.076.282-.042.391-.032.178.03c.008-.048-.093-.107.162-.173.012.075.019.15.021.227l-.167-.03-.069-.012a2.232 2.232 0 0 1-.139.21l.05.008.177.031a.366.366 0 0 1 .017-.099l.482-.026-.203.116.059.01.674.038-.571.245-.016.088-.677-.017.506.008-.261.157-.435.045c-.029-.066-.147-.026-.164.012l-.017.098Zm.572.324-.494.035c.018-.098.386-.115.725-.136l-.231.101Zm.291-.385-.482.027c.016-.089.375-.107.713-.128l-.231.101Zm1.434-.762a.654.654 0 0 0-.017.098l-.331.094a2.96 2.96 0 0 0-.278.134l-.108-.02.547-.279.207.037.256-.128.29-.151c-.041.002-.052.01-.546.106l-.02.108Zm.507-1.09.365-.107.442.139-.807-.031Zm9.055-1.652-.342.153-.452-.029c.249-.14.528-.219.813-.232l-.019.108Zm-5.891.413 1.043-.16.079.074-.011.059c.225-.045.456-.05.683-.012-.195.068-.372.148-.586.212l-.107.032-.092.116c-.268.023-.226-.04.018-.099l-.168.031c.175-.07.216-.134.12-.161-.097-.027-.148.086-.095.135l-.431.026-.247-.044-.206-.209Zm.729 1.967a.88.88 0 0 1 .458-.122.669.669 0 0 1-.439.014l-.019.108Zm.774-.879.722-.177.138.024a1.998 1.998 0 0 1-.837.025l-.023.128Zm.269-.369a2.131 2.131 0 0 0-.937-.043l-.463-.082.766-.2.444.017-.009.05.241-.04.226.04.552.098-.82.16Zm1.154.133.367-.24-.034.197-.333.042Zm2.048-1.193c-.226-.04-.486-.005-.244-.114.06.01.011-.06.016-.089.217.039.479-.007.236.103-.053-.1 0-.06.015-.028l-.023.128Zm-.18 2c-.246-.044.027-.149.131-.221.104-.073.428-.067.444.017l-.575.203Zm.953-1.427-.454-.02.121-.049.786-.024-.453.093Zm.501-.308.333-.164-.12.161-.213.003Zm2.202-.627-.117.03-.735-.038 1.029-.072-.177.08Zm11.169-.285c-.171.397-.331.785-.502 1.181l-.359-.155c.134-.3.27-.612.4-.944l-2.117.49-2.401.084-.15.044-.415-.012a.783.783 0 0 1 .51-.123.997.997 0 0 0 .273-.054l.099.018-.309.077c1.334-.252 2.674-.36 3.768-.635l.226.04.62-.114.26-.614.17.537.283-.051.078.074-.434.157Zm3.474 1.892.898.037c-.302.002-.6-.072-.866-.214l-.032.177Zm2.796-2.553-.207-.036.501-.247.098.017-.392.266Zm1.842.325-.265.004-.675-.028c.31-.11.639-.155.968-.134l-.028.158Zm-.914.864-.19-.135.217.039.896.046-.923.05Zm-84.286 63.377a2.605 2.605 0 0 1-.705-.551c-.185-.276-.209-.656.229-.721l.809.711c-.017.15-.145.361-.264.573l-.069-.012Zm27.203-2.819c-.536-.186-.517.396-.712.697l-.523-.722c.153-.349.296-.699.503-1.181l1.108.338a4.255 4.255 0 0 1-.307.88l-.069-.012Zm10.673-1.043-.06-.122.541-.016-.481.138Zm31.773-2.825-.319-.666c.988-.709 1.691.491 2.451.788l-2.132-.122Zm51.708-11.07.173.346c-.033.187.003.386.005.66l-.126-.265a.797.797 0 0 0-.122-.458c.068-.1.091-.228.116-.315l-.046.033Zm-1.95 3.058-.062-.63.13.297c.051.245.058.498.021.745l-.089-.412Zm.628-3.565-.054.306c.039.585.073 1.2-.109 1.31.032-.583.051-1.097.071-1.612.052-.295.034-.593.046-.895.013-.302.03-.746.055-1.118l.092.23c.008.409-.03.818-.114 1.219l.013.56Zm-.536 4.597s.008-.05.078.075c.07.124-.003.477-.013.708l-.065-.783Zm1.709-3.933-.075.078-.181-.357c.026-.147.044-.246.004-.425.158.2.257.157.311.715l-.059-.01Zm-.683.357c.059.071.121-.222.187.206-.068-.013-.157-.089-.177.202l-.156-.271c.057.253.104.505.159.769l.121.123a1.318 1.318 0 0 0-.019.453l-.102-.23a5.33 5.33 0 0 1-.406-1.555l.071-.404c.041.23.099.475.148.717l.174-.01Zm.054-1.514-.554-.199.103-.58.067.133c.189.256.305.003.45.617l-.066.03Zm-.347-2.467c.033.14.077.276.131.409l.044.444s-.014.079-.078.098c-.058-.193-.112-.345-.165-.507a4.05 4.05 0 0 1-.045-.952c.107.14.135.329.179.479l-.066.029Zm-.462 2.62.005.721-.136-.268c.06-.335.029-.624.039-.907a.694.694 0 0 1 .119.417l-.027.036Zm-.849-6.243a6.011 6.011 0 0 1-.122-.397c-.037-.139-.019-.298-.034-.443l.215-.013.006.661-.065.192Zm1.464-.757-.941-.075-.212-.525.55-.126c.291.133.847.15.637.65l-.034.076Zm.245-3.806.094.504a.973.973 0 0 0-.105.134l-.078-.48c.034-.081.075-.159.122-.233l-.033.075Zm-.168-2.852c.049.13.097.26.135.39l.058.131-.101.226-.211-.646c-.043-.16-.087-.31-.122-.459-.035-.148.19.014.275.283l-.034.075Zm-.149 2.918c-.022.128.021.288.036.433l-.629.052a74.878 74.878 0 0 0-.122-1.382l.715.897Zm-1.953 1.057 1.154.6c-.119.212-.228.427-.337.641-.109.214-.109.214-.167.316l-.393-.191c.105-.195.201-.392.355-.69l-.903-.006c.133-.291.207-.481.325-.745l-.034.075Zm.578-4.254c-.011.059-.12.162-.368.473l.187-1.063c.083.166.154.338.214.515l-.033.075Zm.099-7.822-.027.676-.05-.12c.065-.253.01-.75.111-.63l-.034.074Zm-.106-.78c.023-.128-.004-.265.001-.406l-.012.069a.962.962 0 0 0-.015.373l.026-.036Zm.094-.532.136-.768c-.018.444-.035.715-.036 1.01l-.1-.242Zm.238-2.385.101.231.058-.325c.055-.315.063-.07.098.018-.034.481-.095.541-.171.335-.026.148.019.298.018.42-.073.413-.077.84-.123 1.329l-.079-.187c.054-.305-.007-.824.097-.897-.034-.148-.059-.294-.097-.484-.038-.19.107-.377.131-.515l-.033.075Zm-2.45-2.462-.046-.486c.048-.084.09-.172.127-.262.029.225.02.454-.027.676l-.054.072Zm1.679 4.936c-.014.079-.028.158-.091.228l-.11-.355c.122-.12.164-.357.234.052l-.033.075Zm-.786.48-.12.68c-.031-.167-.073-.388-.07-.408.004-.02.063-.76.224-.346l-.034.075Zm1.271-11.412-.148-.026c.042-.236.022-.412.047-.723.046.313.094.504.101.75Zm-.539 1.621c.046.486-.073.414-.123.405l.012-.414.111.01Zm.218-4.409c-.055.315-.12-.123-.245-.277l.143-.066.102.343Zm-.069-1.85c-.075.424-.033.644-.04.856-.006.212.014.673-.097.552a4.914 4.914 0 0 0-.008-.875c.041-.115.075-.25.143-.523l.002-.01Zm-2.675-.725.028-.158c.062-.387.097-.778.105-1.17a.705.705 0 0 0-.014.08c-.025.482-.036 1.008-.068 1.419l-.047.266-.004-.438Zm.281-.327.1-.165c.049.242.007.306-.102.175l.002-.01Zm-.049 2.581c-.018-.186-.025-.32-.043-.444l.059.01.114.386-.13.048Zm.967-1.454.05.009c.068.073.13-.221.187.205-.059-.01-.147-.087-.168.204l.008-.05-.062.355-.099-.017-.01-.631-.055-.091.026-.148c.014-.079-.028-.188-.042-.282l.038-.216c.039.128.069.245.104.394.034.148.006.194.022.278l.001-.01Zm-.038-2.2c-.017.524-.004 1.048.038 1.57l-.094-.22c-.004-.264-.019-.52-.024-.785-.004-.265-.004-.377-.011-.571-.006-.194.051-.286.006-.436l.085.442Zm-.114-.508c-.017-.419-.045-.84-.065-1.3.012-.05.021-.099.026-.148.08.477.083.964.01 1.443l.029.005Zm-.116-2.853.337-.012c-.016.089-.116.142-.57.123l.233-.111Zm-.57-.801-.164.123-.074-.267c.398-.01.116.092.209.139l.029.005Zm-.724 1-.461.02.101-.054.418-.007s-.066.028-.088.035l.03.005Zm-.159-3.075.226-.011c-.023.128.004.265-.001.406l.089.016.133.104-.23.041a.507.507 0 0 1-.023.128l-.034.197c.015-.089-.058-.193-.09-.3l-.088-.016-.146-.096.209-.035a6.308 6.308 0 0 1-.067-.479l.022.045Zm-26.475.592-.431.025-.12-.123.231-.101.897.036-.577.163Zm1.764-.157-.187-.032-.325-.058-.226.072-.345-.06.324-.106.059.01c.163-.04.33-.061.499-.064a.396.396 0 0 0-.148-.026l-.617-.647 1.939.92c-.366.464-.664.198-.973-.008Zm9.753 1.07c.481.034.531.094.323.18a2.974 2.974 0 0 0-.315-.056c-.32-.026-.075-.034.001-.122l-.009-.002Zm-.796-.038.468-.121-.679.337a2.33 2.33 0 0 1-.291.04l.502-.257Zm-1.536-.271.217.038.118-.04.414.012-.067.039-.465-.011-.241.039s.013-.018.024-.077Zm-.081-.116c-.333.133-.69.194-1.048.18l.263-.166.785-.014Zm-.484-2.269c.019.06.043.12.071.175l-.726.146.655-.32Zm-2.116 2.674.671-.004.079.014.143-.066.207.036-.019.108-.398.012-.478.007-.402.03-.058-.132.255-.005Zm-1.017-.566.445.008.021-.118.436.005-.379.187-.414-.012-.197-.034.088-.036Zm-.793.175.335-.052.088.015a.67.67 0 0 1-.458.122.688.688 0 0 0 .034-.075l.001-.01Zm-1.511 1.145-.723-.046.8-.103-.077.15Zm-.312-2.32-.345-.06 1.131.037c-.26.048-.525.056-.786.024Zm.127-.434.542.268-.156.075a2.895 2.895 0 0 1-.778-.138l.392-.205ZM13.07 109.45c.022.05.047.099.076.145a.118.118 0 0 1 .016-.088l-.092-.057Z"/>
        <path d="m96.103 48.228-1.351.117-.083.473a4.11 4.11 0 0 0 .915-.356c.168-.09.341-.167.519-.234ZM58.95 53.517l.017-.099-.059-.01s.027.076.042.109ZM144.369 44.005l-.195.017.195-.017ZM67.012 108.919c.424-.981.748-2.003.964-3.049l-.177-.032-.276.53a7.265 7.265 0 0 0-.753-.224 1.345 1.345 0 0 1-.34.032 6.544 6.544 0 0 0-.108 1.413l-.808.781.388.911 1.155-.101c-.026-.024-.028-.126-.045-.261ZM9.391 58.791c-.058.103-.11.21-.157.318l-.013.069.021-.118.06.01.013-.079.076-.2ZM65.078 109.116l-.427.351 1.032-.092-.605-.259ZM48.886 72.41l.24 2.739-6.974.61 1.286 14.694-2.864.25-1.526-17.433 9.838-.86Zm9.771 4.163 2.69-.235 1.09 12.453-2.69.235-.157-1.793c-.89 1.5-2.28 2.332-4.173 2.498-1.71.15-3.227-.354-4.549-1.51-1.324-1.172-2.066-2.671-2.226-4.498-.16-1.843.31-3.448 1.411-4.816 1.102-1.368 2.508-2.126 4.218-2.276 1.892-.166 3.406.405 4.541 1.71l-.155-1.768Zm-5.953 9.681c.812.682 1.783.974 2.912.875 1.129-.1 2.034-.555 2.716-1.367.68-.83.97-1.817.87-2.962-.1-1.146-.556-2.06-1.369-2.742-.814-.698-1.785-.998-2.914-.899-1.13.099-2.034.563-2.714 1.392-.682.813-.973 1.791-.873 2.937.1 1.146.557 2.068 1.371 2.766Zm18.798-11.13c1.71-.15 3.227.361 4.551 1.534 1.322 1.155 2.064 2.647 2.223 4.473.162 1.843-.309 3.448-1.41 4.816-1.102 1.368-2.508 2.127-4.218 2.276-1.893.166-3.406-.404-4.541-1.71l.59 6.749-2.69.235-1.525-17.433 2.69-.235.157 1.793c.89-1.5 2.28-2.333 4.173-2.499Zm-2.414 9.697c.813.681 1.783.973 2.912.874 1.13-.099 2.035-.554 2.716-1.367.68-.829.97-1.816.87-2.962-.1-1.145-.556-2.06-1.368-2.74-.815-.7-1.786-1-2.915-.9-1.129.098-2.034.562-2.714 1.392-.682.812-.973 1.791-.872 2.937.1 1.145.557 2.067 1.371 2.766Zm20.944-10.992 2.69-.236 1.089 12.453-2.69.235-.157-1.793c-.89 1.5-2.28 2.332-4.173 2.498-1.71.15-3.226-.353-4.549-1.51-1.324-1.172-2.066-2.671-2.225-4.497-.161-1.843.309-3.449 1.41-4.817 1.102-1.368 2.508-2.126 4.218-2.276 1.893-.165 3.407.405 4.541 1.71l-.154-1.767Zm-5.954 9.68c.812.682 1.783.974 2.912.875 1.13-.099 2.035-.555 2.716-1.367.68-.83.97-1.817.87-2.962-.1-1.146-.556-2.06-1.369-2.741-.814-.699-1.785-.998-2.914-.9-1.13.099-2.034.563-2.714 1.392-.682.813-.973 1.792-.872 2.937.1 1.146.557 2.068 1.37 2.766Zm20.171-10.924 2.69-.236 1.09 12.453-2.69.235-.434-4.956-5.703.499.434 4.956-2.69.235-1.09-12.452 2.69-.235.434 4.956 5.703-.5-.434-4.955Zm15.325-1.341.226 2.59-4.059.355.863 9.863-2.69.235-.863-9.863-4.084.358-.227-2.59 10.834-.948Zm10.835-.948 2.067-.18 1.09 12.451-2.64.232-.693-7.92-5.683 8.477-2.067.181-1.089-12.452 2.64-.231.69 7.895 5.685-8.453Zm14.826-1.297 1.09 12.452-2.64.231-.366-4.184-1.494.13-2.797 4.462-3.163.276 2.974-4.727a4.167 4.167 0 0 1-2.223-1.311 4.008 4.008 0 0 1-.981-2.323c-.1-1.146.222-2.153.966-3.021.759-.886 1.786-1.386 3.081-1.5l5.553-.485Zm-4.883 6.425 2.764-.242-.307-3.511-2.764.241c-.548.048-.991.246-1.329.593-.337.348-.482.795-.434 1.343.046.532.266.939.659 1.223.393.283.863.4 1.411.353Zm17.142-12.517 2.49-.218 1.525 17.434-2.864.25-1.257-14.37-3.424 1.304-.911-2.38 4.441-2.02Zm18.573 13.784c-1.051 1.748-2.656 2.717-4.815 2.906-2.158.189-3.915-.486-5.271-2.024-1.339-1.539-2.129-3.678-2.368-6.418-.24-2.74.166-4.983 1.217-6.731 1.069-1.75 2.682-2.72 4.84-2.908 2.159-.19 3.908.486 5.247 2.025 1.356 1.538 2.154 3.676 2.393 6.416.24 2.74-.174 4.984-1.243 6.734Zm-5.059.116c1.295-.113 2.236-.739 2.822-1.878.587-1.139.792-2.713.616-4.722-.176-2.008-.651-3.523-1.426-4.542-.775-1.02-1.811-1.473-3.106-1.36-1.278.112-2.219.738-2.822 1.878-.586 1.139-.791 2.713-.615 4.722.175 2.009.651 3.523 1.426 4.543.792 1.018 1.827 1.471 3.105 1.36Zm20.747-1.489c-1.052 1.749-2.657 2.717-4.816 2.906-2.158.189-3.915-.485-5.271-2.023-1.339-1.54-2.129-3.678-2.368-6.418-.24-2.74.166-4.984 1.218-6.732 1.068-1.75 2.681-2.719 4.84-2.908 2.158-.189 3.907.487 5.246 2.026 1.356 1.537 2.154 3.676 2.393 6.416.24 2.74-.174 4.984-1.242 6.734Zm-5.06.117c1.295-.114 2.236-.74 2.822-1.878.587-1.139.792-2.713.616-4.722-.175-2.009-.651-3.523-1.426-4.543-.775-1.02-1.81-1.473-3.105-1.36-1.279.112-2.22.738-2.822 1.879-.587 1.138-.792 2.712-.616 4.721.175 2.01.651 3.524 1.426 4.543.792 1.019 1.827 1.472 3.105 1.36Zm14.834-9.83c-.697.83-1.627 1.296-2.789 1.398-1.162.102-2.167-.195-3.014-.89-.849-.713-1.322-1.625-1.419-2.737-.097-1.113.211-2.085.924-2.917.713-.849 1.65-1.324 2.812-1.426 1.162-.101 2.159.196 2.989.893.847.696 1.32 1.608 1.419 2.737.097 1.113-.21 2.093-.922 2.942Zm-3.006-.791c.532-.047.948-.259 1.25-.637.301-.378.43-.815.387-1.314-.045-.514-.249-.931-.612-1.251-.362-.32-.809-.456-1.34-.41-.515.045-.923.257-1.225.635-.301.377-.43.823-.385 1.338.044.498.247.907.61 1.227.362.32.801.457 1.315.412Zm-1.766 9.64 10.363-13.78 1.413.654-10.361 13.805-1.415-.679Zm10.835 1.938c-1.162.102-2.167-.195-3.014-.89-.849-.713-1.322-1.625-1.419-2.737-.097-1.113.211-2.085.924-2.917.713-.849 1.65-1.324 2.812-1.425 1.146-.1 2.143.205 2.991.917.847.696 1.32 1.6 1.417 2.712.097 1.113-.21 2.093-.922 2.942-.714.832-1.643 1.298-2.789 1.398Zm-.217-2.19c.532-.046.948-.258 1.25-.635.301-.378.43-.816.387-1.314-.045-.515-.249-.932-.612-1.252-.362-.32-.809-.456-1.34-.41-.515.046-.923.257-1.225.635-.301.377-.43.824-.385 1.338.044.498.247.907.61 1.227.362.32.801.457 1.315.412Z"/>
    </g>
    <defs>
        <clipPath id="a">
            <path fill="#fff" transform="rotate(10 9.711 111)" d="M0 0h230.53v111.85H0z"/>
        </clipPath>
    </defs>
</svg>
