<svg width="36" height="38" fill="none" xmlns="http://www.w3.org/2000/svg">
    <path d="M8.653 15.23H6.34a1.093 1.093 0 0 0-1.093 1.097l.016 8.304a1.093 1.093 0 0 0 2.186 0V22.11c.447-.003.925-.005 1.204-.005 1.92 0 3.483-1.542 3.483-3.437 0-1.895-1.562-3.438-3.483-3.438Zm0 4.69-1.21.003-.004-1.255-.003-1.251h1.217c.703 0 1.297.573 1.297 1.25 0 .68-.594 1.252-1.297 1.252ZM17.951 15.23h-2.283a1.093 1.093 0 0 0-1.093 1.096l.016 8.063a1.093 1.093 0 0 0 1.093 1.09h.005c.069-.001 1.697-.007 2.348-.019 2.47-.043 4.263-2.19 4.263-5.106 0-3.064-1.748-5.123-4.349-5.123ZM18 23.274c-.283.005-.77.01-1.225.012-.003-.95-.01-4.883-.01-5.87h1.187c2.007 0 2.163 2.25 2.163 2.938 0 1.435-.654 2.895-2.115 2.92ZM29.504 17.333a1.093 1.093 0 0 0 0-2.186h-3.342c-.604 0-1.093.489-1.093 1.093v8.246a1.093 1.093 0 0 0 2.186 0v-3.108h1.984a1.093 1.093 0 0 0 0-2.186h-1.984v-1.86h2.25Z" fill="#E93123"/>
    <path d="M32.72 10.567h-.801v-.312c0-1.405-.532-2.74-1.5-3.76l-4.54-4.79A5.489 5.489 0 0 0 21.913 0H7.36a3.283 3.283 0 0 0-3.279 3.28v7.287h-.802A3.283 3.283 0 0 0 0 13.847v13.117a3.283 3.283 0 0 0 3.28 3.279h.801v3.79a3.283 3.283 0 0 0 3.28 3.279H28.64a3.283 3.283 0 0 0 3.279-3.28v-3.79h.802A3.283 3.283 0 0 0 36 26.965V13.846a3.283 3.283 0 0 0-3.28-3.28ZM6.268 3.279c0-.602.49-1.093 1.093-1.093h14.553c.896 0 1.763.373 2.38 1.023L28.833 8c.58.612.9 1.413.9 2.256v.312H6.267V3.279Zm23.466 30.753c0 .603-.49 1.094-1.093 1.094H7.36c-.602 0-1.093-.49-1.093-1.094v-3.79h23.466v3.79Zm4.08-7.068c0 .602-.49 1.093-1.092 1.093H3.279c-.602 0-1.093-.49-1.093-1.093V13.846c0-.603.49-1.093 1.093-1.093h29.442c.602 0 1.093.49 1.093 1.093v13.118Z" fill="#E93123"/>
</svg>
