<svg width="34" height="37" fill="none" xmlns="http://www.w3.org/2000/svg">
    <path d="M33.387 13.008h-2.53V9.307L21.551 0H2.529v13.008H0v19.728h2.53V37h28.327v-4.264h2.53V13.008ZM22.186 3.7l4.97 4.97h-4.97v-4.97ZM4.697 2.168h15.32v8.672h8.672v2.168H4.697V2.168ZM28.69 34.832H4.697v-2.096H28.69v2.096Zm2.53-4.264H2.168V15.176h29.05v15.392Z" fill="#0037A1"/>
    <path d="M11.273 25.076v-4.408a3.256 3.256 0 0 0-3.252-3.252H4.77v10.912H8.02a3.256 3.256 0 0 0 3.252-3.252Zm-4.335-5.492H8.02c.598 0 1.084.486 1.084 1.084v4.408c0 .598-.486 1.084-1.084 1.084H6.937v-6.576ZM16.693 28.328a3.256 3.256 0 0 0 3.252-3.252v-4.408a3.256 3.256 0 0 0-3.252-3.252 3.256 3.256 0 0 0-3.252 3.252v4.408a3.256 3.256 0 0 0 3.252 3.252Zm-1.084-7.66c0-.598.487-1.084 1.084-1.084.598 0 1.084.486 1.084 1.084v4.408c0 .598-.486 1.084-1.084 1.084a1.085 1.085 0 0 1-1.084-1.084v-4.408ZM26.45 28.328h1.083V26.16H26.45a2.17 2.17 0 0 1-2.168-2.168v-2.24a2.17 2.17 0 0 1 2.168-2.168h1.084v-2.168H26.45a4.34 4.34 0 0 0-4.336 4.336v2.24a4.34 4.34 0 0 0 4.336 4.336Z" fill="#0037A1"/>
</svg>
