<svg width="23" height="23" viewBox="0 0 23 21" fill="none" xmlns="http://www.w3.org/2000/svg">
<path d="M3.19445 10.9798V10.7881H0.479183C0.12779 10.7881 0 11.1076 0 11.459V17.4006C0 17.752 0.12779 18.1353 0.479183 18.1353H2.39585C2.6891 18.1097 2.95838 18.2982 3.03475 18.5825L3.45003 20.4353L5.46252 18.295C5.5837 18.1832 5.74518 18.1256 5.90972 18.1353H10.1584C10.5384 18.0904 10.8331 17.7822 10.8611 17.4006V14.3019H6.4528C4.65726 14.2345 3.2271 12.7763 3.19445 10.9798Z" fill="white"/>
<path d="M21.2432 0.56543H6.45286C5.39868 0.56543 4.47229 1.20432 4.47229 2.2585V10.9794C4.488 12.0773 5.35594 12.9733 6.45286 13.0238H12.9057C13.0703 13.0141 13.2317 13.0718 13.3529 13.1835L17.1223 17.2405L17.9848 13.471C18.0475 13.1916 18.3063 13.001 18.5918 13.0238H21.2432C22.2973 13.0238 23.0001 12.0335 23.0001 10.9794V2.2585C23.0001 1.20432 22.2973 0.56543 21.2432 0.56543ZM7.31535 4.0793H14.982C15.3349 4.0793 15.6209 4.36533 15.6209 4.71819C15.6209 5.07105 15.3349 5.35708 14.982 5.35708H7.31535C6.96249 5.35708 6.67646 5.07105 6.67646 4.71819C6.67646 4.36533 6.96249 4.0793 7.31535 4.0793ZM20.0931 9.19042H7.31529C6.96243 9.19042 6.6764 8.90439 6.6764 8.55153C6.6764 8.19867 6.96243 7.91264 7.31529 7.91264H20.0931C20.446 7.91264 20.732 8.19867 20.732 8.55153C20.732 8.90439 20.446 9.19042 20.0931 9.19042Z" fill="white"/>
</svg>
