<svg width="48" height="62" fill="none" xmlns="http://www.w3.org/2000/svg">
    <mask id="a" maskUnits="userSpaceOnUse" x="0" y="0" width="39" height="62" fill="#000">
        <path fill="#fff" d="M0 0h39v62H0z"/>
        <path fill-rule="evenodd" clip-rule="evenodd" d="M36.732 44.326a.878.878 0 0 1 1.756 0v10.609A6.072 6.072 0 0 1 32.423 61H7.065A6.072 6.072 0 0 1 1 54.935V7.065A6.072 6.072 0 0 1 7.065 1h25.358a6.072 6.072 0 0 1 6.065 6.065v5.718a.878.878 0 1 1-1.756 0V7.065a4.314 4.314 0 0 0-4.309-4.309H7.065a4.314 4.314 0 0 0-4.309 4.31v47.869a4.313 4.313 0 0 0 4.31 4.309h25.357a4.314 4.314 0 0 0 4.309-4.309V44.326Zm-1.757-31.572a.878.878 0 1 1-1.756 0V7.065a.797.797 0 0 0-.796-.796H29.9l-.019.053a3.19 3.19 0 0 1-2.994 2.103h-8.004a.878.878 0 0 1 0-1.756h8.004c.6 0 1.139-.379 1.342-.943l.142-.393c.177-.49.646-.82 1.167-.82h2.886a2.555 2.555 0 0 1 2.552 2.552v5.689ZM25.8 34.442a.878.878 0 0 0-1.242-.019l-6.22 6.035a.997.997 0 0 0 .024 1.447l14.76 13.411a.797.797 0 0 1-.699.415h-3.198l-13.06-11.867a.994.994 0 0 0-1.36.022L6.27 52.168V48.09l6.579-6.383a.878.878 0 1 0-1.223-1.26l-5.356 5.195V7.065c0-.439.357-.796.796-.796h2.641l.02.053a3.19 3.19 0 0 0 2.993 2.103h2.421a.878.878 0 0 0 0-1.756h-2.42a1.43 1.43 0 0 1-1.342-.943l-.142-.393a1.244 1.244 0 0 0-1.167-.82H7.065a2.555 2.555 0 0 0-2.552 2.552v47.87a2.555 2.555 0 0 0 2.552 2.552h25.358a2.555 2.555 0 0 0 2.553-2.552V44.43a.878.878 0 1 0-1.757 0v8.603l-13.074-11.88 5.636-5.468a.878.878 0 0 0 .019-1.242ZM6.27 54.935v-.32l9.244-8.97 11.1 10.086H7.064a.797.797 0 0 1-.796-.796Zm8.04-17.095 7.86-7.625a.878.878 0 1 1 1.223 1.26l-7.86 7.625a.876.876 0 0 1-1.24-.018.878.878 0 0 1 .018-1.242Z"/>
    </mask>
    <path fill-rule="evenodd" clip-rule="evenodd" d="M36.732 44.326a.878.878 0 0 1 1.756 0v10.609A6.072 6.072 0 0 1 32.423 61H7.065A6.072 6.072 0 0 1 1 54.935V7.065A6.072 6.072 0 0 1 7.065 1h25.358a6.072 6.072 0 0 1 6.065 6.065v5.718a.878.878 0 1 1-1.756 0V7.065a4.314 4.314 0 0 0-4.309-4.309H7.065a4.314 4.314 0 0 0-4.309 4.31v47.869a4.313 4.313 0 0 0 4.31 4.309h25.357a4.314 4.314 0 0 0 4.309-4.309V44.326Zm-1.757-31.572a.878.878 0 1 1-1.756 0V7.065a.797.797 0 0 0-.796-.796H29.9l-.019.053a3.19 3.19 0 0 1-2.994 2.103h-8.004a.878.878 0 0 1 0-1.756h8.004c.6 0 1.139-.379 1.342-.943l.142-.393c.177-.49.646-.82 1.167-.82h2.886a2.555 2.555 0 0 1 2.552 2.552v5.689ZM25.8 34.442a.878.878 0 0 0-1.242-.019l-6.22 6.035a.997.997 0 0 0 .024 1.447l14.76 13.411a.797.797 0 0 1-.699.415h-3.198l-13.06-11.867a.994.994 0 0 0-1.36.022L6.27 52.168V48.09l6.579-6.383a.878.878 0 1 0-1.223-1.26l-5.356 5.195V7.065c0-.439.357-.796.796-.796h2.641l.02.053a3.19 3.19 0 0 0 2.993 2.103h2.421a.878.878 0 0 0 0-1.756h-2.42a1.43 1.43 0 0 1-1.342-.943l-.142-.393a1.244 1.244 0 0 0-1.167-.82H7.065a2.555 2.555 0 0 0-2.552 2.552v47.87a2.555 2.555 0 0 0 2.552 2.552h25.358a2.555 2.555 0 0 0 2.553-2.552V44.43a.878.878 0 1 0-1.757 0v8.603l-13.074-11.88 5.636-5.468a.878.878 0 0 0 .019-1.242ZM6.27 54.935v-.32l9.244-8.97 11.1 10.086H7.064a.797.797 0 0 1-.796-.796Zm8.04-17.095 7.86-7.625a.878.878 0 1 1 1.223 1.26l-7.86 7.625a.876.876 0 0 1-1.24-.018.878.878 0 0 1 .018-1.242Z" fill="#0037A1"/>
    <path d="M38.488 44.326h-.1.1Zm0-37.26h-.1.1ZM29.9 6.268v-.1h-.07l-.024.066.094.034Zm-.019.053-.094-.034.094.034Zm-1.652-.596-.094-.034.094.034Zm.142-.393-.095-.034.095.034Zm-3.812 29.09-.07-.071.07.071Zm1.242.02-.072.069.072-.07Zm-7.461 6.015.07.072-.07-.072Zm-.302.729.1-.002-.1.002Zm.325.718.068-.074-.068.074Zm14.76 13.411.087.048.038-.069-.058-.053-.067.074Zm-3.897.415-.067.074.028.026h.04v-.1Zm-13.06-11.867-.067.074.067-.074Zm-1.36.022.07.072-.07-.072ZM6.27 52.168h-.1v.237l.17-.165-.07-.072Zm0-4.078-.07-.072-.03.03v.042h.1Zm6.579-6.383-.07-.072.07.072Zm.018-1.242.072-.07-.072.07Zm-1.241-.019.07.072-.07-.072Zm-5.356 5.196h-.1v.237l.17-.165-.07-.072ZM9.706 6.27l.095-.034-.024-.066h-.07v.1Zm.02.053.094-.034-.094.034Zm1.652-.596-.094.034.094-.034Zm-.142-.393-.094.034.094-.034Zm21.983 47.699-.067.074.167.152v-.226h-.1Zm-13.074-11.88-.07-.072-.076.074.079.072.067-.074Zm5.636-5.468-.07-.072.07.072ZM6.269 54.616l-.07-.072-.03.03v.042h.1Zm9.245-8.97.067-.074-.07-.064-.067.066.07.072Zm11.1 10.085v.1h.258l-.191-.174-.068.074Zm-19.549 0v.1-.1ZM22.17 30.215l-.07-.072.07.072Zm-7.86 7.625.07.072-.07-.072Zm9.101-7.607-.071.07.072-.07Zm-.018 1.242-.07-.072.07.072Zm-7.86 7.625.07.072-.07-.072Zm-1.24-.018.07-.07-.07.07Zm23.317 4.266a.978.978 0 0 0-.978.978h.2c0-.43.348-.778.778-.778v-.2Zm.978.978a.978.978 0 0 0-.978-.978v.2c.43 0 .778.349.778.778h.2Zm0 10.609V44.326h-.2v10.609h.2ZM32.423 61.1c3.4 0 6.165-2.766 6.165-6.165h-.2a5.972 5.972 0 0 1-5.965 5.965v.2Zm-25.358 0h25.358v-.2H7.065v.2ZM.9 54.935c0 3.4 2.766 6.165 6.165 6.165v-.2A5.972 5.972 0 0 1 1.1 54.935H.9Zm0-47.87v47.87h.2V7.065H.9ZM7.065.9A6.172 6.172 0 0 0 .9 7.065h.2A5.972 5.972 0 0 1 7.065 1.1V.9Zm25.358 0H7.065v.2h25.358V.9Zm6.165 6.165c0-3.4-2.765-6.165-6.165-6.165v.2a5.972 5.972 0 0 1 5.965 5.965h.2Zm0 5.718V7.065h-.2v5.718h.2Zm-.978.978c.54 0 .978-.438.978-.978h-.2c0 .43-.348.778-.778.778v.2Zm-.978-.978c0 .54.438.978.978.978v-.2a.778.778 0 0 1-.778-.778h-.2Zm0-5.718v5.718h.2V7.065h-.2Zm-4.209-4.209a4.214 4.214 0 0 1 4.209 4.21h.2a4.414 4.414 0 0 0-4.409-4.41v.2Zm-25.358 0h25.358v-.2H7.065v.2Zm-4.209 4.21a4.214 4.214 0 0 1 4.21-4.21v-.2a4.414 4.414 0 0 0-4.41 4.41h.2Zm0 47.869V7.065h-.2v47.87h.2Zm4.21 4.209a4.213 4.213 0 0 1-4.21-4.209h-.2a4.414 4.414 0 0 0 4.41 4.409v-.2Zm25.357 0H7.065v.2h25.358v-.2Zm4.209-4.209a4.214 4.214 0 0 1-4.209 4.209v.2a4.414 4.414 0 0 0 4.409-4.409h-.2Zm0-10.609v10.609h.2V44.326h-.2Zm-2.535-30.594c.54 0 .978-.438.978-.978h-.2c0 .43-.348.778-.778.778v.2Zm-.978-.978c0 .54.438.978.978.978v-.2a.778.778 0 0 1-.778-.778h-.2Zm0-5.689v5.689h.2V7.065h-.2Zm-.696-.696c.384 0 .696.312.696.696h.2a.897.897 0 0 0-.896-.896v.2Zm-2.524 0h2.524v-.2H29.9v.2Zm.075-.013.02-.053-.189-.068-.02.053.189.068Zm-3.088 2.17a3.29 3.29 0 0 0 3.088-2.17l-.188-.068a3.09 3.09 0 0 1-2.9 2.037v.2Zm-8.004 0h8.004v-.2h-8.004v.2Zm-.978-.979c0 .54.438.978.978.978v-.2a.778.778 0 0 1-.778-.778h-.2Zm.978-.978a.978.978 0 0 0-.978.978h.2c0-.43.349-.778.778-.778v-.2Zm8.004 0h-8.004v.2h8.004v-.2Zm1.248-.877a1.33 1.33 0 0 1-1.248.877v.2a1.53 1.53 0 0 0 1.436-1.009l-.188-.068Zm.142-.393-.142.393.188.068.142-.393-.188-.068Zm1.26-.886c-.562 0-1.069.356-1.26.886l.188.068a1.145 1.145 0 0 1 1.073-.754v-.2Zm2.887 0h-2.886v.2h2.886v-.2Zm2.652 2.652a2.655 2.655 0 0 0-2.652-2.652v.2c1.352 0 2.453 1.1 2.453 2.452h.2Zm0 5.689V7.065h-.2v5.689h.2ZM24.627 34.495a.778.778 0 0 1 1.1.017l.144-.14a.978.978 0 0 0-1.383-.02l.14.143Zm-6.219 6.035 6.22-6.035-.14-.143-6.22 6.034.14.143Zm-.27.655a.896.896 0 0 1 .27-.656l-.14-.143c-.215.21-.336.502-.33.802l.2-.003Zm.291.646a.896.896 0 0 1-.292-.646l-.2.003c.005.301.136.59.358.791l.134-.148Zm14.76 13.411-14.76-13.41-.134.147 14.76 13.411.134-.148Zm-.766.589c.34 0 .634-.19.786-.467l-.175-.096a.697.697 0 0 1-.61.363v.2Zm-3.198 0h3.198v-.2h-3.198v.2ZM16.098 43.938l13.06 11.867.134-.148-13.06-11.867-.134.148Zm-1.222.02a.894.894 0 0 1 1.222-.02l.134-.148a1.094 1.094 0 0 0-1.496.024l.14.144ZM6.338 52.24l8.536-8.282-.139-.144L6.2 52.097l.139.143Zm-.17-4.15v4.078h.2V48.09h-.2Zm6.609-6.455L6.2 48.018l.139.143 6.578-6.382-.139-.144Zm.017-1.1c.299.308.291.8-.017 1.1l.14.144a.978.978 0 0 0 .02-1.384l-.143.14Zm-1.1-.017a.778.778 0 0 1 1.1.017l.143-.14a.978.978 0 0 0-1.383-.02l.14.143Zm-5.356 5.196 5.355-5.196-.139-.143L6.2 45.57l.139.143Zm-.17-38.649v38.577h.2V7.065h-.2Zm.896-.896a.897.897 0 0 0-.896.896h.2c0-.384.313-.696.696-.696v-.2Zm2.641 0h-2.64v.2h2.64v-.2Zm.114.12-.02-.054-.188.068.02.053.188-.068Zm2.9 2.036a3.09 3.09 0 0 1-2.9-2.037l-.189.068a3.29 3.29 0 0 0 3.088 2.17v-.2Zm2.42 0h-2.42v.2h2.42v-.2Zm.778-.778c0 .43-.348.778-.778.778v.2c.54 0 .978-.438.978-.978h-.2Zm-.778-.778c.43 0 .778.348.778.778h.2a.978.978 0 0 0-.978-.978v.2Zm-2.42 0h2.42v-.2h-2.42v.2ZM11.283 5.76a1.53 1.53 0 0 0 1.435 1.009v-.2a1.33 1.33 0 0 1-1.247-.876l-.188.067Zm-.142-.393.142.393.188-.067-.142-.394-.188.068Zm-1.073-.754c.479 0 .91.303 1.073.754l.188-.068a1.344 1.344 0 0 0-1.261-.886v.2Zm-3.004 0h3.004v-.2H7.065v.2ZM4.613 7.065c0-1.352 1.1-2.452 2.452-2.452v-.2a2.655 2.655 0 0 0-2.652 2.652h.2Zm0 47.87V7.065h-.2v47.87h.2Zm2.452 2.453a2.455 2.455 0 0 1-2.452-2.453h-.2a2.655 2.655 0 0 0 2.652 2.652v-.2Zm25.358 0H7.065v.2h25.358v-.2Zm2.453-2.453c0 1.352-1.1 2.453-2.453 2.453v.2a2.655 2.655 0 0 0 2.653-2.653h-.2Zm0-10.506v10.506h.2V44.43h-.2Zm-.779-.778c.43 0 .779.348.779.778h.2a.978.978 0 0 0-.979-.978v.2Zm-.778.778c0-.43.348-.778.778-.778v-.2a.978.978 0 0 0-.978.978h.2Zm0 8.603v-8.603h-.2v8.603h.2ZM20.078 41.226l13.074 11.88.134-.148-13.074-11.88-.134.148Zm5.633-5.614-5.635 5.468.139.144 5.636-5.468-.14-.144Zm.017-1.1c.3.308.292.801-.017 1.1l.14.144a.978.978 0 0 0 .02-1.383l-.143.139ZM6.169 54.616v.32h.2v-.32h-.2Zm9.275-9.042L6.2 54.544l.14.143 9.245-8.97-.14-.143Zm11.237 10.083-11.1-10.085-.134.148 11.1 10.085.134-.148Zm-19.616.174h19.548v-.2H7.065v.2Zm-.896-.896c0 .494.402.896.896.896v-.2a.697.697 0 0 1-.696-.696h-.2ZM22.1 30.143l-7.859 7.625.14.144 7.858-7.625-.139-.144Zm1.383.02a.978.978 0 0 0-1.383-.02l.14.143a.778.778 0 0 1 1.1.017l.143-.14Zm-.02 1.384a.978.978 0 0 0 .02-1.383l-.143.14c.299.307.292.8-.017 1.1l.14.143Zm-7.86 7.625 7.86-7.625-.14-.144-7.859 7.626.14.143Zm-.68.276a.976.976 0 0 0 .68-.276l-.139-.143a.776.776 0 0 1-.542.22v.2Zm-.703-.297a.975.975 0 0 0 .702.297v-.2a.775.775 0 0 1-.558-.236l-.144.14Zm.021-1.383a.978.978 0 0 0-.02 1.383l.143-.139a.778.778 0 0 1 .016-1.1l-.139-.144Z" fill="#0037A1" mask="url(#a)"/>
    <mask id="b" maskUnits="userSpaceOnUse" x="9.283" y="14.291" width="38" height="28" fill="#000">
        <path fill="#fff" d="M9.283 14.291h38v28h-38z"/>
        <path fill-rule="evenodd" clip-rule="evenodd" d="M35.736 15.291c-2.374 0-4.647.73-6.57 2.11a.878.878 0 0 0 1.023 1.427 9.459 9.459 0 0 1 5.547-1.78c5.253 0 9.527 4.273 9.527 9.526 0 3.593-4.908 9.467-9.5 13.767a.038.038 0 0 1-.054 0c-4.592-4.3-9.5-10.174-9.5-13.767 0-1.89.552-3.715 1.597-5.28a.878.878 0 1 0-1.46-.975 11.231 11.231 0 0 0-1.893 6.255c0 2.291 1.425 5.25 4.236 8.793 2.162 2.727 4.574 5.09 5.82 6.256a1.79 1.79 0 0 0 1.227.483c.441 0 .883-.161 1.227-.483 1.246-1.166 3.658-3.53 5.82-6.256 2.81-3.543 4.236-6.502 4.236-8.793 0-6.221-5.062-11.283-11.283-11.283Zm-21.65 12.774a.878.878 0 0 0 .878-.878v-4.229a3.809 3.809 0 0 0 2.925-3.7 3.807 3.807 0 0 0-3.803-3.803 3.807 3.807 0 0 0-3.803 3.804 3.809 3.809 0 0 0 2.925 3.7v4.228c0 .485.393.878.878.878ZM12.04 19.26a2.05 2.05 0 0 1 2.047-2.047 2.05 2.05 0 0 1 2.047 2.047 2.05 2.05 0 0 1-2.047 2.046 2.05 2.05 0 0 1-2.047-2.046Zm23.697 1.008a6.315 6.315 0 0 1 6.308 6.307 6.315 6.315 0 0 1-6.308 6.308 6.315 6.315 0 0 1-6.308-6.308 6.315 6.315 0 0 1 6.308-6.307Zm0 1.756a4.556 4.556 0 0 0-4.551 4.551 4.556 4.556 0 0 0 4.55 4.551 4.556 4.556 0 0 0 4.552-4.55 4.556 4.556 0 0 0-4.551-4.552Z"/>
    </mask>
    <path fill-rule="evenodd" clip-rule="evenodd" d="M35.736 15.291c-2.374 0-4.647.73-6.57 2.11a.878.878 0 0 0 1.023 1.427 9.459 9.459 0 0 1 5.547-1.78c5.253 0 9.527 4.273 9.527 9.526 0 3.593-4.908 9.467-9.5 13.767a.038.038 0 0 1-.054 0c-4.592-4.3-9.5-10.174-9.5-13.767 0-1.89.552-3.715 1.597-5.28a.878.878 0 1 0-1.46-.975 11.231 11.231 0 0 0-1.893 6.255c0 2.291 1.425 5.25 4.236 8.793 2.162 2.727 4.574 5.09 5.82 6.256a1.79 1.79 0 0 0 1.227.483c.441 0 .883-.161 1.227-.483 1.246-1.166 3.658-3.53 5.82-6.256 2.81-3.543 4.236-6.502 4.236-8.793 0-6.221-5.062-11.283-11.283-11.283Zm-21.65 12.774a.878.878 0 0 0 .878-.878v-4.229a3.809 3.809 0 0 0 2.925-3.7 3.807 3.807 0 0 0-3.803-3.803 3.807 3.807 0 0 0-3.803 3.804 3.809 3.809 0 0 0 2.925 3.7v4.228c0 .485.393.878.878.878ZM12.04 19.26a2.05 2.05 0 0 1 2.047-2.047 2.05 2.05 0 0 1 2.047 2.047 2.05 2.05 0 0 1-2.047 2.046 2.05 2.05 0 0 1-2.047-2.046Zm23.697 1.008a6.315 6.315 0 0 1 6.308 6.307 6.315 6.315 0 0 1-6.308 6.308 6.315 6.315 0 0 1-6.308-6.308 6.315 6.315 0 0 1 6.308-6.307Zm0 1.756a4.556 4.556 0 0 0-4.551 4.551 4.556 4.556 0 0 0 4.55 4.551 4.556 4.556 0 0 0 4.552-4.55 4.556 4.556 0 0 0-4.551-4.552Z" fill="#E93123"/>
    <path d="m29.165 17.401-.058-.081.058.081Zm-.201 1.226.08-.059-.08.059Zm1.225.201-.058-.08.058.08Zm5.573 21.513-.068-.073.068.073Zm-.053 0 .069-.073-.069.073Zm-7.903-19.047-.083-.056.083.056Zm-.243-1.218-.056.083.056-.083Zm-1.218.243.083.055-.083-.055Zm2.344 15.048.078-.062-.078.062Zm5.82 6.256.068-.073-.068.073Zm2.454 0 .068.073-.068-.073Zm5.82-6.256-.078-.062.078.062Zm4.236-8.793h.1-.1Zm-32.055-3.616-.023-.097-.077.018v.08h.1Zm-1.756 0h.1v-.079l-.077-.018-.023.097Zm16.015-5.475a11.105 11.105 0 0 1 6.513-2.092v-.2c-2.395 0-4.688.736-6.63 2.129l.117.163Zm-.178 1.085a.778.778 0 0 1 .178-1.085l-.116-.163a.978.978 0 0 0-.225 1.365l.163-.117Zm1.086.18a.778.778 0 0 1-1.086-.18l-.163.117c.315.44.927.54 1.365.225l-.116-.163Zm5.605-1.8a9.56 9.56 0 0 0-5.605 1.8l.116.162a9.36 9.36 0 0 1 5.489-1.762v-.2Zm9.627 9.626c0-5.308-4.319-9.627-9.627-9.627v.2c5.198 0 9.427 4.23 9.427 9.427h.2Zm-9.532 13.84c2.3-2.153 4.679-4.701 6.484-7.163.903-1.23 1.664-2.441 2.2-3.572.534-1.13.848-2.186.848-3.105h-.2c0 .877-.3 1.903-.83 3.02-.528 1.115-1.28 2.315-2.179 3.54-1.796 2.448-4.167 4.987-6.46 7.134l.137.146Zm-.19 0c.053.05.136.05.19 0l-.137-.146a.062.062 0 0 1 .084 0l-.137.145Zm-9.532-13.84c0 .92.313 1.976.848 3.105.536 1.13 1.296 2.342 2.2 3.573 1.805 2.461 4.185 5.009 6.484 7.162l.137-.146c-2.294-2.147-4.664-4.686-6.46-7.135-.899-1.224-1.652-2.424-2.18-3.54-.529-1.116-.829-2.142-.829-3.019h-.2Zm1.614-5.336a9.582 9.582 0 0 0-1.614 5.336h.2c0-1.87.546-3.676 1.58-5.225l-.166-.111Zm-.215-1.08a.778.778 0 0 1 .215 1.08l.166.111a.978.978 0 0 0-.27-1.357l-.111.167Zm-1.08.216a.778.778 0 0 1 1.08-.215l.11-.166a.978.978 0 0 0-1.356.27l.166.111Zm-1.875 6.2c0-2.218.648-4.362 1.875-6.2l-.166-.11a11.331 11.331 0 0 0-1.91 6.31h.2Zm4.214 8.731c-2.808-3.54-4.214-6.476-4.214-8.73h-.2c0 2.326 1.444 5.308 4.257 8.854l.157-.124Zm5.81 6.245c-1.244-1.165-3.652-3.524-5.81-6.245l-.157.124c2.167 2.732 4.583 5.1 5.83 6.267l.137-.146Zm1.159.456a1.69 1.69 0 0 1-1.159-.456l-.136.146c.363.34.83.51 1.295.51v-.2Zm1.159-.456a1.691 1.691 0 0 1-1.159.456v.2c.466 0 .932-.17 1.295-.51l-.136-.146Zm5.81-6.245c-2.158 2.72-4.566 5.08-5.81 6.245l.136.146c1.248-1.168 3.664-3.535 5.83-6.267l-.156-.124Zm4.214-8.73c0 2.254-1.406 5.19-4.214 8.73l.157.124c2.813-3.547 4.257-6.528 4.257-8.855h-.2ZM35.736 15.39c6.166 0 11.183 5.017 11.183 11.183h.2c0-6.277-5.106-11.383-11.383-11.383v.2ZM14.864 27.187c0 .43-.348.778-.778.778v.2c.54 0 .978-.438.978-.978h-.2Zm0-4.229v4.229h.2v-4.229h-.2Zm2.925-3.7a3.709 3.709 0 0 1-2.848 3.603l.046.195a3.909 3.909 0 0 0 3.002-3.797h-.2Zm-3.703-3.703a3.707 3.707 0 0 1 3.703 3.704h.2a3.907 3.907 0 0 0-3.903-3.904v.2Zm-3.703 3.704a3.707 3.707 0 0 1 3.703-3.704v-.2a3.907 3.907 0 0 0-3.903 3.904h.2Zm2.848 3.602a3.709 3.709 0 0 1-2.848-3.602h-.2a3.909 3.909 0 0 0 3.002 3.797l.046-.195Zm.077 4.326v-4.229h-.2v4.229h.2Zm.778.778a.778.778 0 0 1-.778-.778h-.2c0 .54.438.978.978.978v-.2Zm0-10.853a2.15 2.15 0 0 0-2.147 2.147h.2a1.95 1.95 0 0 1 1.947-1.947v-.2Zm2.147 2.147a2.15 2.15 0 0 0-2.147-2.147v.2a1.95 1.95 0 0 1 1.947 1.947h.2Zm-2.147 2.146a2.149 2.149 0 0 0 2.147-2.146h-.2a1.95 1.95 0 0 1-1.947 1.946v.2ZM11.94 19.26c0 1.183.963 2.146 2.147 2.146v-.2a1.95 1.95 0 0 1-1.947-1.946h-.2Zm30.205 7.315a6.415 6.415 0 0 0-6.408-6.407v.2a6.215 6.215 0 0 1 6.208 6.207h.2Zm-6.408 6.408a6.415 6.415 0 0 0 6.408-6.408h-.2a6.215 6.215 0 0 1-6.208 6.208v.2Zm-6.408-6.408a6.415 6.415 0 0 0 6.408 6.408v-.2a6.215 6.215 0 0 1-6.208-6.208h-.2Zm6.408-6.407a6.415 6.415 0 0 0-6.408 6.407h.2a6.215 6.215 0 0 1 6.208-6.207v-.2Zm-4.451 6.407a4.456 4.456 0 0 1 4.45-4.451v-.2a4.656 4.656 0 0 0-4.65 4.651h.2Zm4.45 4.451a4.456 4.456 0 0 1-4.45-4.45h-.2a4.656 4.656 0 0 0 4.65 4.65v-.2Zm4.452-4.45a4.456 4.456 0 0 1-4.451 4.45v.2a4.656 4.656 0 0 0 4.651-4.65h-.2Zm-4.451-4.452a4.456 4.456 0 0 1 4.451 4.451h.2a4.656 4.656 0 0 0-4.651-4.651v.2Z" fill="#E93123" mask="url(#b)"/>
</svg>
