<svg width="19" height="19" fill="none" xmlns="http://www.w3.org/2000/svg">
    <path d="M7.432 5.676a2.91 2.91 0 0 1 2.147-.814l-.005.124-2.142.69Zm0 0a2.844 2.844 0 0 0-.88 2.064.789.789 0 1 0 1.579 0c0-.352.14-.681.396-.927.265-.255.616-.388.993-.375a1.328 1.328 0 0 1 1.282 1.26 1.316 1.316 0 0 1-1.042 1.33M7.432 5.677 9.76 9.029m0 0a1.366 1.366 0 0 0-1.082 1.34v.957a.789.789 0 1 0 1.578 0v-.795M9.76 9.03l.027.122c-.58.127-.984.628-.984 1.218v.957a.664.664 0 1 0 1.328 0v-.892m0 0 .03.122.095-.025m-.125-.097h.125v.097m-.125-.097.125.097m3.707 6.35a.789.789 0 1 0-.818-1.35A7.034 7.034 0 0 1 9.5 16.548 7.055 7.055 0 0 1 2.453 9.5 7.055 7.055 0 0 1 9.5 2.453 7.055 7.055 0 0 1 16.547 9.5c0 1.39-.413 2.741-1.195 3.911a.789.789 0 1 0 1.312.877A8.59 8.59 0 0 0 18.125 9.5a8.57 8.57 0 0 0-2.526-6.099A8.57 8.57 0 0 0 9.5.875a8.57 8.57 0 0 0-6.099 2.526A8.57 8.57 0 0 0 .875 9.5a8.57 8.57 0 0 0 2.526 6.099A8.57 8.57 0 0 0 9.5 18.125c1.577 0 3.12-.43 4.463-1.243Zm0 0-.065-.106.065.107Zm-5.285-3.23a.79.79 0 1 0 1.578 0 .79.79 0 0 0-1.578 0Z" fill="#0037A1" stroke="#0037A1" stroke-width=".25"/>
</svg>
