<svg width="30" height="30" fill="none" xmlns="http://www.w3.org/2000/svg">
    <rect width="30" height="30" rx="2" fill="#419FD9"/>
    <path fill-rule="evenodd" clip-rule="evenodd" d="M17.675 20.91c.764.334 1.05-.366 1.05-.366l2.02-10.15c-.015-.684-.938-.27-.938-.27l-11.31 4.438s-.542.191-.494.525c.048.334.477.493.477.493l2.848.955s.859 2.816 1.034 3.357c.159.524.302.54.302.54.16.064.302-.047.302-.047l1.846-1.67 2.863 2.195Zm.493-8.718s.398-.239.382 0c0 0 .064.032-.143.254-.191.191-4.693 4.232-5.297 4.773a.167.167 0 0 0-.08.143l-.175 1.495c-.032.16-.239.175-.286.032l-.748-2.45a.234.234 0 0 1 .095-.27l6.252-3.977Z" fill="#fff"/>
</svg>
