<svg width="30" height="30" fill="none" xmlns="http://www.w3.org/2000/svg">
    <rect width="30" height="30" rx="2" fill="#B24293"/>
    <path d="M12.334 15a2.667 2.667 0 1 1 5.333 0 2.667 2.667 0 0 1-5.333 0Zm-1.442 0a4.108 4.108 0 1 0 8.216 0 4.108 4.108 0 0 0-8.216 0Zm7.419-4.27a.96.96 0 1 0 .96-.96.96.96 0 0 0-.96.96Zm-6.543 10.782c-.78-.036-1.204-.166-1.486-.275a2.486 2.486 0 0 1-.92-.599 2.468 2.468 0 0 1-.598-.92c-.11-.28-.24-.705-.275-1.485-.04-.843-.047-1.097-.047-3.233s.008-2.389.047-3.233c.035-.78.166-1.203.275-1.486.145-.373.318-.64.598-.92.28-.28.546-.453.92-.598.282-.11.706-.24 1.486-.275.843-.04 1.097-.047 3.232-.047 2.136 0 2.39.009 3.233.047.78.035 1.204.166 1.486.275.374.145.64.318.92.598.28.28.453.547.599.92.11.282.24.706.275 1.486.039.844.046 1.097.046 3.233s-.007 2.39-.046 3.233c-.036.78-.166 1.204-.275 1.486-.146.373-.319.64-.599.92-.28.279-.546.452-.92.598-.282.11-.706.24-1.486.275-.843.039-1.096.046-3.233.046-2.136 0-2.389-.007-3.232-.046Zm-.066-14.464c-.852.04-1.434.174-1.942.372a3.924 3.924 0 0 0-1.417.923c-.445.444-.719.89-.923 1.417-.198.508-.333 1.09-.372 1.942C7.01 12.555 7 12.828 7 15s.009 2.445.048 3.298c.04.852.174 1.434.372 1.942.204.526.478.973.923 1.417.445.445.89.718 1.417.923.51.198 1.09.333 1.942.372.853.038 1.126.048 3.298.048 2.173 0 2.446-.009 3.299-.048.851-.04 1.433-.174 1.942-.372a3.934 3.934 0 0 0 1.417-.923c.445-.444.718-.89.923-1.417.197-.508.333-1.09.371-1.942.039-.853.048-1.125.048-3.298 0-2.172-.009-2.445-.048-3.298-.039-.852-.174-1.434-.371-1.942a3.934 3.934 0 0 0-.923-1.417 3.915 3.915 0 0 0-1.417-.923c-.509-.198-1.09-.333-1.942-.372C17.446 7.01 17.174 7 15.001 7s-2.446.009-3.3.048Z" fill="#fff"/>
</svg>
