<svg width="27" height="27" fill="none" xmlns="http://www.w3.org/2000/svg">
    <path d="M24.174 20.075a1.055 1.055 0 0 0-1.476.217c-.191.257-.396.509-.608.749a1.055 1.055 0 0 0 1.58 1.397c.252-.284.494-.583.72-.887a1.054 1.054 0 0 0-.216-1.476ZM25.938 15.129a1.055 1.055 0 0 0-1.255.806c-.068.313-.15.627-.245.932a1.055 1.055 0 1 0 2.015.623c.112-.363.21-.735.29-1.106a1.055 1.055 0 0 0-.805-1.255ZM19.097 23.453c-.28.156-.57.302-.862.434a1.055 1.055 0 1 0 .869 1.922c.346-.156.69-.33 1.021-.515a1.055 1.055 0 1 0-1.028-1.841ZM12.445 5.063v8l-3.867 3.868a1.055 1.055 0 1 0 1.492 1.491l4.176-4.176c.198-.198.309-.466.309-.746V5.062a1.055 1.055 0 1 0-2.11 0Z" fill="#fff"/>
    <path d="M25.945 2.268c-.582 0-1.054.472-1.054 1.054v2.929A13.532 13.532 0 0 0 13.5 0a13.412 13.412 0 0 0-9.546 3.954A13.412 13.412 0 0 0 0 13.5c0 3.606 1.404 6.996 3.954 9.546A13.412 13.412 0 0 0 13.5 27l.026-.001.027.001c.38 0 .764-.016 1.14-.048a1.055 1.055 0 1 0-.175-2.102c-.319.027-.644.04-.965.04l-.027.002-.026-.001c-6.28 0-11.39-5.11-11.39-11.391 0-6.28 5.11-11.39 11.39-11.39 4.048 0 7.77 2.157 9.805 5.59h-2.9a1.055 1.055 0 1 0 0 2.109h3.22a3.354 3.354 0 0 0 1.85-.554A3.374 3.374 0 0 0 27 6.434V3.322c0-.582-.472-1.054-1.055-1.054Z" fill="#fff"/>
</svg>
